SplineFontDB: 3.0
FontName: FdSymbolB-Medium
FullName: FdSymbolB-Medium
FamilyName: FdSymbolB
Weight: Medium
Copyright: Copyright (c) 2012, Michael Ummels. This Font Software is licensed under the SIL Open Font License, Version 1.1.
Version: 1.008
ItalicAngle: 0
UnderlinePosition: -100
UnderlineWidth: 50
Ascent: 800
Descent: 200
InvalidEm: 0
LayerCount: 2
Layer: 0 0 "Back" 1
Layer: 1 0 "Fore" 0
UniqueID: 4577520
OS2Version: 0
OS2_WeightWidthSlopeOnly: 0
OS2_UseTypoMetrics: 0
CreationTime: 1431873711
ModificationTime: 1431873711
OS2TypoAscent: 0
OS2TypoAOffset: 1
OS2TypoDescent: 0
OS2TypoDOffset: 1
OS2TypoLinegap: 0
OS2WinAscent: 0
OS2WinAOffset: 1
OS2WinDescent: 0
OS2WinDOffset: 1
HheadAscent: 0
HheadAOffset: 1
HheadDescent: 0
HheadDOffset: 1
OS2Vendor: 'PfEd'
DEI: 91125
Encoding: Custom
UnicodeInterp: none
NameList: AGL For New Fonts
DisplaySize: -48
AntiAlias: 1
FitToEm: 0
BeginPrivate: 2
BlueValues 31 [-10 0 546 556 707 717 754 764]
OtherBlues 11 [-230 -220]
EndPrivate
BeginChars: 256 236

StartChar: equal
Encoding: 0 61 0
Width: 660
Flags: W
HStem: 136 86<90 570> 328 86<90 570>
LayerCount: 2
Back
Fore
SplineSet
90 328 m 1
 90 414 l 1
 570 414 l 1
 570 328 l 1
 90 328 l 1
90 136 m 1
 90 222 l 1
 570 222 l 1
 570 136 l 1
 90 136 l 1
EndSplineSet
EndChar

StartChar: uni2261
Encoding: 1 8801 1
Width: 660
Flags: W
HStem: 40 86<90 570> 232 86<90 570> 424 86<90 570>
CounterMasks: 1 e0
LayerCount: 2
Back
Fore
SplineSet
90 424 m 1
 90 510 l 1
 570 510 l 1
 570 424 l 1
 90 424 l 1
90 232 m 1
 90 318 l 1
 570 318 l 1
 570 232 l 1
 90 232 l 1
90 40 m 1
 90 126 l 1
 570 126 l 1
 570 40 l 1
 90 40 l 1
EndSplineSet
EndChar

StartChar: similar
Encoding: 2 8764 2
Width: 660
Flags: W
HStem: 184 86<379.423 484.613> 280 86<175.609 280.577>
LayerCount: 2
Back
Fore
SplineSet
141 224 m 1
 90 275 l 1
 130 315 168 366 224 366 c 0
 274 366 319 340 358 308 c 0
 381 289 406 270 436 270 c 0
 471 270 494 301 519 326 c 1
 570 275 l 1
 530 235 493 184 436 184 c 0
 386 184 341 210 302 242 c 0
 279 261 254 280 224 280 c 0
 189 280 166 249 141 224 c 1
EndSplineSet
EndChar

StartChar: uni223D
Encoding: 3 8765 3
Width: 660
Flags: W
HStem: 184 86<175.609 280.577> 280 86<379.423 484.613>
LayerCount: 2
Back
Fore
SplineSet
519 224 m 1
 494 249 471 280 436 280 c 0
 406 280 381 261 358 242 c 0
 319 210 274 184 224 184 c 0
 168 184 130 235 90 275 c 1
 141 326 l 1
 166 301 189 270 224 270 c 0
 254 270 279 289 302 308 c 0
 341 340 386 366 436 366 c 0
 493 366 530 315 570 275 c 1
 519 224 l 1
EndSplineSet
EndChar

StartChar: approxequal
Encoding: 4 8776 4
Width: 660
Flags: W
HStem: 88 86<378.851 484.613> 184 86<175.609 280.577> 280 86<379.423 484.613> 376 86<175.609 281.149>
LayerCount: 2
Back
Fore
SplineSet
141 321 m 1
 90 371 l 1
 130 411 168 462 224 462 c 0
 274 462 319 436 358 404 c 0
 381 385 406 366 436 366 c 0
 471 366 494 397 519 422 c 1
 570 371 l 1
 530 331 493 280 436 280 c 0
 386 280 341 306 302 338 c 0
 279 358 254 376 224 376 c 0
 189 376 166 346 141 321 c 1
141 128 m 1
 90 179 l 1
 130 219 168 270 224 270 c 0
 274 270 319 244 358 212 c 0
 381 192 406 174 436 174 c 0
 471 174 494 204 519 229 c 1
 570 179 l 1
 530 139 493 88 436 88 c 0
 386 88 341 114 302 146 c 0
 279 165 254 184 224 184 c 0
 189 184 166 153 141 128 c 1
EndSplineSet
EndChar

StartChar: uni224B
Encoding: 5 8779 5
Width: 660
Flags: W
HStem: -9 86<379.423 484.613> 88 86<175.609 280.577> 184 86<379.423 484.613> 280 86<175.609 280.577> 376 86<379.423 484.613> 473 86<175.609 280.577>
LayerCount: 2
Back
Fore
SplineSet
141 417 m 1
 90 467 l 1
 130 508 168 559 224 559 c 0
 274 559 319 533 358 500 c 0
 381 481 406 462 436 462 c 0
 471 462 494 493 519 518 c 1
 570 467 l 1
 530 427 493 376 436 376 c 0
 386 376 341 402 302 435 c 0
 279 454 254 473 224 473 c 0
 189 473 166 442 141 417 c 1
141 224 m 1
 90 275 l 1
 130 315 168 366 224 366 c 0
 274 366 319 340 358 308 c 0
 381 289 406 270 436 270 c 0
 471 270 494 301 519 326 c 1
 570 275 l 1
 530 235 493 184 436 184 c 0
 386 184 341 210 302 242 c 0
 279 261 254 280 224 280 c 0
 189 280 166 249 141 224 c 1
141 32 m 1
 90 83 l 1
 130 123 168 174 224 174 c 0
 274 174 319 148 358 115 c 0
 381 96 406 77 436 77 c 0
 471 77 494 108 519 133 c 1
 570 83 l 1
 530 42 493 -9 436 -9 c 0
 386 -9 341 17 302 50 c 0
 279 69 254 88 224 88 c 0
 189 88 166 57 141 32 c 1
EndSplineSet
EndChar

StartChar: uni2243
Encoding: 6 8771 6
Width: 660
Flags: W
HStem: 136 86<90 570> 280 86<379.423 484.613> 376 86<175.609 281.149>
LayerCount: 2
Back
Fore
SplineSet
141 321 m 1
 90 371 l 1
 130 411 168 462 224 462 c 0
 274 462 319 436 358 404 c 0
 381 385 406 366 436 366 c 0
 471 366 494 397 519 422 c 1
 570 371 l 1
 530 331 493 280 436 280 c 0
 386 280 341 306 302 338 c 0
 279 358 254 376 224 376 c 0
 189 376 166 346 141 321 c 1
90 136 m 1
 90 222 l 1
 570 222 l 1
 570 136 l 1
 90 136 l 1
EndSplineSet
EndChar

StartChar: uni22CD
Encoding: 7 8909 7
Width: 660
Flags: W
HStem: 136 86<90 570> 280 86<175.609 280.577> 376 86<378.851 484.613>
LayerCount: 2
Back
Fore
SplineSet
519 321 m 1
 494 346 471 376 436 376 c 0
 406 376 381 358 358 338 c 0
 319 306 274 280 224 280 c 0
 168 280 130 331 90 371 c 1
 141 422 l 1
 166 397 189 366 224 366 c 0
 254 366 279 385 302 404 c 0
 341 436 386 462 436 462 c 0
 493 462 530 411 570 371 c 1
 519 321 l 1
570 222 m 1
 570 136 l 1
 90 136 l 1
 90 222 l 1
 570 222 l 1
EndSplineSet
EndChar

StartChar: uni2242
Encoding: 8 8770 8
Width: 660
Flags: W
HStem: 88 86<378.851 484.613> 184 86<175.609 280.577> 328 86<90 570>
LayerCount: 2
Back
Fore
SplineSet
90 328 m 1
 90 414 l 1
 570 414 l 1
 570 328 l 1
 90 328 l 1
141 128 m 1
 90 179 l 1
 130 219 168 270 224 270 c 0
 274 270 319 244 358 212 c 0
 381 192 406 174 436 174 c 0
 471 174 494 204 519 229 c 1
 570 179 l 1
 530 139 493 88 436 88 c 0
 386 88 341 114 302 146 c 0
 279 165 254 184 224 184 c 0
 189 184 166 153 141 128 c 1
EndSplineSet
EndChar

StartChar: congruent
Encoding: 9 8773 9
Width: 660
Flags: W
HStem: 40 86<90 570> 232 86<90 570> 376 86<379.423 484.613> 473 86<175.609 280.577>
LayerCount: 2
Back
Fore
SplineSet
141 417 m 1
 90 467 l 1
 130 508 168 559 224 559 c 0
 274 559 319 533 358 500 c 0
 381 481 406 462 436 462 c 0
 471 462 494 493 519 518 c 1
 570 467 l 1
 530 427 493 376 436 376 c 0
 386 376 341 402 302 435 c 0
 279 454 254 473 224 473 c 0
 189 473 166 442 141 417 c 1
90 232 m 1
 90 318 l 1
 570 318 l 1
 570 232 l 1
 90 232 l 1
90 40 m 1
 90 126 l 1
 570 126 l 1
 570 40 l 1
 90 40 l 1
EndSplineSet
EndChar

StartChar: uni224C
Encoding: 10 8780 10
Width: 660
Flags: W
HStem: 40 86<90 570> 232 86<90 570> 376 86<175.609 280.577> 473 86<379.423 484.613>
LayerCount: 2
Back
Fore
SplineSet
519 417 m 1
 494 442 471 473 436 473 c 0
 406 473 381 454 358 435 c 0
 319 402 274 376 224 376 c 0
 168 376 130 427 90 467 c 1
 141 518 l 1
 166 493 189 462 224 462 c 0
 254 462 279 481 302 500 c 0
 341 533 386 559 436 559 c 0
 493 559 530 508 570 467 c 1
 519 417 l 1
570 318 m 1
 570 232 l 1
 90 232 l 1
 90 318 l 1
 570 318 l 1
570 126 m 1
 570 40 l 1
 90 40 l 1
 90 126 l 1
 570 126 l 1
EndSplineSet
EndChar

StartChar: uni224A
Encoding: 11 8778 11
Width: 660
Flags: W
HStem: 40 86<90 570> 184 86<379.423 484.613> 280 86<175.609 280.577> 376 86<379.423 484.613> 473 86<175.609 280.577>
LayerCount: 2
Back
Fore
SplineSet
141 417 m 1
 90 467 l 1
 130 508 168 559 224 559 c 0
 274 559 319 533 358 500 c 0
 381 481 406 462 436 462 c 0
 471 462 494 493 519 518 c 1
 570 467 l 1
 530 427 493 376 436 376 c 0
 386 376 341 402 302 435 c 0
 279 454 254 473 224 473 c 0
 189 473 166 442 141 417 c 1
141 224 m 1
 90 275 l 1
 130 315 168 366 224 366 c 0
 274 366 319 340 358 308 c 0
 381 289 406 270 436 270 c 0
 471 270 494 301 519 326 c 1
 570 275 l 1
 530 235 493 184 436 184 c 0
 386 184 341 210 302 242 c 0
 279 261 254 280 224 280 c 0
 189 280 166 249 141 224 c 1
90 40 m 1
 90 126 l 1
 570 126 l 1
 570 40 l 1
 90 40 l 1
EndSplineSet
EndChar

StartChar: uni224F
Encoding: 12 8783 12
Width: 660
Flags: W
HStem: 136 86<90 570> 328 86<90 206.297 453.703 570> 424 86<287.986 372.014>
LayerCount: 2
Back
Fore
SplineSet
90 414 m 1
 198 414 l 1
 216 470 268 510 330 510 c 0
 392 510 444 470 462 414 c 1
 570 414 l 1
 570 328 l 1
 383 328 l 1
 383 371 l 2
 383 401 359 424 330 424 c 0
 301 424 277 401 277 371 c 2
 277 328 l 1
 90 328 l 1
 90 414 l 1
90 136 m 1
 90 222 l 1
 570 222 l 1
 570 136 l 1
 90 136 l 1
EndSplineSet
EndChar

StartChar: uni2AAE
Encoding: 13 10926 13
Width: 660
Flags: W
HStem: 40 86<90 570> 232 86<90 570> 424 86<90 206.297 453.703 570> 520 87<287.986 372.014>
LayerCount: 2
Back
Fore
SplineSet
90 510 m 1
 198 510 l 1
 216 566 268 607 330 607 c 0
 392 607 444 566 462 510 c 1
 570 510 l 1
 570 424 l 1
 383 424 l 1
 383 467 l 2
 383 497 359 520 330 520 c 0
 301 520 277 497 277 467 c 2
 277 424 l 1
 90 424 l 1
 90 510 l 1
90 232 m 1
 90 318 l 1
 570 318 l 1
 570 232 l 1
 90 232 l 1
90 40 m 1
 90 126 l 1
 570 126 l 1
 570 40 l 1
 90 40 l 1
EndSplineSet
EndChar

StartChar: uni224E
Encoding: 14 8782 14
Width: 660
Flags: W
HStem: 40 86<287.986 372.014> 136 86<90 206.297 453.703 570> 328 86<90 206.297 453.703 570> 424 86<287.986 372.014>
VStem: 90 187<136.315 222 328 413.685> 383 187<136.315 222 328 413.685>
LayerCount: 2
Back
Fore
SplineSet
90 414 m 1
 198 414 l 1
 216 470 268 510 330 510 c 0
 392 510 444 470 462 414 c 1
 570 414 l 1
 570 328 l 1
 383 328 l 1
 383 371 l 2
 383 401 359 424 330 424 c 0
 301 424 277 401 277 371 c 2
 277 328 l 1
 90 328 l 1
 90 414 l 1
90 136 m 1
 90 222 l 1
 277 222 l 1
 277 179 l 2
 277 149 301 126 330 126 c 0
 359 126 383 149 383 179 c 2
 383 222 l 1
 570 222 l 1
 570 136 l 1
 462 136 l 1
 444 80 392 40 330 40 c 0
 268 40 216 80 198 136 c 1
 90 136 l 1
EndSplineSet
EndChar

StartChar: uni2250
Encoding: 15 8784 15
Width: 660
Flags: W
HStem: 136 86<90 570> 328 86<90 570> 493 141<294.512 365.488>
VStem: 260 141<528.596 598.496>
LayerCount: 2
Back
Fore
SplineSet
90 328 m 1
 90 414 l 1
 570 414 l 1
 570 328 l 1
 90 328 l 1
90 136 m 1
 90 222 l 1
 570 222 l 1
 570 136 l 1
 90 136 l 1
401 564 m 0
 401 550 385 534 372 521 c 0
 360 509 344 493 330 493 c 0
 316 493 300 509 288 521 c 0
 275 534 260 550 260 564 c 0
 260 578 275 593 288 606 c 0
 300 619 316 634 330 634 c 0
 344 634 360 619 372 606 c 0
 385 593 401 578 401 564 c 0
EndSplineSet
EndChar

StartChar: uni2A66
Encoding: 16 10854 16
Width: 660
Flags: W
HStem: -84 141<294.512 365.488> 136 86<90 570> 328 86<90 570>
VStem: 260 141<-48.4963 21.4041>
LayerCount: 2
Back
Fore
SplineSet
90 328 m 1
 90 414 l 1
 570 414 l 1
 570 328 l 1
 90 328 l 1
90 136 m 1
 90 222 l 1
 570 222 l 1
 570 136 l 1
 90 136 l 1
401 -14 m 0
 401 -28 385 -43 372 -56 c 0
 360 -69 344 -84 330 -84 c 0
 316 -84 300 -69 288 -56 c 0
 275 -43 260 -28 260 -14 c 0
 260 0 275 16 288 29 c 0
 300 41 316 57 330 57 c 0
 344 57 360 41 372 29 c 0
 385 16 401 0 401 -14 c 0
EndSplineSet
EndChar

StartChar: uni2251
Encoding: 17 8785 17
Width: 660
Flags: W
HStem: -84 141<294.512 365.488> 136 86<90 570> 328 86<90 570> 493 141<294.512 365.488>
VStem: 260 141<-48.4963 21.4041 528.596 598.496>
LayerCount: 2
Back
Fore
SplineSet
90 328 m 1
 90 414 l 1
 570 414 l 1
 570 328 l 1
 90 328 l 1
90 136 m 1
 90 222 l 1
 570 222 l 1
 570 136 l 1
 90 136 l 1
401 564 m 0
 401 550 385 534 372 521 c 0
 360 509 344 493 330 493 c 0
 316 493 300 509 288 521 c 0
 275 534 260 550 260 564 c 0
 260 578 275 593 288 606 c 0
 300 619 316 634 330 634 c 0
 344 634 360 619 372 606 c 0
 385 593 401 578 401 564 c 0
401 -14 m 0
 401 -28 385 -43 372 -56 c 0
 360 -69 344 -84 330 -84 c 0
 316 -84 300 -69 288 -56 c 0
 275 -43 260 -28 260 -14 c 0
 260 0 275 16 288 29 c 0
 300 41 316 57 330 57 c 0
 344 57 360 41 372 29 c 0
 385 16 401 0 401 -14 c 0
EndSplineSet
EndChar

StartChar: uni2252
Encoding: 18 8786 18
Width: 660
Flags: W
HStem: -84 141<463.87 535.135> 136 86<90 570> 328 86<90 570> 493 141<124.87 196.135>
VStem: 90 141<527.944 599.135> 429 141<-49.1349 22.0564>
LayerCount: 2
Back
Fore
SplineSet
90 328 m 1
 90 414 l 1
 570 414 l 1
 570 328 l 1
 90 328 l 1
90 136 m 1
 90 222 l 1
 570 222 l 1
 570 136 l 1
 90 136 l 1
231 564 m 0
 231 550 215 534 203 521 c 0
 190 509 175 493 161 493 c 0
 146 493 131 509 118 521 c 0
 106 534 90 550 90 564 c 0
 90 578 106 593 118 606 c 0
 131 619 146 634 161 634 c 0
 175 634 190 619 203 606 c 0
 215 593 231 578 231 564 c 0
570 -14 m 0
 570 -28 554 -43 542 -56 c 0
 529 -69 514 -84 500 -84 c 0
 485 -84 470 -69 457 -56 c 0
 445 -43 429 -28 429 -14 c 0
 429 0 445 16 457 29 c 0
 470 41 485 57 500 57 c 0
 514 57 529 41 542 29 c 0
 554 16 570 0 570 -14 c 0
EndSplineSet
EndChar

StartChar: uni2253
Encoding: 19 8787 19
Width: 660
Flags: W
HStem: -84 141<124.87 196.135> 136 86<90 570> 328 86<90 570> 493 141<463.87 535.135>
VStem: 90 141<-49.1349 22.0564> 429 141<527.944 599.135>
LayerCount: 2
Back
Fore
SplineSet
570 414 m 1
 570 328 l 1
 90 328 l 1
 90 414 l 1
 570 414 l 1
570 222 m 1
 570 136 l 1
 90 136 l 1
 90 222 l 1
 570 222 l 1
570 564 m 0
 570 550 554 534 542 521 c 0
 529 509 514 493 500 493 c 0
 485 493 470 509 457 521 c 0
 445 534 429 550 429 564 c 0
 429 578 445 593 457 606 c 0
 470 619 485 634 500 634 c 0
 514 634 529 619 542 606 c 0
 554 593 570 578 570 564 c 0
231 -14 m 0
 231 -28 215 -43 203 -56 c 0
 190 -69 175 -84 161 -84 c 0
 146 -84 131 -69 118 -56 c 0
 106 -43 90 -28 90 -14 c 0
 90 0 106 16 118 29 c 0
 131 41 146 57 161 57 c 0
 175 57 190 41 203 29 c 0
 215 16 231 0 231 -14 c 0
EndSplineSet
EndChar

StartChar: uni2254
Encoding: 20 8788 20
Width: 891
Flags: W
HStem: 108 141<124.87 196.135> 136 86<321 801> 301 141<124.87 196.135> 328 86<321 801>
VStem: 90 141<142.944 214.135 335.865 407.056>
LayerCount: 2
Back
Fore
SplineSet
231 371 m 0x18
 231 357 215 342 203 329 c 0
 190 316 175 301 161 301 c 0x28
 146 301 131 316 118 329 c 0
 106 342 90 357 90 371 c 0
 90 385 106 401 118 414 c 0x18
 131 426 146 442 161 442 c 0x28
 175 442 190 426 203 414 c 0
 215 401 231 385 231 371 c 0x18
231 179 m 0
 231 165 215 149 203 136 c 0x48
 190 124 175 108 161 108 c 0x88
 146 108 131 124 118 136 c 0x48
 106 149 90 165 90 179 c 0
 90 193 106 208 118 221 c 0
 131 234 146 249 161 249 c 0x88
 175 249 190 234 203 221 c 0
 215 208 231 193 231 179 c 0
321 328 m 1x18
 321 414 l 1
 801 414 l 1
 801 328 l 1
 321 328 l 1x18
321 136 m 1x48
 321 222 l 1
 801 222 l 1
 801 136 l 1
 321 136 l 1x48
EndSplineSet
EndChar

StartChar: uni2255
Encoding: 21 8789 21
Width: 891
Flags: W
HStem: 108 141<694.512 765.488> 136 86<90 570> 301 141<694.512 765.488> 328 86<90 570>
VStem: 660 141<143.596 213.496 336.504 406.404>
LayerCount: 2
Back
Fore
SplineSet
801 371 m 0x18
 801 357 785 342 772 329 c 0
 760 316 744 301 730 301 c 0x28
 716 301 700 316 688 329 c 0
 675 342 660 357 660 371 c 0
 660 385 675 401 688 414 c 0x18
 700 426 716 442 730 442 c 0x28
 744 442 760 426 772 414 c 0
 785 401 801 385 801 371 c 0x18
801 179 m 0
 801 165 785 149 772 136 c 0x48
 760 124 744 108 730 108 c 0x88
 716 108 700 124 688 136 c 0x48
 675 149 660 165 660 179 c 0
 660 193 675 208 688 221 c 0
 700 234 716 249 730 249 c 0x88
 744 249 760 234 772 221 c 0
 785 208 801 193 801 179 c 0
570 414 m 1x18
 570 328 l 1
 90 328 l 1
 90 414 l 1
 570 414 l 1x18
570 222 m 1x48
 570 136 l 1
 90 136 l 1
 90 222 l 1
 570 222 l 1x48
EndSplineSet
EndChar

StartChar: uni2323
Encoding: 22 8995 22
Width: 660
Flags: W
HStem: 184 86<238.913 421.087>
LayerCount: 2
Back
Fore
SplineSet
151 353 m 1
 199 305 262 270 330 270 c 0
 398 270 461 305 509 353 c 1
 570 293 l 1
 505 228 421 184 330 184 c 0
 239 184 155 228 90 293 c 1
 151 353 l 1
EndSplineSet
EndChar

StartChar: uni2322
Encoding: 23 8994 23
Width: 660
Flags: W
HStem: 280 86<238.913 421.087>
LayerCount: 2
Back
Fore
SplineSet
151 197 m 1
 90 257 l 1
 155 322 239 366 330 366 c 0
 421 366 505 322 570 257 c 1
 509 197 l 1
 461 245 398 280 330 280 c 0
 262 280 199 245 151 197 c 1
EndSplineSet
EndChar

StartChar: uni224D
Encoding: 24 8781 24
Width: 660
Flags: W
HStem: 152 86<238.913 421.087> 312 86<238.913 421.087>
LayerCount: 2
Back
Fore
SplineSet
151 482 m 1
 199 433 262 398 330 398 c 0
 398 398 461 433 509 482 c 1
 570 421 l 1
 505 356 421 312 330 312 c 0
 239 312 155 356 90 421 c 1
 151 482 l 1
151 68 m 1
 90 129 l 1
 155 194 239 238 330 238 c 0
 421 238 505 194 570 129 c 1
 509 68 l 1
 461 117 398 152 330 152 c 0
 262 152 199 117 151 68 c 1
EndSplineSet
EndChar

StartChar: uni2050
Encoding: 25 8272 25
Width: 660
Flags: W
HStem: 56 86<238.913 421.087> 408 86<238.913 421.087>
LayerCount: 2
Back
Fore
SplineSet
151 325 m 1
 90 386 l 1
 155 450 239 494 330 494 c 0
 421 494 505 450 570 386 c 1
 509 325 l 1
 461 373 398 408 330 408 c 0
 262 408 199 373 151 325 c 1
151 225 m 1
 199 177 262 142 330 142 c 0
 398 142 461 177 509 225 c 1
 570 164 l 1
 505 100 421 56 330 56 c 0
 239 56 155 100 90 164 c 1
 151 225 l 1
EndSplineSet
EndChar

StartChar: sym020
Encoding: 26 -1 26
Width: 660
Flags: W
HStem: 40 86<90 570> 232 86<90 570> 376 86<238.913 421.087> 526 20G<131 175 485 529>
LayerCount: 2
Back
Fore
SplineSet
151 546 m 1
 199 497 262 462 330 462 c 0
 398 462 461 497 509 546 c 1
 570 485 l 1
 505 421 421 376 330 376 c 0
 239 376 155 421 90 485 c 1
 151 546 l 1
90 232 m 1
 90 318 l 1
 570 318 l 1
 570 232 l 1
 90 232 l 1
90 40 m 1
 90 126 l 1
 570 126 l 1
 570 40 l 1
 90 40 l 1
EndSplineSet
EndChar

StartChar: uni2258
Encoding: 27 8792 27
Width: 660
Flags: W
HStem: 40 86<90 570> 232 86<90 570> 473 86<238.913 421.087>
LayerCount: 2
Back
Fore
SplineSet
151 389 m 1
 90 450 l 1
 155 514 239 559 330 559 c 0
 421 559 505 514 570 450 c 1
 509 389 l 1
 461 438 398 473 330 473 c 0
 262 473 199 438 151 389 c 1
90 232 m 1
 90 318 l 1
 570 318 l 1
 570 232 l 1
 90 232 l 1
90 40 m 1
 90 126 l 1
 570 126 l 1
 570 40 l 1
 90 40 l 1
EndSplineSet
EndChar

StartChar: uni2256
Encoding: 28 8790 28
Width: 660
Flags: W
HStem: 136 86<90 231 293.877 366.123 429 570> 328 86<90 231 293.877 366.123 429 570>
VStem: 218 64<235.243 314.757> 378 64<235.243 314.757>
LayerCount: 2
Back
Fore
SplineSet
90 136 m 1
 90 222 l 1
 231 222 l 1
 223 238 218 256 218 275 c 0
 218 294 223 312 231 328 c 1
 90 328 l 1
 90 414 l 1
 570 414 l 1
 570 328 l 1
 429 328 l 1
 437 312 442 294 442 275 c 0
 442 256 437 238 429 222 c 1
 570 222 l 1
 570 136 l 1
 90 136 l 1
330 227 m 0
 356 227 378 249 378 275 c 0
 378 301 356 323 330 323 c 0
 304 323 282 301 282 275 c 0
 282 249 304 227 330 227 c 0
EndSplineSet
EndChar

StartChar: uni2257
Encoding: 29 8791 29
Width: 660
Flags: W
HStem: 136 86<90 570> 328 86<90 570> 499 65<290.577 369.423> 660 64<291.083 368.917>
VStem: 218 64<572.409 651.118> 378 64<572.409 651.118>
LayerCount: 2
Back
Fore
SplineSet
90 328 m 1
 90 414 l 1
 570 414 l 1
 570 328 l 1
 90 328 l 1
90 136 m 1
 90 222 l 1
 570 222 l 1
 570 136 l 1
 90 136 l 1
330 724 m 0
 391 724 442 674 442 612 c 0
 442 582 431 553 410 532 c 0
 388 511 360 499 330 499 c 0
 300 499 272 511 250 532 c 0
 229 553 218 582 218 612 c 0
 218 674 269 724 330 724 c 0
330 564 m 0
 356 564 378 586 378 612 c 0
 378 638 356 660 330 660 c 0
 304 660 282 638 282 612 c 0
 282 586 304 564 330 564 c 0
EndSplineSet
EndChar

StartChar: uni2259
Encoding: 30 8793 30
Width: 660
Flags: W
HStem: 136 86<90 570> 328 86<90 570> 736 20G<293.255 366.745>
LayerCount: 2
Back
Fore
SplineSet
90 328 m 1
 90 414 l 1
 570 414 l 1
 570 328 l 1
 90 328 l 1
90 136 m 1
 90 222 l 1
 570 222 l 1
 570 136 l 1
 90 136 l 1
536 521 m 1
 468 467 l 1
 330 644 l 1
 192 467 l 1
 124 521 l 1
 309 756 l 1
 351 756 l 1
 536 521 l 1
EndSplineSet
EndChar

StartChar: uni225A
Encoding: 31 8794 31
Width: 660
Flags: W
HStem: 136 86<90 570> 328 86<90 570> 736 20G<166.34 207.682 452.318 493.66>
LayerCount: 2
Back
Fore
SplineSet
90 328 m 1
 90 414 l 1
 570 414 l 1
 570 328 l 1
 90 328 l 1
90 136 m 1
 90 222 l 1
 570 222 l 1
 570 136 l 1
 90 136 l 1
124 703 m 1
 192 756 l 1
 330 580 l 1
 468 756 l 1
 536 703 l 1
 351 467 l 1
 309 467 l 1
 124 703 l 1
EndSplineSet
EndChar

StartChar: uni225B
Encoding: 32 8795 32
Width: 660
Flags: W
HStem: 136 86<90 570> 328 86<90 570>
LayerCount: 2
Back
Fore
SplineSet
90 328 m 1
 90 414 l 1
 570 414 l 1
 570 328 l 1
 90 328 l 1
90 136 m 1
 90 222 l 1
 570 222 l 1
 570 136 l 1
 90 136 l 1
330 797 m 1
 373 672 l 1
 506 669 l 1
 400 589 l 1
 439 462 l 1
 330 538 l 1
 221 462 l 1
 260 589 l 1
 154 669 l 1
 287 672 l 1
 330 797 l 1
EndSplineSet
EndChar

StartChar: uni225C
Encoding: 33 8796 33
Width: 660
Flags: W
HStem: 136 86<90 570> 328 86<90 570> 507 65<261 399>
LayerCount: 2
Back
Fore
SplineSet
90 328 m 1
 90 414 l 1
 570 414 l 1
 570 328 l 1
 90 328 l 1
90 136 m 1
 90 222 l 1
 570 222 l 1
 570 136 l 1
 90 136 l 1
330 821 m 1
 511 507 l 1
 149 507 l 1
 330 821 l 1
330 692 m 1
 261 572 l 1
 399 572 l 1
 330 692 l 1
EndSplineSet
EndChar

StartChar: element
Encoding: 34 8712 34
Width: 660
Flags: W
HStem: -9 86<259.465 570> 232 86<179 570> 473 86<259.465 570>
VStem: 90 89<167.766 232 318 382.234>
CounterMasks: 1 e0
LayerCount: 2
Back
Fore
SplineSet
570 473 m 1
 328 473 l 2
 247 473 193 402 179 318 c 1
 570 318 l 1
 570 232 l 1
 179 232 l 1
 193 148 247 77 328 77 c 2
 570 77 l 1
 570 -9 l 1
 328 -9 l 2
 187 -9 90 126 90 275 c 0
 90 424 187 559 328 559 c 2
 570 559 l 1
 570 473 l 1
EndSplineSet
EndChar

StartChar: uni220B
Encoding: 35 8715 35
Width: 660
Flags: W
HStem: -9 86<90 400.535> 232 86<90 481> 473 86<90 400.535>
VStem: 481 89<167.766 232 318 382.234>
CounterMasks: 1 e0
LayerCount: 2
Back
Fore
SplineSet
90 77 m 1
 332 77 l 2
 413 77 467 148 481 232 c 1
 90 232 l 1
 90 318 l 1
 481 318 l 1
 467 402 413 473 332 473 c 2
 90 473 l 1
 90 559 l 1
 332 559 l 2
 473 559 570 424 570 275 c 0
 570 126 473 -9 332 -9 c 2
 90 -9 l 1
 90 77 l 1
EndSplineSet
EndChar

StartChar: less
Encoding: 36 60 36
Width: 660
Flags: W
LayerCount: 2
Back
Fore
SplineSet
529 542 m 1
 570 467 l 1
 222 275 l 1
 570 83 l 1
 529 8 l 1
 90 250 l 1
 90 300 l 1
 529 542 l 1
EndSplineSet
EndChar

StartChar: greater
Encoding: 37 62 37
Width: 660
Flags: W
LayerCount: 2
Back
Fore
SplineSet
131 8 m 1
 90 83 l 1
 438 275 l 1
 90 467 l 1
 131 542 l 1
 570 300 l 1
 570 250 l 1
 131 8 l 1
EndSplineSet
EndChar

StartChar: lessequal
Encoding: 38 8804 38
Width: 660
Flags: W
HStem: -13 86<90 570> 533 20G<488.676 545.25>
LayerCount: 2
Back
Fore
SplineSet
537 553 m 1
 570 473 l 1
 246 339 l 1
 570 205 l 1
 537 126 l 1
 90 310 l 1
 90 368 l 1
 537 553 l 1
90 -13 m 1
 90 73 l 1
 570 73 l 1
 570 -13 l 1
 90 -13 l 1
EndSplineSet
EndChar

StartChar: greaterequal
Encoding: 39 8805 39
Width: 660
Flags: W
HStem: -13 86<90 570> 533 20G<114.75 171.324>
LayerCount: 2
Back
Fore
SplineSet
123 126 m 1
 90 205 l 1
 414 339 l 1
 90 473 l 1
 123 553 l 1
 570 368 l 1
 570 310 l 1
 123 126 l 1
570 73 m 1
 570 -13 l 1
 90 -13 l 1
 90 73 l 1
 570 73 l 1
EndSplineSet
EndChar

StartChar: uni2A7D
Encoding: 40 10877 40
Width: 660
Flags: W
LayerCount: 2
Back
Fore
SplineSet
537 585 m 1
 570 505 l 1
 246 371 l 1
 570 237 l 1
 537 158 l 1
 90 342 l 1
 90 400 l 1
 537 585 l 1
570 45 m 1
 537 -35 l 1
 90 150 l 1
 123 229 l 1
 570 45 l 1
EndSplineSet
EndChar

StartChar: uni2A7E
Encoding: 41 10878 41
Width: 660
Flags: W
LayerCount: 2
Back
Fore
SplineSet
123 158 m 1
 90 237 l 1
 414 371 l 1
 90 505 l 1
 123 585 l 1
 570 400 l 1
 570 342 l 1
 123 158 l 1
123 -35 m 1
 90 45 l 1
 537 229 l 1
 570 150 l 1
 123 -35 l 1
EndSplineSet
EndChar

StartChar: uni2266
Encoding: 42 8806 42
Width: 660
Flags: W
HStem: -109 86<90 570> 84 86<90 570>
LayerCount: 2
Back
Fore
SplineSet
537 649 m 1
 570 569 l 1
 246 435 l 1
 570 301 l 1
 537 222 l 1
 90 407 l 1
 90 464 l 1
 537 649 l 1
90 84 m 1
 90 170 l 1
 570 170 l 1
 570 84 l 1
 90 84 l 1
90 -109 m 1
 90 -23 l 1
 570 -23 l 1
 570 -109 l 1
 90 -109 l 1
EndSplineSet
EndChar

StartChar: uni2267
Encoding: 43 8807 43
Width: 660
Flags: W
HStem: -109 86<90 570> 84 86<90 570>
LayerCount: 2
Back
Fore
SplineSet
123 222 m 1
 90 301 l 1
 414 435 l 1
 90 569 l 1
 123 649 l 1
 570 464 l 1
 570 407 l 1
 123 222 l 1
570 170 m 1
 570 84 l 1
 90 84 l 1
 90 170 l 1
 570 170 l 1
570 -23 m 1
 570 -109 l 1
 90 -109 l 1
 90 -23 l 1
 570 -23 l 1
EndSplineSet
EndChar

StartChar: uni2272
Encoding: 44 8818 44
Width: 660
Flags: W
HStem: -45 86<379.423 484.613> -4 21G<120.6 153.5> 52 86<175.609 280.577>
LayerCount: 2
Back
Fore
SplineSet
537 585 m 1x20
 570 505 l 1
 246 371 l 1
 570 237 l 1
 537 158 l 1
 90 342 l 1
 90 400 l 1
 537 585 l 1x20
141 -4 m 1x60
 90 46 l 1
 130 87 168 138 224 138 c 0
 274 138 319 112 358 79 c 0
 381 60 406 41 436 41 c 0
 471 41 494 72 519 97 c 1
 570 46 l 1
 530 6 493 -45 436 -45 c 0xa0
 386 -45 341 -19 302 14 c 0
 279 33 254 52 224 52 c 0
 189 52 166 21 141 -4 c 1x60
EndSplineSet
EndChar

StartChar: uni2273
Encoding: 45 8819 45
Width: 660
Flags: W
HStem: -45 86<379.423 484.613> -4 21G<120.6 153.5> 52 86<175.609 280.577>
LayerCount: 2
Back
Fore
SplineSet
123 158 m 1x20
 90 237 l 1
 414 371 l 1
 90 505 l 1
 123 585 l 1
 570 400 l 1
 570 342 l 1
 123 158 l 1x20
141 -4 m 1x60
 90 46 l 1
 130 87 168 138 224 138 c 0
 274 138 319 112 358 79 c 0
 381 60 406 41 436 41 c 0
 471 41 494 72 519 97 c 1
 570 46 l 1
 530 6 493 -45 436 -45 c 0xa0
 386 -45 341 -19 302 14 c 0
 279 33 254 52 224 52 c 0
 189 52 166 21 141 -4 c 1x60
EndSplineSet
EndChar

StartChar: uni2A85
Encoding: 46 10885 46
Width: 660
Flags: W
HStem: -141 86<379.423 484.613> -45 86<175.609 281.149> -19 20G<506.5 539> 52 86<378.851 484.613> 148 86<175.609 280.577>
LayerCount: 2
Back
Fore
SplineSet
537 681 m 1x98
 570 601 l 1
 246 467 l 1
 570 334 l 1
 537 254 l 1
 90 439 l 1
 90 496 l 1
 537 681 l 1x98
141 92 m 1
 90 143 l 1
 130 183 168 234 224 234 c 0
 274 234 319 208 358 176 c 0
 381 156 406 138 436 138 c 0
 471 138 494 168 519 193 c 1
 570 143 l 1
 530 102 493 52 436 52 c 0
 386 52 341 78 302 110 c 0
 279 129 254 148 224 148 c 0
 189 148 166 117 141 92 c 1
141 -100 m 1
 90 -50 l 1
 130 -10 168 41 224 41 c 0xd8
 274 41 319 15 358 -17 c 0
 381 -36 406 -55 436 -55 c 0
 471 -55 494 -24 519 1 c 1xb8
 570 -50 l 1
 530 -90 493 -141 436 -141 c 0
 386 -141 341 -115 302 -83 c 0
 279 -63 254 -45 224 -45 c 0xd8
 189 -45 166 -76 141 -100 c 1
EndSplineSet
EndChar

StartChar: uni2A86
Encoding: 47 10886 47
Width: 660
Flags: W
HStem: -141 86<379.423 484.613> -45 86<175.609 281.149> -19 20G<506.5 539> 52 86<378.851 484.613> 148 86<175.609 280.577>
LayerCount: 2
Back
Fore
SplineSet
123 254 m 1x98
 90 334 l 1
 414 467 l 1
 90 601 l 1
 123 681 l 1
 570 496 l 1
 570 439 l 1
 123 254 l 1x98
141 92 m 1
 90 143 l 1
 130 183 168 234 224 234 c 0
 274 234 319 208 358 176 c 0
 381 156 406 138 436 138 c 0
 471 138 494 168 519 193 c 1
 570 143 l 1
 530 102 493 52 436 52 c 0
 386 52 341 78 302 110 c 0
 279 129 254 148 224 148 c 0
 189 148 166 117 141 92 c 1
141 -100 m 1
 90 -50 l 1
 130 -10 168 41 224 41 c 0xd8
 274 41 319 15 358 -17 c 0
 381 -36 406 -55 436 -55 c 0
 471 -55 494 -24 519 1 c 1xb8
 570 -50 l 1
 530 -90 493 -141 436 -141 c 0
 386 -141 341 -115 302 -83 c 0
 279 -63 254 -45 224 -45 c 0xd8
 189 -45 166 -76 141 -100 c 1
EndSplineSet
EndChar

StartChar: uni2276
Encoding: 48 8822 48
Width: 660
Flags: W
LayerCount: 2
Back
Fore
SplineSet
537 675 m 1
 570 595 l 1
 246 461 l 1
 570 328 l 1
 537 248 l 1
 90 433 l 1
 90 490 l 1
 537 675 l 1
123 -125 m 1
 90 -45 l 1
 414 89 l 1
 90 222 l 1
 123 302 l 1
 570 117 l 1
 570 60 l 1
 123 -125 l 1
EndSplineSet
EndChar

StartChar: uni2277
Encoding: 49 8823 49
Width: 660
Flags: W
LayerCount: 2
Back
Fore
SplineSet
123 248 m 1
 90 328 l 1
 414 461 l 1
 90 595 l 1
 123 675 l 1
 570 490 l 1
 570 433 l 1
 123 248 l 1
537 302 m 1
 570 222 l 1
 246 89 l 1
 570 -45 l 1
 537 -125 l 1
 90 60 l 1
 90 117 l 1
 537 302 l 1
EndSplineSet
EndChar

StartChar: uni22DA
Encoding: 50 8922 50
Width: 660
Flags: W
HStem: 232 86<90 570>
LayerCount: 2
Back
Fore
SplineSet
537 797 m 1
 570 718 l 1
 246 584 l 1
 570 450 l 1
 537 370 l 1
 90 555 l 1
 90 613 l 1
 537 797 l 1
123 -247 m 1
 90 -168 l 1
 414 -34 l 1
 90 100 l 1
 123 180 l 1
 570 -5 l 1
 570 -63 l 1
 123 -247 l 1
90 232 m 1
 90 318 l 1
 570 318 l 1
 570 232 l 1
 90 232 l 1
EndSplineSet
EndChar

StartChar: uni22DB
Encoding: 51 8923 51
Width: 660
Flags: W
HStem: 232 86<90 570>
LayerCount: 2
Back
Fore
SplineSet
123 370 m 1
 90 450 l 1
 414 584 l 1
 90 718 l 1
 123 797 l 1
 570 613 l 1
 570 555 l 1
 123 370 l 1
537 180 m 1
 570 100 l 1
 246 -34 l 1
 570 -168 l 1
 537 -247 l 1
 90 -63 l 1
 90 -5 l 1
 537 180 l 1
570 318 m 1
 570 232 l 1
 90 232 l 1
 90 318 l 1
 570 318 l 1
EndSplineSet
EndChar

StartChar: uni2A8B
Encoding: 52 10891 52
Width: 660
Flags: W
HStem: 136 86<90 570> 328 86<90 570>
LayerCount: 2
Back
Fore
SplineSet
537 893 m 1
 570 814 l 1
 246 680 l 1
 570 546 l 1
 537 467 l 1
 90 651 l 1
 90 709 l 1
 537 893 l 1
123 -343 m 1
 90 -264 l 1
 414 -130 l 1
 90 4 l 1
 123 83 l 1
 570 -101 l 1
 570 -159 l 1
 123 -343 l 1
90 328 m 1
 90 414 l 1
 570 414 l 1
 570 328 l 1
 90 328 l 1
90 136 m 1
 90 222 l 1
 570 222 l 1
 570 136 l 1
 90 136 l 1
EndSplineSet
EndChar

StartChar: uni2A8C
Encoding: 53 10892 53
Width: 660
Flags: W
HStem: 136 86<90 570> 328 86<90 570>
LayerCount: 2
Back
Fore
SplineSet
123 467 m 1
 90 546 l 1
 414 680 l 1
 90 814 l 1
 123 893 l 1
 570 709 l 1
 570 651 l 1
 123 467 l 1
537 83 m 1
 570 4 l 1
 246 -130 l 1
 570 -264 l 1
 537 -343 l 1
 90 -159 l 1
 90 -101 l 1
 537 83 l 1
570 414 m 1
 570 328 l 1
 90 328 l 1
 90 414 l 1
 570 414 l 1
570 222 m 1
 570 136 l 1
 90 136 l 1
 90 222 l 1
 570 222 l 1
EndSplineSet
EndChar

StartChar: uni22DA.alt
Encoding: 54 -1 54
Width: 660
Flags: W
HStem: -221 21G<114.646 171.324>
LayerCount: 2
Back
Fore
SplineSet
537 771 m 1
 570 692 l 1
 246 558 l 1
 570 424 l 1
 537 344 l 1
 90 529 l 1
 90 586 l 1
 537 771 l 1
123 -221 m 1
 90 -142 l 1
 414 -8 l 1
 90 126 l 1
 123 206 l 1
 570 21 l 1
 570 -36 l 1
 123 -221 l 1
570 222 m 1
 537 143 l 1
 90 328 l 1
 123 407 l 1
 570 222 l 1
EndSplineSet
EndChar

StartChar: uni22DB.alt
Encoding: 55 -1 55
Width: 660
Flags: W
HStem: -221 21G<488.676 545.354>
LayerCount: 2
Back
Fore
SplineSet
123 344 m 1
 90 424 l 1
 414 558 l 1
 90 692 l 1
 123 771 l 1
 570 586 l 1
 570 529 l 1
 123 344 l 1
537 206 m 1
 570 126 l 1
 246 -8 l 1
 570 -142 l 1
 537 -221 l 1
 90 -36 l 1
 90 21 l 1
 537 206 l 1
123 143 m 1
 90 222 l 1
 537 407 l 1
 570 328 l 1
 123 143 l 1
EndSplineSet
EndChar

StartChar: uni226A
Encoding: 56 8810 56
Width: 1131
Flags: W
HStem: 526 20G<576.379 629.231 961.379 1014.23>
LayerCount: 2
Back
Fore
SplineSet
620 546 m 1
 656 468 l 1
 236 275 l 1
 656 82 l 1
 620 4 l 1
 90 247 l 1
 90 303 l 1
 620 546 l 1
1005 546 m 1
 1041 468 l 1
 621 275 l 1
 1041 82 l 1
 1005 4 l 1
 475 247 l 1
 475 303 l 1
 1005 546 l 1
EndSplineSet
EndChar

StartChar: uni226B
Encoding: 57 8811 57
Width: 1131
Flags: W
HStem: 526 20G<116.769 169.621 501.769 554.621>
LayerCount: 2
Back
Fore
SplineSet
511 4 m 1
 475 82 l 1
 895 275 l 1
 475 468 l 1
 511 546 l 1
 1041 303 l 1
 1041 247 l 1
 511 4 l 1
126 4 m 1
 90 82 l 1
 510 275 l 1
 90 468 l 1
 126 546 l 1
 656 303 l 1
 656 247 l 1
 126 4 l 1
EndSplineSet
EndChar

StartChar: uni22D8
Encoding: 58 8920 58
Width: 1516
Flags: W
HStem: 526 20G<576.379 629.231 961.379 1014.23 1346.38 1399.23>
LayerCount: 2
Back
Fore
SplineSet
620 546 m 1
 656 468 l 1
 236 275 l 1
 656 82 l 1
 620 4 l 1
 90 247 l 1
 90 303 l 1
 620 546 l 1
1005 546 m 1
 1041 468 l 1
 621 275 l 1
 1041 82 l 1
 1005 4 l 1
 475 247 l 1
 475 303 l 1
 1005 546 l 1
1390 546 m 1
 1426 468 l 1
 1006 275 l 1
 1426 82 l 1
 1390 4 l 1
 860 247 l 1
 860 303 l 1
 1390 546 l 1
EndSplineSet
EndChar

StartChar: uni22D9
Encoding: 59 8921 59
Width: 1516
Flags: W
HStem: 526 20G<116.769 169.621 501.769 554.621 886.769 939.621>
LayerCount: 2
Back
Fore
SplineSet
896 4 m 1
 860 82 l 1
 1280 275 l 1
 860 468 l 1
 896 546 l 1
 1426 303 l 1
 1426 247 l 1
 896 4 l 1
511 4 m 1
 475 82 l 1
 895 275 l 1
 475 468 l 1
 511 546 l 1
 1041 303 l 1
 1041 247 l 1
 511 4 l 1
126 4 m 1
 90 82 l 1
 510 275 l 1
 90 468 l 1
 126 546 l 1
 656 303 l 1
 656 247 l 1
 126 4 l 1
EndSplineSet
EndChar

StartChar: uni22B2
Encoding: 60 8882 60
Width: 660
Flags: W
VStem: 484 86<130 420>
LayerCount: 2
Back
Fore
SplineSet
484 130 m 1
 484 420 l 1
 222 275 l 1
 484 130 l 1
529 8 m 1
 90 250 l 1
 90 300 l 1
 529 542 l 1
 570 517 l 1
 570 33 l 1
 529 8 l 1
EndSplineSet
EndChar

StartChar: uni22B3
Encoding: 61 8883 61
Width: 660
Flags: W
VStem: 90 86<130 420>
LayerCount: 2
Back
Fore
SplineSet
176 420 m 1
 176 130 l 1
 438 275 l 1
 176 420 l 1
131 542 m 1
 570 300 l 1
 570 250 l 1
 131 8 l 1
 90 33 l 1
 90 517 l 1
 131 542 l 1
EndSplineSet
EndChar

StartChar: uni22B4
Encoding: 62 8884 62
Width: 660
Flags: W
HStem: -13 86<90 570> 533 20G<488.676 567>
VStem: 484 86<241 437>
LayerCount: 2
Back
Fore
SplineSet
484 241 m 1
 484 437 l 1
 246 339 l 1
 484 241 l 1
537 126 m 1
 90 310 l 1
 90 368 l 1
 537 553 l 1
 570 531 l 1
 570 148 l 1
 537 126 l 1
90 -13 m 1
 90 73 l 1
 570 73 l 1
 570 -13 l 1
 90 -13 l 1
EndSplineSet
EndChar

StartChar: uni22B5
Encoding: 63 8885 63
Width: 660
Flags: W
HStem: -13 86<90 570> 533 20G<93 171.324>
VStem: 90 86<241 437>
LayerCount: 2
Back
Fore
SplineSet
176 437 m 1
 176 241 l 1
 414 339 l 1
 176 437 l 1
123 553 m 1
 570 368 l 1
 570 310 l 1
 123 126 l 1
 90 148 l 1
 90 531 l 1
 123 553 l 1
570 73 m 1
 570 -13 l 1
 90 -13 l 1
 90 73 l 1
 570 73 l 1
EndSplineSet
EndChar

StartChar: uni2AA6
Encoding: 64 10918 64
Width: 717
Flags: W
VStem: 533 87<159.612 390.388>
LayerCount: 2
Back
Fore
SplineSet
495 125 m 1
 521 171 533 223 533 275 c 0
 533 327 521 379 495 425 c 1
 222 275 l 1
 495 125 l 1
570 83 m 2
 529 8 l 1
 90 250 l 1
 90 300 l 1
 529 542 l 1
 570 467 l 2
 603 407 620 341 620 275 c 0
 620 209 603 143 570 83 c 2
EndSplineSet
EndChar

StartChar: uni2AA7
Encoding: 65 10919 65
Width: 717
Flags: W
VStem: 98 86<159.612 390.388>
LayerCount: 2
Back
Fore
SplineSet
222 425 m 1
 196 379 184 327 184 275 c 0
 184 223 196 171 222 125 c 1
 495 275 l 1
 222 425 l 1
167 504 m 1
 188 542 l 1
 627 300 l 1
 627 250 l 1
 188 8 l 1
 167 46 l 1
 147 83 l 2
 114 143 98 209 98 275 c 0
 98 341 114 407 147 467 c 2
 167 504 l 1
EndSplineSet
EndChar

StartChar: uni2AA8
Encoding: 66 10920 66
Width: 698
Flags: W
VStem: 502 86<271.859 469.488>
LayerCount: 2
Back
Fore
SplineSet
488 271 m 1
 497 304 502 337 502 371 c 0
 502 405 497 438 488 471 c 1
 246 371 l 1
 488 271 l 1
559 211 m 2
 557 207 556 202 554 198 c 1
 537 158 l 1
 90 342 l 1
 90 400 l 1
 537 585 l 1
 554 545 l 1
 557 538 560 532 562 525 c 2
 570 505 l 1
 569 504 l 1
 582 461 588 417 588 372 c 0
 588 327 581 282 568 238 c 1
 570 237 l 1
 559 211 l 2
570 45 m 1
 537 -35 l 1
 90 150 l 1
 123 229 l 1
 570 45 l 1
EndSplineSet
EndChar

StartChar: uni2AA9
Encoding: 67 10921 67
Width: 698
Flags: W
VStem: 110 86<272.686 469.488>
LayerCount: 2
Back
Fore
SplineSet
210 471 m 1
 201 438 196 405 196 371 c 0
 196 337 201 304 210 271 c 1
 453 371 l 1
 210 471 l 1
161 158 m 1
 128 237 l 1
 131 238 l 1
 118 281 110 327 110 372 c 0
 110 417 117 461 130 504 c 1
 128 505 l 1
 161 585 l 1
 608 400 l 1
 608 342 l 1
 161 158 l 1
161 -35 m 1
 128 45 l 1
 576 229 l 1
 608 150 l 1
 161 -35 l 1
EndSplineSet
EndChar

StartChar: uni228F
Encoding: 68 8847 68
Width: 660
Flags: W
HStem: -9 86<176 570> 473 86<176 570>
VStem: 90 86<77 473>
LayerCount: 2
Back
Fore
SplineSet
176 77 m 1
 570 77 l 1
 570 -9 l 1
 90 -9 l 1
 90 559 l 1
 570 559 l 1
 570 473 l 1
 176 473 l 1
 176 77 l 1
EndSplineSet
EndChar

StartChar: uni2290
Encoding: 69 8848 69
Width: 660
Flags: W
HStem: -9 86<90 484> 473 86<90 484>
VStem: 484 86<77 473>
LayerCount: 2
Back
Fore
SplineSet
484 77 m 1
 484 473 l 1
 90 473 l 1
 90 559 l 1
 570 559 l 1
 570 -9 l 1
 90 -9 l 1
 90 77 l 1
 484 77 l 1
EndSplineSet
EndChar

StartChar: uni2291
Encoding: 70 8849 70
Width: 660
Flags: W
HStem: -45 86<90 570> 148 86<176 570> 509 86<176 570>
VStem: 90 86<234 509>
LayerCount: 2
Back
Fore
SplineSet
176 234 m 1
 570 234 l 1
 570 148 l 1
 90 148 l 1
 90 595 l 1
 570 595 l 1
 570 509 l 1
 176 509 l 1
 176 234 l 1
90 -45 m 1
 90 41 l 1
 570 41 l 1
 570 -45 l 1
 90 -45 l 1
EndSplineSet
EndChar

StartChar: uni2292
Encoding: 71 8850 71
Width: 660
Flags: W
HStem: -45 86<90 570> 148 86<90 484> 509 86<90 484>
VStem: 484 86<234 509>
LayerCount: 2
Back
Fore
SplineSet
484 234 m 1
 484 509 l 1
 90 509 l 1
 90 595 l 1
 570 595 l 1
 570 148 l 1
 90 148 l 1
 90 234 l 1
 484 234 l 1
570 41 m 1
 570 -45 l 1
 90 -45 l 1
 90 41 l 1
 570 41 l 1
EndSplineSet
EndChar

StartChar: sym021
Encoding: 72 -1 72
Width: 660
Flags: W
HStem: -141 86<90 570> 52 86<90 570> 244 86<176 570> 605 86<176 570>
VStem: 90 86<330 605>
LayerCount: 2
Back
Fore
SplineSet
176 330 m 1
 570 330 l 1
 570 244 l 1
 90 244 l 1
 90 691 l 1
 570 691 l 1
 570 605 l 1
 176 605 l 1
 176 330 l 1
90 52 m 1
 90 138 l 1
 570 138 l 1
 570 52 l 1
 90 52 l 1
90 -141 m 1
 90 -55 l 1
 570 -55 l 1
 570 -141 l 1
 90 -141 l 1
EndSplineSet
EndChar

StartChar: sym022
Encoding: 73 -1 73
Width: 660
Flags: W
HStem: -141 86<90 570> 52 86<90 570> 244 86<90 484> 605 86<90 484>
VStem: 484 86<330 605>
LayerCount: 2
Back
Fore
SplineSet
484 330 m 1
 484 605 l 1
 90 605 l 1
 90 691 l 1
 570 691 l 1
 570 244 l 1
 90 244 l 1
 90 330 l 1
 484 330 l 1
570 138 m 1
 570 52 l 1
 90 52 l 1
 90 138 l 1
 570 138 l 1
570 -55 m 1
 570 -141 l 1
 90 -141 l 1
 90 -55 l 1
 570 -55 l 1
EndSplineSet
EndChar

StartChar: sym023
Encoding: 74 -1 74
Width: 660
Flags: W
HStem: -9 86<176 570> 136 86<320 570> 328 86<320 570> 473 86<176 570>
VStem: 90 86<77 473> 234 86<222 328>
LayerCount: 2
Back
Fore
SplineSet
176 77 m 1
 570 77 l 1
 570 -9 l 1
 90 -9 l 1
 90 559 l 1
 570 559 l 1
 570 473 l 1
 176 473 l 1
 176 77 l 1
320 222 m 1
 570 222 l 1
 570 136 l 1
 234 136 l 1
 234 414 l 1
 570 414 l 1
 570 328 l 1
 320 328 l 1
 320 222 l 1
EndSplineSet
EndChar

StartChar: sym024
Encoding: 75 -1 75
Width: 660
Flags: W
HStem: -9 86<90 484> 136 86<90 340> 328 86<90 340> 473 86<90 484>
VStem: 340 86<222 328> 484 86<77 473>
LayerCount: 2
Back
Fore
SplineSet
484 77 m 1
 484 473 l 1
 90 473 l 1
 90 559 l 1
 570 559 l 1
 570 -9 l 1
 90 -9 l 1
 90 77 l 1
 484 77 l 1
340 222 m 1
 340 328 l 1
 90 328 l 1
 90 414 l 1
 426 414 l 1
 426 136 l 1
 90 136 l 1
 90 222 l 1
 340 222 l 1
EndSplineSet
EndChar

StartChar: propersubset
Encoding: 76 8834 76
Width: 660
Flags: W
HStem: -9 86<259.465 570> 473 86<259.465 570>
VStem: 90 86<172.816 377.184>
LayerCount: 2
Back
Fore
SplineSet
570 473 m 1
 328 473 l 2
 234 473 176 377 176 275 c 0
 176 173 234 77 328 77 c 2
 570 77 l 1
 570 -9 l 1
 328 -9 l 2
 187 -9 90 126 90 275 c 0
 90 424 187 559 328 559 c 2
 570 559 l 1
 570 473 l 1
EndSplineSet
EndChar

StartChar: propersuperset
Encoding: 77 8835 77
Width: 660
Flags: W
HStem: -9 86<90 400.535> 473 86<90 400.535>
VStem: 484 86<172.816 377.184>
LayerCount: 2
Back
Fore
SplineSet
90 77 m 1
 332 77 l 2
 426 77 484 173 484 275 c 0
 484 377 426 473 332 473 c 2
 90 473 l 1
 90 559 l 1
 332 559 l 2
 473 559 570 424 570 275 c 0
 570 126 473 -9 332 -9 c 2
 90 -9 l 1
 90 77 l 1
EndSplineSet
EndChar

StartChar: reflexsubset
Encoding: 78 8838 78
Width: 660
Flags: W
HStem: -45 86<90 570> 148 86<224.919 570> 509 86<224.919 570>
VStem: 90 86<286.502 456.198>
LayerCount: 2
Back
Fore
SplineSet
570 509 m 1
 279 509 l 2
 215 509 176 442 176 371 c 0
 176 301 215 234 279 234 c 2
 570 234 l 1
 570 148 l 1
 279 148 l 2
 168 148 90 254 90 371 c 0
 90 489 168 595 279 595 c 2
 570 595 l 1
 570 509 l 1
90 -45 m 1
 90 41 l 1
 570 41 l 1
 570 -45 l 1
 90 -45 l 1
EndSplineSet
EndChar

StartChar: reflexsuperset
Encoding: 79 8839 79
Width: 660
Flags: W
HStem: -45 86<90 570> 148 86<90 435.081> 509 86<90 435.081>
VStem: 484 86<286.502 456.198>
LayerCount: 2
Back
Fore
SplineSet
90 234 m 1
 381 234 l 2
 445 234 484 301 484 371 c 0
 484 442 445 509 381 509 c 2
 90 509 l 1
 90 595 l 1
 381 595 l 2
 492 595 570 489 570 371 c 0
 570 254 492 148 381 148 c 2
 90 148 l 1
 90 234 l 1
570 41 m 1
 570 -45 l 1
 90 -45 l 1
 90 41 l 1
 570 41 l 1
EndSplineSet
EndChar

StartChar: uni2AC5
Encoding: 80 10949 80
Width: 660
Flags: W
HStem: -141 86<90 570> 52 86<90 570> 244 86<224.919 570> 605 86<224.919 570>
VStem: 90 86<382.502 552.198>
LayerCount: 2
Back
Fore
SplineSet
570 605 m 1
 279 605 l 2
 215 605 176 538 176 467 c 0
 176 397 215 330 279 330 c 2
 570 330 l 1
 570 244 l 1
 279 244 l 2
 168 244 90 350 90 467 c 0
 90 585 168 691 279 691 c 2
 570 691 l 1
 570 605 l 1
90 52 m 1
 90 138 l 1
 570 138 l 1
 570 52 l 1
 90 52 l 1
90 -141 m 1
 90 -55 l 1
 570 -55 l 1
 570 -141 l 1
 90 -141 l 1
EndSplineSet
EndChar

StartChar: uni2AC6
Encoding: 81 10950 81
Width: 660
Flags: W
HStem: -141 86<90 570> 52 86<90 570> 244 86<90 435.081> 605 86<90 435.081>
VStem: 484 86<382.502 552.198>
LayerCount: 2
Back
Fore
SplineSet
90 330 m 1
 381 330 l 2
 445 330 484 397 484 467 c 0
 484 538 445 605 381 605 c 2
 90 605 l 1
 90 691 l 1
 381 691 l 2
 492 691 570 585 570 467 c 0
 570 350 492 244 381 244 c 2
 90 244 l 1
 90 330 l 1
570 138 m 1
 570 52 l 1
 90 52 l 1
 90 138 l 1
 570 138 l 1
570 -55 m 1
 570 -141 l 1
 90 -141 l 1
 90 -55 l 1
 570 -55 l 1
EndSplineSet
EndChar

StartChar: uni22D0
Encoding: 82 8912 82
Width: 660
Flags: W
HStem: -9 86<259.465 570> 136 86<327.119 570> 328 86<327.119 570> 473 86<259.465 570>
VStem: 90 86<172.816 377.184> 234 86<224.918 325.082>
LayerCount: 2
Back
Fore
SplineSet
570 473 m 1
 328 473 l 2
 234 473 176 377 176 275 c 0
 176 173 234 77 328 77 c 2
 570 77 l 1
 570 -9 l 1
 328 -9 l 2
 187 -9 90 126 90 275 c 0
 90 424 187 559 328 559 c 2
 570 559 l 1
 570 473 l 1
570 328 m 1
 352 328 l 2
 329 328 320 301 320 275 c 0
 320 249 329 222 352 222 c 2
 570 222 l 1
 570 136 l 1
 352 136 l 2
 283 136 234 202 234 275 c 0
 234 348 283 414 352 414 c 2
 570 414 l 1
 570 328 l 1
EndSplineSet
EndChar

StartChar: uni22D1
Encoding: 83 8913 83
Width: 660
Flags: W
HStem: -9 86<90 400.535> 136 86<90 332.881> 328 86<90 332.881> 473 86<90 400.535>
VStem: 340 86<224.918 325.082> 484 86<172.816 377.184>
LayerCount: 2
Back
Fore
SplineSet
90 77 m 1
 332 77 l 2
 426 77 484 173 484 275 c 0
 484 377 426 473 332 473 c 2
 90 473 l 1
 90 559 l 1
 332 559 l 2
 473 559 570 424 570 275 c 0
 570 126 473 -9 332 -9 c 2
 90 -9 l 1
 90 77 l 1
90 222 m 1
 308 222 l 2
 331 222 340 249 340 275 c 0
 340 301 331 328 308 328 c 2
 90 328 l 1
 90 414 l 1
 308 414 l 2
 377 414 426 348 426 275 c 0
 426 202 377 136 308 136 c 2
 90 136 l 1
 90 222 l 1
EndSplineSet
EndChar

StartChar: uni227A
Encoding: 84 8826 84
Width: 660
Flags: W
HStem: 232 86<90 240.938> 525 20G<455 528.356>
LayerCount: 2
Back
Fore
SplineSet
310 275 m 1
 407 227 493 147 570 64 c 1
 507 5 l 1
 403 117 285 232 133 232 c 2
 90 232 l 1
 90 318 l 1
 133 318 l 2
 285 318 403 433 507 545 c 1
 570 486 l 1
 493 403 407 323 310 275 c 1
EndSplineSet
EndChar

StartChar: uni227B
Encoding: 85 8827 85
Width: 660
Flags: W
HStem: 232 86<419.062 570> 525 20G<131.644 205>
LayerCount: 2
Back
Fore
SplineSet
350 275 m 1
 253 323 167 403 90 486 c 1
 153 545 l 1
 257 433 375 318 527 318 c 2
 570 318 l 1
 570 232 l 1
 527 232 l 2
 375 232 257 117 153 5 c 1
 90 64 l 1
 167 147 253 227 350 275 c 1
EndSplineSet
EndChar

StartChar: uni2AAF
Encoding: 86 10927 86
Width: 660
Flags: W
HStem: -13 86<90 570> 296 86<90 275.697> 529 20G<458.5 528.356>
LayerCount: 2
Back
Fore
SplineSet
352 339 m 1
 434 306 509 254 570 188 c 1
 507 129 l 1
 410 234 275 296 133 296 c 2
 90 296 l 1
 90 382 l 1
 133 382 l 2
 275 382 410 445 507 549 c 1
 570 490 l 1
 509 424 434 372 352 339 c 1
90 -13 m 1
 90 73 l 1
 570 73 l 1
 570 -13 l 1
 90 -13 l 1
EndSplineSet
EndChar

StartChar: uni2AB0
Encoding: 87 10928 87
Width: 660
Flags: W
HStem: -13 86<90 570> 296 86<384.303 570> 529 20G<131.644 201.5>
LayerCount: 2
Back
Fore
SplineSet
308 339 m 1
 226 372 151 424 90 490 c 1
 153 549 l 1
 250 445 385 382 527 382 c 2
 570 382 l 1
 570 296 l 1
 527 296 l 2
 385 296 250 234 153 129 c 1
 90 188 l 1
 151 254 226 306 308 339 c 1
570 73 m 1
 570 -13 l 1
 90 -13 l 1
 90 73 l 1
 570 73 l 1
EndSplineSet
EndChar

StartChar: uni227C
Encoding: 88 8828 88
Width: 660
Flags: W
HStem: 136 86<90 276.281> 328 86<90 275.697>
LayerCount: 2
Back
Fore
SplineSet
352 371 m 1
 434 338 509 286 570 220 c 1
 507 161 l 1
 410 266 275 328 133 328 c 2
 90 328 l 1
 90 414 l 1
 133 414 l 2
 275 414 410 477 507 581 c 1
 570 522 l 1
 509 456 434 404 352 371 c 1
90 136 m 1
 90 222 l 1
 176 222 l 2
 317 222 427 131 528 28 c 1
 466 -29 l 1
 383 58 294 136 176 136 c 2
 90 136 l 1
EndSplineSet
EndChar

StartChar: uni227D
Encoding: 89 8829 89
Width: 660
Flags: W
HStem: 136 86<383.719 570> 328 86<384.303 570>
LayerCount: 2
Back
Fore
SplineSet
308 371 m 1
 226 404 151 456 90 522 c 1
 153 581 l 1
 250 477 385 414 527 414 c 2
 570 414 l 1
 570 328 l 1
 527 328 l 2
 385 328 250 266 153 161 c 1
 90 220 l 1
 151 286 226 338 308 371 c 1
570 136 m 1
 484 136 l 2
 366 136 277 58 194 -29 c 1
 132 28 l 1
 233 131 343 222 484 222 c 2
 570 222 l 1
 570 136 l 1
EndSplineSet
EndChar

StartChar: uni2AB3
Encoding: 90 10931 90
Width: 660
Flags: W
HStem: -109 86<90 570> 84 86<90 570> 392 86<90 275.697>
LayerCount: 2
Back
Fore
SplineSet
351 435 m 1
 433 402 509 350 570 284 c 1
 507 226 l 1
 410 330 275 392 133 392 c 2
 90 392 l 1
 90 478 l 1
 133 478 l 2
 275 478 410 541 507 645 c 1
 570 587 l 1
 509 521 433 469 351 435 c 1
90 84 m 1
 90 170 l 1
 570 170 l 1
 570 84 l 1
 90 84 l 1
90 -109 m 1
 90 -23 l 1
 570 -23 l 1
 570 -109 l 1
 90 -109 l 1
EndSplineSet
EndChar

StartChar: uni2AB4
Encoding: 91 10932 91
Width: 660
Flags: W
HStem: -109 86<90 570> 84 86<90 570> 392 86<384.303 570>
LayerCount: 2
Back
Fore
SplineSet
309 435 m 1
 227 469 151 521 90 587 c 1
 153 645 l 1
 250 541 385 478 527 478 c 2
 570 478 l 1
 570 392 l 1
 527 392 l 2
 385 392 250 330 153 226 c 1
 90 284 l 1
 151 350 227 402 309 435 c 1
570 170 m 1
 570 84 l 1
 90 84 l 1
 90 170 l 1
 570 170 l 1
570 -23 m 1
 570 -109 l 1
 90 -109 l 1
 90 -23 l 1
 570 -23 l 1
EndSplineSet
EndChar

StartChar: uni227E
Encoding: 92 8830 92
Width: 660
Flags: W
HStem: -45 86<379.423 484.613> -4 21G<120.6 153.5> 52 86<175.609 280.577> 328 86<90 275.697>
LayerCount: 2
Back
Fore
SplineSet
352 371 m 1x30
 434 338 509 286 570 220 c 1
 507 161 l 1
 410 266 275 328 133 328 c 2
 90 328 l 1
 90 414 l 1
 133 414 l 2
 275 414 410 477 507 581 c 1
 570 522 l 1
 509 456 434 404 352 371 c 1x30
141 -4 m 1x70
 90 46 l 1
 130 87 168 138 224 138 c 0
 274 138 319 112 358 79 c 0
 381 60 406 41 436 41 c 0
 471 41 494 72 519 97 c 1
 570 46 l 1
 530 6 493 -45 436 -45 c 0xb0
 386 -45 341 -19 302 14 c 0
 279 33 254 52 224 52 c 0
 189 52 166 21 141 -4 c 1x70
EndSplineSet
EndChar

StartChar: uni227F
Encoding: 93 8831 93
Width: 660
Flags: W
HStem: -45 86<379.423 484.613> -4 21G<120.6 153.5> 52 86<175.609 280.577> 328 86<384.303 570>
LayerCount: 2
Back
Fore
SplineSet
308 371 m 1x30
 226 404 151 456 90 522 c 1
 153 581 l 1
 250 477 385 414 527 414 c 2
 570 414 l 1
 570 328 l 1
 527 328 l 2
 385 328 250 266 153 161 c 1
 90 220 l 1
 151 286 226 338 308 371 c 1x30
141 -4 m 1x70
 90 46 l 1
 130 87 168 138 224 138 c 0
 274 138 319 112 358 79 c 0
 381 60 406 41 436 41 c 0
 471 41 494 72 519 97 c 1
 570 46 l 1
 530 6 493 -45 436 -45 c 0xb0
 386 -45 341 -19 302 14 c 0
 279 33 254 52 224 52 c 0
 189 52 166 21 141 -4 c 1x70
EndSplineSet
EndChar

StartChar: uni2AB7
Encoding: 94 10935 94
Width: 660
Flags: W
HStem: -141 86<379.423 484.613> -45 86<175.609 281.149> -19 20G<506.5 539> 52 86<378.851 484.613> 148 86<175.609 280.577> 424 86<90 275.697>
LayerCount: 2
Back
Fore
SplineSet
351 467 m 1x9c
 433 434 509 382 570 316 c 1
 507 258 l 1
 410 362 275 424 133 424 c 2
 90 424 l 1
 90 510 l 1
 133 510 l 2
 275 510 410 573 507 677 c 1
 570 619 l 1
 509 553 433 501 351 467 c 1x9c
141 92 m 1
 90 143 l 1
 130 183 168 234 224 234 c 0
 274 234 319 208 358 176 c 0
 381 156 406 138 436 138 c 0
 471 138 494 168 519 193 c 1
 570 143 l 1
 530 102 493 52 436 52 c 0
 386 52 341 78 302 110 c 0
 279 129 254 148 224 148 c 0
 189 148 166 117 141 92 c 1
141 -100 m 1
 90 -50 l 1
 130 -10 168 41 224 41 c 0xdc
 274 41 319 15 358 -17 c 0
 381 -36 406 -55 436 -55 c 0
 471 -55 494 -24 519 1 c 1xbc
 570 -50 l 1
 530 -90 493 -141 436 -141 c 0
 386 -141 341 -115 302 -83 c 0
 279 -63 254 -45 224 -45 c 0xdc
 189 -45 166 -76 141 -100 c 1
EndSplineSet
EndChar

StartChar: uni2AB8
Encoding: 95 10936 95
Width: 660
Flags: W
HStem: -141 86<379.423 484.613> -45 86<175.609 281.149> -19 20G<506.5 539> 52 86<378.851 484.613> 148 86<175.609 280.577> 424 86<384.303 570>
LayerCount: 2
Back
Fore
SplineSet
309 467 m 1x9c
 227 501 151 553 90 619 c 1
 153 677 l 1
 250 573 385 510 527 510 c 2
 570 510 l 1
 570 424 l 1
 527 424 l 2
 385 424 250 362 153 258 c 1
 90 316 l 1
 151 382 227 434 309 467 c 1x9c
141 92 m 1
 90 143 l 1
 130 183 168 234 224 234 c 0
 274 234 319 208 358 176 c 0
 381 156 406 138 436 138 c 0
 471 138 494 168 519 193 c 1
 570 143 l 1
 530 102 493 52 436 52 c 0
 386 52 341 78 302 110 c 0
 279 129 254 148 224 148 c 0
 189 148 166 117 141 92 c 1
141 -100 m 1
 90 -50 l 1
 130 -10 168 41 224 41 c 0xdc
 274 41 319 15 358 -17 c 0
 381 -36 406 -55 436 -55 c 0
 471 -55 494 -24 519 1 c 1xbc
 570 -50 l 1
 530 -90 493 -141 436 -141 c 0
 386 -141 341 -115 302 -83 c 0
 279 -63 254 -45 224 -45 c 0xdc
 189 -45 166 -76 141 -100 c 1
EndSplineSet
EndChar

StartChar: uni22D6
Encoding: 96 8918 96
Width: 660
Flags: W
HStem: 204 142<464.51 534.496>
VStem: 429 141<239.512 310.488>
LayerCount: 2
Back
Fore
SplineSet
529 542 m 1
 570 467 l 1
 222 275 l 1
 570 83 l 1
 529 8 l 1
 90 250 l 1
 90 300 l 1
 529 542 l 1
570 275 m 0
 570 261 554 245 542 233 c 0
 529 220 514 204 500 204 c 0
 485 204 470 220 457 233 c 0
 445 245 429 261 429 275 c 0
 429 289 445 305 457 317 c 0
 470 330 485 346 500 346 c 0
 514 346 529 330 542 317 c 0
 554 305 570 289 570 275 c 0
EndSplineSet
EndChar

StartChar: uni22D7
Encoding: 97 8919 97
Width: 660
Flags: W
HStem: 204 142<125.51 195.496>
VStem: 90 141<239.512 310.488>
LayerCount: 2
Back
Fore
SplineSet
131 8 m 1
 90 83 l 1
 438 275 l 1
 90 467 l 1
 131 542 l 1
 570 300 l 1
 570 250 l 1
 131 8 l 1
231 275 m 0
 231 261 215 245 203 233 c 0
 190 220 175 204 161 204 c 0
 146 204 131 220 118 233 c 0
 106 245 90 261 90 275 c 0
 90 289 106 305 118 317 c 0
 131 330 146 346 161 346 c 0
 175 346 190 330 203 317 c 0
 215 305 231 289 231 275 c 0
EndSplineSet
EndChar

StartChar: sym025
Encoding: 98 -1 98
Width: 660
Flags: W
HStem: -13 86<90 570> 269 141<464.51 534.496> 533 20G<488.676 545.25>
VStem: 429 141<303.512 374.488>
LayerCount: 2
Back
Fore
SplineSet
537 553 m 1
 570 473 l 1
 246 339 l 1
 570 205 l 1
 537 126 l 1
 90 310 l 1
 90 368 l 1
 537 553 l 1
570 339 m 0
 570 325 554 309 542 297 c 0
 529 284 514 269 500 269 c 0
 485 269 470 284 457 297 c 0
 445 309 429 325 429 339 c 0
 429 353 445 369 457 381 c 0
 470 394 485 410 500 410 c 0
 514 410 529 394 542 381 c 0
 554 369 570 353 570 339 c 0
90 -13 m 1
 90 73 l 1
 570 73 l 1
 570 -13 l 1
 90 -13 l 1
EndSplineSet
EndChar

StartChar: sym026
Encoding: 99 -1 99
Width: 660
Flags: W
HStem: -13 86<90 570> 269 141<125.51 195.496> 533 20G<114.75 171.324>
VStem: 90 141<303.512 374.488>
LayerCount: 2
Back
Fore
SplineSet
123 126 m 1
 90 205 l 1
 414 339 l 1
 90 473 l 1
 123 553 l 1
 570 368 l 1
 570 310 l 1
 123 126 l 1
231 339 m 0
 231 325 215 309 203 297 c 0
 190 284 175 269 161 269 c 0
 146 269 131 284 118 297 c 0
 106 309 90 325 90 339 c 0
 90 353 106 369 118 381 c 0
 131 394 146 410 161 410 c 0
 175 410 190 394 203 381 c 0
 215 369 231 353 231 339 c 0
570 73 m 1
 570 -13 l 1
 90 -13 l 1
 90 73 l 1
 570 73 l 1
EndSplineSet
EndChar

StartChar: uni2A7F
Encoding: 100 10879 100
Width: 660
Flags: W
HStem: 301 141<463.87 535.135>
VStem: 429 141<335.865 407.056>
LayerCount: 2
Back
Fore
SplineSet
537 585 m 1
 570 505 l 1
 246 371 l 1
 570 237 l 1
 537 158 l 1
 90 342 l 1
 90 400 l 1
 537 585 l 1
570 371 m 0
 570 357 554 342 542 329 c 0
 529 316 514 301 500 301 c 0
 485 301 470 316 457 329 c 0
 445 342 429 357 429 371 c 0
 429 385 445 401 457 414 c 0
 470 426 485 442 500 442 c 0
 514 442 529 426 542 414 c 0
 554 401 570 385 570 371 c 0
570 45 m 1
 537 -35 l 1
 90 150 l 1
 123 229 l 1
 570 45 l 1
EndSplineSet
EndChar

StartChar: uni2A80
Encoding: 101 10880 101
Width: 660
Flags: W
HStem: 301 141<124.87 196.135>
VStem: 90 141<335.865 407.056>
LayerCount: 2
Back
Fore
SplineSet
123 158 m 1
 90 237 l 1
 414 371 l 1
 90 505 l 1
 123 585 l 1
 570 400 l 1
 570 342 l 1
 123 158 l 1
231 371 m 0
 231 357 215 342 203 329 c 0
 190 316 175 301 161 301 c 0
 146 301 131 316 118 329 c 0
 106 342 90 357 90 371 c 0
 90 385 106 401 118 414 c 0
 131 426 146 442 161 442 c 0
 175 442 190 426 203 414 c 0
 215 401 231 385 231 371 c 0
123 -35 m 1
 90 45 l 1
 537 229 l 1
 570 150 l 1
 123 -35 l 1
EndSplineSet
EndChar

StartChar: uni2A95
Encoding: 102 10901 102
Width: 660
Flags: W
LayerCount: 2
Back
Fore
SplineSet
537 392 m 1
 570 313 l 1
 246 179 l 1
 570 45 l 1
 537 -35 l 1
 90 150 l 1
 90 208 l 1
 537 392 l 1
537 585 m 1
 570 505 l 1
 123 321 l 1
 90 400 l 1
 537 585 l 1
EndSplineSet
EndChar

StartChar: uni2A96
Encoding: 103 10902 103
Width: 660
Flags: W
LayerCount: 2
Back
Fore
SplineSet
123 -35 m 1
 90 45 l 1
 414 179 l 1
 90 313 l 1
 123 392 l 1
 570 208 l 1
 570 150 l 1
 123 -35 l 1
90 505 m 1
 123 585 l 1
 570 400 l 1
 537 321 l 1
 90 505 l 1
EndSplineSet
EndChar

StartChar: uni22DE
Encoding: 104 8926 104
Width: 660
Flags: W
HStem: 136 86<90 275.697> 328 86<90 276.281>
LayerCount: 2
Back
Fore
SplineSet
352 179 m 1
 434 146 509 94 570 28 c 1
 507 -31 l 1
 410 73 275 136 133 136 c 2
 90 136 l 1
 90 222 l 1
 133 222 l 2
 275 222 410 284 507 389 c 1
 570 330 l 1
 509 264 434 212 352 179 c 1
90 414 m 1
 176 414 l 2
 294 414 383 492 466 579 c 1
 528 522 l 1
 427 419 317 328 176 328 c 2
 90 328 l 1
 90 414 l 1
EndSplineSet
EndChar

StartChar: uni22DF
Encoding: 105 8927 105
Width: 660
Flags: W
HStem: 136 86<384.303 570> 328 86<383.719 570>
LayerCount: 2
Back
Fore
SplineSet
308 179 m 1
 226 212 151 264 90 330 c 1
 153 389 l 1
 250 284 385 222 527 222 c 2
 570 222 l 1
 570 136 l 1
 527 136 l 2
 385 136 250 73 153 -31 c 1
 90 28 l 1
 151 94 226 146 308 179 c 1
570 414 m 1
 570 328 l 1
 484 328 l 2
 343 328 233 419 132 522 c 1
 194 579 l 1
 277 492 366 414 484 414 c 2
 570 414 l 1
EndSplineSet
EndChar

StartChar: notequal
Encoding: 106 8800 106
Width: 660
Flags: W
HStem: 136 86<90 253 356 570> 328 86<90 304 407 570>
LayerCount: 2
Back
Fore
SplineSet
380 611 m 1
 455 591 l 1
 407 414 l 1
 570 414 l 1
 570 328 l 1
 384 328 l 1
 356 222 l 1
 570 222 l 1
 570 136 l 1
 333 136 l 1
 280 -61 l 1
 205 -41 l 1
 253 136 l 1
 90 136 l 1
 90 222 l 1
 276 222 l 1
 304 328 l 1
 90 328 l 1
 90 414 l 1
 327 414 l 1
 380 611 l 1
EndSplineSet
EndChar

StartChar: uni2262
Encoding: 107 8802 107
Width: 660
Flags: W
HStem: 40 86<90 227 330 570> 232 86<90 278 382 570> 424 86<90 330 433 570>
CounterMasks: 1 e0
LayerCount: 2
Back
Fore
SplineSet
393 659 m 1
 468 639 l 1
 433 510 l 1
 570 510 l 1
 570 424 l 1
 410 424 l 1
 382 318 l 1
 570 318 l 1
 570 232 l 1
 359 232 l 1
 330 126 l 1
 570 126 l 1
 570 40 l 1
 307 40 l 1
 267 -109 l 1
 192 -89 l 1
 227 40 l 1
 90 40 l 1
 90 126 l 1
 250 126 l 1
 278 232 l 1
 90 232 l 1
 90 318 l 1
 301 318 l 1
 330 424 l 1
 90 424 l 1
 90 510 l 1
 353 510 l 1
 393 659 l 1
EndSplineSet
EndChar

StartChar: uni2241
Encoding: 108 8769 108
Width: 660
Flags: W
HStem: 184 86<378.319 484.613> 280 86<175.609 281.681>
LayerCount: 2
Back
Fore
SplineSet
367 563 m 1
 442 543 l 1
 375 294 l 1
 393 281 413 270 436 270 c 0
 471 270 494 301 519 326 c 1
 570 275 l 1
 530 235 493 184 436 184 c 0
 406 184 378 193 352 207 c 1
 293 -13 l 1
 218 7 l 1
 285 256 l 1
 267 269 247 280 224 280 c 0
 189 280 166 249 141 224 c 1
 90 275 l 1
 130 315 168 366 224 366 c 0
 254 366 282 357 308 343 c 1
 367 563 l 1
EndSplineSet
EndChar

StartChar: uni223D0338
Encoding: 109 -1 109
Width: 660
Flags: W
HStem: 184 86<175.609 266.51> 280 86<393.49 484.613>
LayerCount: 2
Back
Fore
SplineSet
367 563 m 1
 442 543 l 1
 393 360 l 1
 407 364 421 366 436 366 c 0
 493 366 530 315 570 275 c 1
 519 224 l 1
 494 249 471 280 436 280 c 0
 408 280 384 264 362 246 c 1
 293 -13 l 1
 218 7 l 1
 267 190 l 1
 253 186 239 184 224 184 c 0
 168 184 130 235 90 275 c 1
 141 326 l 1
 166 301 189 270 224 270 c 0
 252 270 276 286 298 304 c 1
 367 563 l 1
EndSplineSet
EndChar

StartChar: uni2249
Encoding: 110 8777 110
Width: 660
Flags: W
HStem: 88 86<378.864 484.613> 184 86<175.609 262.662> 280 86<397.338 484.613> 376 86<175.609 281.136>
LayerCount: 2
Back
Fore
SplineSet
306 335 m 1
 281 355 257 376 224 376 c 0
 189 376 166 346 141 321 c 1
 90 371 l 1
 130 411 168 462 224 462 c 0
 262 462 298 447 330 425 c 1
 380 611 l 1
 455 591 l 1
 397 376 l 1
 409 370 422 366 436 366 c 0
 471 366 494 397 519 422 c 1
 570 371 l 1
 530 331 493 280 436 280 c 0
 415 280 394 285 375 293 c 1
 354 215 l 1
 379 195 403 174 436 174 c 0
 471 174 494 204 519 229 c 1
 570 179 l 1
 530 139 493 88 436 88 c 0
 398 88 362 103 330 125 c 1
 280 -61 l 1
 205 -41 l 1
 263 174 l 1
 251 180 238 184 224 184 c 0
 189 184 166 153 141 128 c 1
 90 179 l 1
 130 219 168 270 224 270 c 0
 245 270 266 265 285 257 c 1
 306 335 l 1
EndSplineSet
EndChar

StartChar: uni224B0338
Encoding: 111 58044 111
Width: 660
Flags: W
HStem: -9 86<379.176 484.613> 88 86<175.609 239> 184 86<378.319 484.613> 280 86<175.609 281.681> 376 86<421 484.613> 473 86<175.609 280.824>
LayerCount: 2
Back
Fore
SplineSet
327 415 m 1
 298 436 266 473 224 473 c 0
 189 473 166 442 141 417 c 1
 90 467 l 1
 130 508 168 559 224 559 c 0
 271 559 314 535 352 505 c 1
 393 659 l 1
 468 639 l 1
 421 464 l 1
 426 463 431 462 436 462 c 0
 471 462 494 493 519 518 c 1
 570 467 l 1
 530 427 493 376 436 376 c 0
 423 376 411 378 399 381 c 1
 375 294 l 1
 393 281 413 270 436 270 c 0
 471 270 494 301 519 326 c 1
 570 275 l 1
 530 235 493 184 436 184 c 0
 406 184 378 194 352 208 c 1
 333 135 l 1
 362 114 394 77 436 77 c 0
 471 77 494 108 519 133 c 1
 570 83 l 1
 530 42 493 -9 436 -9 c 0
 389 -9 346 15 308 45 c 1
 267 -109 l 1
 192 -89 l 1
 239 86 l 1
 234 87 229 88 224 88 c 0
 189 88 166 57 141 32 c 1
 90 83 l 1
 130 123 168 174 224 174 c 0
 237 174 249 172 261 169 c 1
 285 256 l 1
 267 269 247 280 224 280 c 0
 189 280 166 249 141 224 c 1
 90 275 l 1
 130 315 168 366 224 366 c 0
 254 366 282 356 308 342 c 1
 327 415 l 1
EndSplineSet
EndChar

StartChar: uni2244
Encoding: 112 8772 112
Width: 660
Flags: W
HStem: 136 86<90 253 356 570> 280 86<397.338 484.613> 376 86<175.609 281.136>
LayerCount: 2
Back
Fore
SplineSet
306 335 m 1
 281 355 257 376 224 376 c 0
 189 376 166 346 141 321 c 1
 90 371 l 1
 130 411 168 462 224 462 c 0
 262 462 298 447 330 425 c 1
 380 611 l 1
 455 591 l 1
 397 376 l 1
 409 370 422 366 436 366 c 0
 471 366 494 397 519 422 c 1
 570 371 l 1
 530 331 493 280 436 280 c 0
 415 280 394 285 375 293 c 1
 356 222 l 1
 570 222 l 1
 570 136 l 1
 333 136 l 1
 280 -61 l 1
 205 -41 l 1
 253 136 l 1
 90 136 l 1
 90 222 l 1
 276 222 l 1
 306 335 l 1
EndSplineSet
EndChar

StartChar: uni22CD0338
Encoding: 113 -1 113
Width: 660
Flags: W
HStem: 136 86<90 253 356 570> 280 86<175.609 280.309> 376 86<420.225 484.613>
LayerCount: 2
Back
Fore
SplineSet
380 611 m 1
 455 591 l 1
 420 461 l 1
 425 462 431 462 436 462 c 0
 493 462 530 411 570 371 c 1
 519 321 l 1
 494 346 471 376 436 376 c 0
 421 376 407 371 394 364 c 1
 356 222 l 1
 570 222 l 1
 570 136 l 1
 333 136 l 1
 280 -61 l 1
 205 -41 l 1
 253 136 l 1
 90 136 l 1
 90 222 l 1
 276 222 l 1
 296 297 l 1
 273 286 249 280 224 280 c 0
 168 280 130 331 90 371 c 1
 141 422 l 1
 166 397 189 366 224 366 c 0
 266 366 300 405 330 425 c 1
 380 611 l 1
EndSplineSet
EndChar

StartChar: uni22420338
Encoding: 114 59470 114
Width: 660
Flags: W
HStem: 88 86<378.864 484.613> 184 86<175.609 262.662> 328 86<90 304 407 570>
LayerCount: 2
Back
Fore
SplineSet
354 215 m 1
 379 195 403 174 436 174 c 0
 471 174 494 204 519 229 c 1
 570 179 l 1
 530 139 493 88 436 88 c 0
 398 88 362 103 330 125 c 1
 280 -61 l 1
 205 -41 l 1
 263 174 l 1
 251 180 238 184 224 184 c 0
 189 184 166 153 141 128 c 1
 90 179 l 1
 130 219 168 270 224 270 c 0
 245 270 266 265 285 257 c 1
 304 328 l 1
 90 328 l 1
 90 414 l 1
 327 414 l 1
 380 611 l 1
 455 591 l 1
 407 414 l 1
 570 414 l 1
 570 328 l 1
 384 328 l 1
 354 215 l 1
EndSplineSet
EndChar

StartChar: uni2247
Encoding: 115 8775 115
Width: 660
Flags: W
HStem: 40 86<90 227 330 570> 232 86<90 278 382 570> 376 86<421 484.613> 473 86<175.609 280.824>
LayerCount: 2
Back
Fore
SplineSet
327 415 m 1
 298 436 266 473 224 473 c 0
 189 473 166 442 141 417 c 1
 90 467 l 1
 130 508 168 559 224 559 c 0
 271 559 314 535 352 505 c 1
 393 659 l 1
 468 639 l 1
 421 464 l 1
 426 463 431 462 436 462 c 0
 471 462 494 493 519 518 c 1
 570 467 l 1
 530 427 493 376 436 376 c 0
 423 376 411 378 399 381 c 1
 382 318 l 1
 570 318 l 1
 570 232 l 1
 359 232 l 1
 330 126 l 1
 570 126 l 1
 570 40 l 1
 307 40 l 1
 267 -109 l 1
 192 -89 l 1
 227 40 l 1
 90 40 l 1
 90 126 l 1
 250 126 l 1
 278 232 l 1
 90 232 l 1
 90 318 l 1
 301 318 l 1
 327 415 l 1
EndSplineSet
EndChar

StartChar: uni224C0338
Encoding: 116 -1 116
Width: 660
Flags: W
HStem: 40 86<90 227 330 570> 232 86<90 278 382 570> 376 86<175.609 280.669>
LayerCount: 2
Back
Fore
SplineSet
393 659 m 1
 468 639 l 1
 446 558 l 1
 497 552 532 505 570 467 c 1
 519 417 l 1
 494 442 471 473 436 473 c 0
 432 473 427 473 423 472 c 1
 382 318 l 1
 570 318 l 1
 570 232 l 1
 359 232 l 1
 330 126 l 1
 570 126 l 1
 570 40 l 1
 307 40 l 1
 267 -109 l 1
 192 -89 l 1
 227 40 l 1
 90 40 l 1
 90 126 l 1
 250 126 l 1
 278 232 l 1
 90 232 l 1
 90 318 l 1
 301 318 l 1
 326 411 l 1
 295 390 261 376 224 376 c 0
 168 376 130 427 90 467 c 1
 141 518 l 1
 166 493 189 462 224 462 c 0
 254 462 279 481 302 500 c 0
 320 516 340 530 361 540 c 1
 393 659 l 1
EndSplineSet
EndChar

StartChar: uni224A0338
Encoding: 117 -1 117
Width: 660
Flags: W
HStem: 40 86<90 227 330 570> 184 86<378.319 484.613> 280 86<175.609 281.681> 376 86<421 484.613> 473 86<175.609 280.824>
LayerCount: 2
Back
Fore
SplineSet
327 415 m 1
 298 436 266 473 224 473 c 0
 189 473 166 442 141 417 c 1
 90 467 l 1
 130 508 168 559 224 559 c 0
 271 559 314 535 352 505 c 1
 393 659 l 1
 468 639 l 1
 421 464 l 1
 426 463 431 462 436 462 c 0
 471 462 494 493 519 518 c 1
 570 467 l 1
 530 427 493 376 436 376 c 0
 423 376 411 378 399 381 c 1
 375 294 l 1
 393 281 413 270 436 270 c 0
 471 270 494 301 519 326 c 1
 570 275 l 1
 530 235 493 184 436 184 c 0
 406 184 378 194 352 208 c 1
 330 126 l 1
 570 126 l 1
 570 40 l 1
 307 40 l 1
 267 -109 l 1
 192 -89 l 1
 227 40 l 1
 90 40 l 1
 90 126 l 1
 250 126 l 1
 285 256 l 1
 267 269 247 280 224 280 c 0
 189 280 166 249 141 224 c 1
 90 275 l 1
 130 315 168 366 224 366 c 0
 254 366 282 356 308 342 c 1
 327 415 l 1
EndSplineSet
EndChar

StartChar: uni224F0338
Encoding: 118 59469 118
Width: 660
Flags: W
HStem: 136 86<90 253 356 570> 328 86<90 206.297 453.207 570> 424 86<288.363 330>
LayerCount: 2
Back
Fore
SplineSet
380 611 m 1
 455 591 l 1
 424 474 l 1
 442 458 455 437 462 414 c 1
 570 414 l 1
 570 328 l 1
 384 328 l 1
 356 222 l 1
 570 222 l 1
 570 136 l 1
 333 136 l 1
 280 -61 l 1
 205 -41 l 1
 253 136 l 1
 90 136 l 1
 90 222 l 1
 276 222 l 1
 330 424 l 1
 301 424 277 401 277 371 c 2
 277 328 l 1
 90 328 l 1
 90 414 l 1
 198 414 l 1
 216 470 268 510 330 510 c 0
 338 510 345 509 352 508 c 1
 380 611 l 1
EndSplineSet
EndChar

StartChar: uni2AAE0338
Encoding: 119 -1 119
Width: 660
Flags: W
HStem: 40 86<90 227 330 570> 232 86<90 278 382 570> 424 86<90 206.297 452.758 570> 520 87<287.986 353.773>
LayerCount: 2
Back
Fore
SplineSet
393 659 m 1
 468 639 l 1
 443 547 l 1
 451 536 458 523 462 510 c 1
 570 510 l 1
 570 424 l 1
 410 424 l 1
 382 318 l 1
 570 318 l 1
 570 232 l 1
 359 232 l 1
 330 126 l 1
 570 126 l 1
 570 40 l 1
 307 40 l 1
 267 -109 l 1
 192 -89 l 1
 227 40 l 1
 90 40 l 1
 90 126 l 1
 250 126 l 1
 278 232 l 1
 90 232 l 1
 90 318 l 1
 301 318 l 1
 354 514 l 1
 347 518 339 520 330 520 c 0
 301 520 277 497 277 467 c 2
 277 424 l 1
 90 424 l 1
 90 510 l 1
 198 510 l 1
 216 566 268 607 330 607 c 0
 346 607 362 604 377 599 c 1
 393 659 l 1
EndSplineSet
EndChar

StartChar: uni224E0338
Encoding: 120 58902 120
Width: 660
Flags: W
HStem: 40 86<330 371.637> 136 86<90 206.793 453.703 570> 328 86<90 206.297 453.207 570> 424 86<288.363 330>
VStem: 383 187<136.315 222>
LayerCount: 2
Back
Fore
SplineSet
393 659 m 1
 468 639 l 1
 424 474 l 1
 442 458 455 437 462 414 c 1
 570 414 l 1
 570 328 l 1
 384 328 l 1
 330 126 l 1
 359 126 383 149 383 179 c 2
 383 222 l 1
 570 222 l 1
 570 136 l 1
 462 136 l 1
 444 80 392 40 330 40 c 0
 322 40 315 41 308 42 c 1
 267 -109 l 1
 192 -89 l 1
 236 76 l 1
 218 92 205 113 198 136 c 1
 90 136 l 1
 90 222 l 1
 276 222 l 1
 330 424 l 1
 301 424 277 401 277 371 c 2
 277 328 l 1
 90 328 l 1
 90 414 l 1
 198 414 l 1
 216 470 268 510 330 510 c 0
 338 510 345 509 352 508 c 1
 393 659 l 1
EndSplineSet
EndChar

StartChar: uni22500338
Encoding: 121 58250 121
Width: 660
Flags: W
HStem: 136 86<90 252 356 570> 328 86<90 304 408 570> 493 141<294.512 350.672>
LayerCount: 2
Back
Fore
SplineSet
330 634 m 0
 346 634 364 614 377 601 c 1
 393 659 l 1
 468 639 l 1
 408 414 l 1
 570 414 l 1
 570 328 l 1
 384 328 l 1
 356 222 l 1
 570 222 l 1
 570 136 l 1
 333 136 l 1
 267 -109 l 1
 192 -89 l 1
 252 136 l 1
 90 136 l 1
 90 222 l 1
 276 222 l 1
 304 328 l 1
 90 328 l 1
 90 414 l 1
 327 414 l 1
 351 502 l 1
 344 497 337 493 330 493 c 0
 316 493 300 509 288 521 c 0
 275 534 260 550 260 564 c 0
 260 578 275 593 288 606 c 0
 300 619 316 634 330 634 c 0
EndSplineSet
EndChar

StartChar: uni2A660338
Encoding: 122 -1 122
Width: 660
Flags: W
HStem: -84 141<309.328 365.488> 136 86<90 252 356 570> 328 86<90 304 408 570>
LayerCount: 2
Back
Fore
SplineSet
330 -84 m 0
 314 -84 296 -64 283 -51 c 1
 267 -109 l 1
 192 -89 l 1
 252 136 l 1
 90 136 l 1
 90 222 l 1
 276 222 l 1
 304 328 l 1
 90 328 l 1
 90 414 l 1
 327 414 l 1
 393 659 l 1
 468 639 l 1
 408 414 l 1
 570 414 l 1
 570 328 l 1
 384 328 l 1
 356 222 l 1
 570 222 l 1
 570 136 l 1
 333 136 l 1
 309 48 l 1
 316 53 323 57 330 57 c 0
 344 57 360 41 372 29 c 0
 385 16 401 0 401 -14 c 0
 401 -28 385 -43 372 -56 c 0
 360 -69 344 -84 330 -84 c 0
EndSplineSet
EndChar

StartChar: uni22510338
Encoding: 123 -1 123
Width: 660
Flags: W
HStem: -84 141<309.328 365.488> 136 86<90 252 356 570> 328 86<90 304 408 570> 493 141<294.512 350.672>
LayerCount: 2
Back
Fore
SplineSet
330 634 m 0
 346 634 364 614 377 601 c 1
 393 659 l 1
 468 639 l 1
 408 414 l 1
 570 414 l 1
 570 328 l 1
 384 328 l 1
 356 222 l 1
 570 222 l 1
 570 136 l 1
 333 136 l 1
 309 48 l 1
 316 53 323 57 330 57 c 0
 344 57 360 41 372 29 c 0
 385 16 401 0 401 -14 c 0
 401 -28 385 -43 372 -56 c 0
 360 -69 344 -84 330 -84 c 0
 314 -84 296 -64 283 -51 c 1
 267 -109 l 1
 192 -89 l 1
 252 136 l 1
 90 136 l 1
 90 222 l 1
 276 222 l 1
 304 328 l 1
 90 328 l 1
 90 414 l 1
 327 414 l 1
 351 502 l 1
 344 497 337 493 330 493 c 0
 316 493 300 509 288 521 c 0
 275 534 260 550 260 564 c 0
 260 578 275 593 288 606 c 0
 300 619 316 634 330 634 c 0
EndSplineSet
EndChar

StartChar: uni22520338
Encoding: 124 -1 124
Width: 660
Flags: W
HStem: -84 141<463.87 535.135> 136 86<90 252 356 570> 328 86<90 304 408 570> 493 141<124.87 196.135>
VStem: 90 141<527.944 599.135> 429 141<-49.1349 22.0564>
LayerCount: 2
Back
Fore
SplineSet
231 564 m 0
 231 550 215 534 203 521 c 0
 190 509 175 493 161 493 c 0
 146 493 131 509 118 521 c 0
 106 534 90 550 90 564 c 0
 90 578 106 593 118 606 c 0
 131 619 146 634 161 634 c 0
 175 634 190 619 203 606 c 0
 215 593 231 578 231 564 c 0
570 -14 m 0
 570 -28 554 -43 542 -56 c 0
 529 -69 514 -84 500 -84 c 0
 485 -84 470 -69 457 -56 c 0
 445 -43 429 -28 429 -14 c 0
 429 0 445 16 457 29 c 0
 470 41 485 57 500 57 c 0
 514 57 529 41 542 29 c 0
 554 16 570 0 570 -14 c 0
393 659 m 1
 468 639 l 1
 408 414 l 1
 570 414 l 1
 570 328 l 1
 384 328 l 1
 356 222 l 1
 570 222 l 1
 570 136 l 1
 333 136 l 1
 267 -109 l 1
 192 -89 l 1
 252 136 l 1
 90 136 l 1
 90 222 l 1
 276 222 l 1
 304 328 l 1
 90 328 l 1
 90 414 l 1
 327 414 l 1
 393 659 l 1
EndSplineSet
EndChar

StartChar: uni22530338
Encoding: 125 -1 125
Width: 660
Flags: W
HStem: -84 141<124.87 196.135> 136 86<90 252 356 570> 328 86<90 304 408 570> 493 141<463.87 535.135>
LayerCount: 2
Back
Fore
SplineSet
393 659 m 1
 468 639 l 1
 460 609 l 1
 472 621 486 634 500 634 c 0
 514 634 529 619 542 606 c 0
 554 593 570 578 570 564 c 0
 570 550 554 534 542 521 c 0
 529 509 514 493 500 493 c 0
 485 493 470 509 457 521 c 0
 452 527 446 533 441 539 c 1
 408 414 l 1
 570 414 l 1
 570 328 l 1
 384 328 l 1
 356 222 l 1
 570 222 l 1
 570 136 l 1
 333 136 l 1
 267 -109 l 1
 192 -89 l 1
 200 -59 l 1
 188 -71 174 -84 161 -84 c 0
 146 -84 131 -69 118 -56 c 0
 106 -43 90 -28 90 -14 c 0
 90 0 106 16 118 29 c 0
 131 41 146 57 161 57 c 0
 175 57 190 41 203 29 c 0
 208 23 214 17 219 11 c 1
 252 136 l 1
 90 136 l 1
 90 222 l 1
 276 222 l 1
 304 328 l 1
 90 328 l 1
 90 414 l 1
 327 414 l 1
 393 659 l 1
EndSplineSet
EndChar

StartChar: uni23230338
Encoding: 126 -1 126
Width: 660
Flags: W
HStem: 191 83<230.913 267>
LayerCount: 2
Back
Fore
SplineSet
367 563 m 1
 442 543 l 1
 370 274 l 1
 423 284 471 315 509 353 c 1
 570 293 l 1
 509 232 431 189 346 184 c 1
 293 -13 l 1
 218 7 l 1
 267 191 l 1
 200 206 140 243 90 293 c 1
 151 353 l 1
 189 315 238 285 290 274 c 1
 367 563 l 1
EndSplineSet
EndChar

StartChar: uni23220338
Encoding: 127 -1 127
Width: 660
Flags: W
HStem: 276 83<393 429.087>
LayerCount: 2
Back
Fore
SplineSet
367 563 m 1
 442 543 l 1
 393 359 l 1
 460 344 520 307 570 257 c 1
 509 197 l 1
 471 235 422 265 370 276 c 1
 293 -13 l 1
 218 7 l 1
 290 276 l 1
 237 266 189 235 151 197 c 1
 90 257 l 1
 151 318 229 361 314 366 c 1
 367 563 l 1
EndSplineSet
EndChar

StartChar: uni226D
Encoding: 128 8813 128
Width: 660
Flags: W
HStem: 152 84<360 421.514> 314 84<238.486 300>
LayerCount: 2
Back
Fore
SplineSet
393 659 m 1
 468 639 l 1
 407 413 l 1
 445 428 480 452 509 482 c 1
 570 421 l 1
 517 368 452 330 381 317 c 1
 360 236 l 1
 439 228 512 187 570 129 c 1
 509 68 l 1
 463 115 402 150 337 152 c 1
 267 -109 l 1
 192 -89 l 1
 253 137 l 1
 215 122 180 98 151 68 c 1
 90 129 l 1
 143 182 208 220 279 233 c 1
 300 314 l 1
 221 322 148 363 90 421 c 1
 151 482 l 1
 197 435 258 400 323 398 c 1
 393 659 l 1
EndSplineSet
EndChar

StartChar: uni20500338
Encoding: 129 -1 129
Width: 660
Flags: W
HStem: 56 86<334 420.875> 408 86<239.125 326>
LayerCount: 2
Back
Fore
SplineSet
393 659 m 1
 468 639 l 1
 425 478 l 1
 479 460 528 427 570 386 c 1
 509 325 l 1
 479 355 442 381 402 395 c 1
 334 142 l 1
 400 143 462 178 509 225 c 1
 570 164 l 1
 505 100 421 56 330 56 c 0
 324 56 318 57 312 57 c 1
 267 -109 l 1
 192 -89 l 1
 235 72 l 1
 181 90 132 123 90 164 c 1
 151 225 l 1
 181 195 218 169 258 155 c 1
 326 408 l 1
 260 407 198 372 151 325 c 1
 90 386 l 1
 155 450 239 494 330 494 c 0
 336 494 342 493 348 493 c 1
 393 659 l 1
EndSplineSet
EndChar

StartChar: sym020_uni0338
Encoding: 130 -1 130
Width: 660
Flags: W
HStem: 40 86<90 227 330 570> 232 86<90 278 382 570> 376 86<238.731 317> 526 20G<131 175 497 529>
LayerCount: 2
Back
Fore
SplineSet
393 659 m 1
 468 639 l 1
 427 486 l 1
 457 501 485 521 509 546 c 1
 570 485 l 1
 522 438 464 401 400 385 c 1
 382 318 l 1
 570 318 l 1
 570 232 l 1
 359 232 l 1
 330 126 l 1
 570 126 l 1
 570 40 l 1
 307 40 l 1
 267 -109 l 1
 192 -89 l 1
 227 40 l 1
 90 40 l 1
 90 126 l 1
 250 126 l 1
 278 232 l 1
 90 232 l 1
 90 318 l 1
 301 318 l 1
 317 376 l 1
 231 380 152 424 90 485 c 1
 151 546 l 1
 199 497 262 462 330 462 c 0
 333 462 337 462 340 462 c 1
 393 659 l 1
EndSplineSet
EndChar

StartChar: uni22580338
Encoding: 131 -1 131
Width: 660
Flags: W
HStem: 40 86<90 227 330 570> 232 86<90 278 382 570> 473 86<239.125 342.938>
LayerCount: 2
Back
Fore
SplineSet
393 659 m 1
 468 639 l 1
 441 537 l 1
 489 518 532 487 570 450 c 1
 509 389 l 1
 483 416 452 439 418 454 c 1
 382 318 l 1
 570 318 l 1
 570 232 l 1
 359 232 l 1
 330 126 l 1
 570 126 l 1
 570 40 l 1
 307 40 l 1
 267 -109 l 1
 192 -89 l 1
 227 40 l 1
 90 40 l 1
 90 126 l 1
 250 126 l 1
 278 232 l 1
 90 232 l 1
 90 318 l 1
 301 318 l 1
 343 473 l 1
 339 473 334 473 330 473 c 0
 262 473 199 438 151 389 c 1
 90 450 l 1
 155 514 239 559 330 559 c 0
 342 559 354 558 366 557 c 1
 393 659 l 1
EndSplineSet
EndChar

StartChar: uni22560338
Encoding: 132 -1 132
Width: 660
Flags: W
HStem: 136 86<90 231 429 570> 328 86<90 231 429 570>
VStem: 218 64<258.302 311.607> 378 64<238.393 291.698>
LayerCount: 2
Back
Fore
SplineSet
300 312 m 1
 289 303 282 290 282 275 c 0
 282 269 283 263 285 258 c 1
 300 312 l 1
360 238 m 1
 371 247 378 260 378 275 c 0
 378 281 377 287 375 292 c 1
 360 238 l 1
380 611 m 1
 455 591 l 1
 407 414 l 1
 570 414 l 1
 570 328 l 1
 429 328 l 1
 437 312 442 294 442 275 c 0
 442 256 437 238 429 222 c 1
 570 222 l 1
 570 136 l 1
 333 136 l 1
 280 -61 l 1
 205 -41 l 1
 253 136 l 1
 90 136 l 1
 90 222 l 1
 231 222 l 1
 223 238 218 256 218 275 c 0
 218 294 223 312 231 328 c 1
 90 328 l 1
 90 414 l 1
 327 414 l 1
 380 611 l 1
EndSplineSet
EndChar

StartChar: uni22570338
Encoding: 133 -1 133
Width: 660
Flags: W
HStem: 136 86<90 227 330 570> 328 86<90 278 382 570> 660 64<291.083 363.469>
VStem: 218 64<573.19 651.118>
LayerCount: 2
Back
Fore
SplineSet
282 612 m 0
 282 586 304 564 330 564 c 0
 334 564 338 564 342 565 c 1
 364 646 l 1
 355 655 343 660 330 660 c 0
 304 660 282 638 282 612 c 0
218 612 m 0
 218 674 269 724 330 724 c 0
 348 724 365 720 381 712 c 1
 406 804 l 1
 481 784 l 1
 440 632 l 1
 441 625 442 619 442 612 c 0
 442 584 433 557 415 537 c 1
 382 414 l 1
 570 414 l 1
 570 328 l 1
 359 328 l 1
 330 222 l 1
 570 222 l 1
 570 136 l 1
 307 136 l 1
 254 -61 l 1
 179 -41 l 1
 227 136 l 1
 90 136 l 1
 90 222 l 1
 250 222 l 1
 278 328 l 1
 90 328 l 1
 90 414 l 1
 301 414 l 1
 324 499 l 1
 266 502 218 551 218 612 c 0
EndSplineSet
EndChar

StartChar: uni22590338
Encoding: 134 -1 134
Width: 660
Flags: W
HStem: 136 86<90 227 330 570> 328 86<90 278 382 570> 736 20G<293.255 366.5>
LayerCount: 2
Back
Fore
SplineSet
406 804 m 1
 481 784 l 1
 442 640 l 1
 536 521 l 1
 468 467 l 1
 414 536 l 1
 382 414 l 1
 570 414 l 1
 570 328 l 1
 359 328 l 1
 330 222 l 1
 570 222 l 1
 570 136 l 1
 307 136 l 1
 254 -61 l 1
 179 -41 l 1
 227 136 l 1
 90 136 l 1
 90 222 l 1
 250 222 l 1
 278 328 l 1
 90 328 l 1
 90 414 l 1
 301 414 l 1
 355 613 l 1
 330 644 l 1
 192 467 l 1
 124 521 l 1
 309 756 l 1
 351 756 l 1
 382 716 l 1
 406 804 l 1
EndSplineSet
EndChar

StartChar: uni225A0338
Encoding: 135 -1 135
Width: 660
Flags: W
HStem: 136 86<90 227 330 570> 328 86<90 278 382 570> 736 20G<166.34 207.682>
LayerCount: 2
Back
Fore
SplineSet
406 804 m 1
 481 784 l 1
 473 752 l 1
 536 703 l 1
 419 554 l 1
 382 414 l 1
 570 414 l 1
 570 328 l 1
 359 328 l 1
 330 222 l 1
 570 222 l 1
 570 136 l 1
 307 136 l 1
 254 -61 l 1
 179 -41 l 1
 227 136 l 1
 90 136 l 1
 90 222 l 1
 250 222 l 1
 278 328 l 1
 90 328 l 1
 90 414 l 1
 301 414 l 1
 315 467 l 1
 309 467 l 1
 124 703 l 1
 192 756 l 1
 330 580 l 1
 354 611 l 1
 406 804 l 1
EndSplineSet
EndChar

StartChar: uni225B0338
Encoding: 136 -1 136
Width: 660
Flags: W
HStem: 136 86<90 227 330 570> 328 86<90 278 382 570>
LayerCount: 2
Back
Fore
SplineSet
406 804 m 1
 481 784 l 1
 450 670 l 1
 506 669 l 1
 436 616 l 1
 415 539 l 1
 439 462 l 1
 402 488 l 1
 382 414 l 1
 570 414 l 1
 570 328 l 1
 359 328 l 1
 330 222 l 1
 570 222 l 1
 570 136 l 1
 307 136 l 1
 254 -61 l 1
 179 -41 l 1
 227 136 l 1
 90 136 l 1
 90 222 l 1
 250 222 l 1
 278 328 l 1
 90 328 l 1
 90 414 l 1
 301 414 l 1
 334 535 l 1
 330 538 l 1
 221 462 l 1
 260 589 l 1
 154 669 l 1
 287 672 l 1
 330 797 l 1
 372 676 l 1
 406 804 l 1
EndSplineSet
EndChar

StartChar: uni225C0338
Encoding: 137 -1 137
Width: 660
Flags: W
HStem: 136 86<90 227 330 570> 328 86<90 278 382 570> 507 65<261 326>
LayerCount: 2
Back
Fore
SplineSet
330 692 m 1
 261 572 l 1
 344 572 l 1
 361 638 l 1
 330 692 l 1
406 804 m 1
 481 784 l 1
 440 631 l 1
 511 507 l 1
 407 507 l 1
 382 414 l 1
 570 414 l 1
 570 328 l 1
 359 328 l 1
 330 222 l 1
 570 222 l 1
 570 136 l 1
 307 136 l 1
 254 -61 l 1
 179 -41 l 1
 227 136 l 1
 90 136 l 1
 90 222 l 1
 250 222 l 1
 278 328 l 1
 90 328 l 1
 90 414 l 1
 301 414 l 1
 326 507 l 1
 149 507 l 1
 330 821 l 1
 385 726 l 1
 406 804 l 1
EndSplineSet
EndChar

StartChar: notelement
Encoding: 138 8713 138
Width: 660
Flags: W
HStem: -9 86<317.172 570> 232 86<179 278 382 570> 473 86<259.465 343 447 570> 687 20G<400.595 481>
VStem: 90 89<164.916 232 318 382.234>
LayerCount: 2
Back
Fore
SplineSet
301 318 m 1
 343 473 l 1
 328 473 l 2
 247 473 193 402 179 318 c 1
 301 318 l 1
278 232 m 1
 179 232 l 1
 187 181 211 135 245 107 c 1
 278 232 l 1
406 707 m 1
 481 687 l 1
 447 559 l 1
 570 559 l 1
 570 473 l 1
 423 473 l 1
 382 318 l 1
 570 318 l 1
 570 232 l 1
 359 232 l 1
 317 77 l 1
 321 77 324 77 328 77 c 2
 570 77 l 1
 570 -9 l 1
 328 -9 l 2
 317 -9 306 -8 295 -6 c 1
 254 -157 l 1
 179 -137 l 1
 221 20 l 1
 140 68 90 168 90 275 c 0
 90 424 187 559 328 559 c 2
 366 559 l 1
 406 707 l 1
EndSplineSet
EndChar

StartChar: uni220C
Encoding: 139 8716 139
Width: 660
Flags: W
HStem: -9 86<90 213 317 400.535> 232 86<90 278 382 481> 473 86<90 342.828> 687 20G<400.57 481>
VStem: 481 89<167.766 232 318 385.084>
LayerCount: 2
Back
Fore
SplineSet
359 232 m 1
 317 77 l 1
 332 77 l 2
 413 77 467 148 481 232 c 1
 359 232 l 1
382 318 m 1
 481 318 l 1
 473 369 449 415 415 443 c 1
 382 318 l 1
406 707 m 1
 481 687 l 1
 439 530 l 1
 520 482 570 382 570 275 c 0
 570 126 473 -9 332 -9 c 2
 294 -9 l 1
 254 -157 l 1
 179 -137 l 1
 213 -9 l 1
 90 -9 l 1
 90 77 l 1
 237 77 l 1
 278 232 l 1
 90 232 l 1
 90 318 l 1
 301 318 l 1
 343 473 l 1
 339 473 336 473 332 473 c 2
 90 473 l 1
 90 559 l 1
 332 559 l 2
 343 559 354 558 365 556 c 1
 406 707 l 1
EndSplineSet
EndChar

StartChar: uni226E
Encoding: 140 8814 140
Width: 660
Flags: W
LayerCount: 2
Back
Fore
SplineSet
281 242 m 1
 302 319 l 1
 222 275 l 1
 281 242 l 1
393 659 m 1
 468 639 l 1
 427 486 l 1
 529 542 l 1
 570 467 l 1
 396 371 l 1
 351 204 l 1
 570 83 l 1
 529 8 l 1
 328 119 l 1
 267 -109 l 1
 192 -89 l 1
 258 157 l 1
 90 250 l 1
 90 300 l 1
 332 434 l 1
 393 659 l 1
EndSplineSet
EndChar

StartChar: uni226F
Encoding: 141 8815 141
Width: 660
Flags: W
LayerCount: 2
Back
Fore
SplineSet
379 308 m 1
 358 231 l 1
 438 275 l 1
 379 308 l 1
393 659 m 1
 468 639 l 1
 402 393 l 1
 570 300 l 1
 570 250 l 1
 328 116 l 1
 267 -109 l 1
 192 -89 l 1
 233 64 l 1
 131 8 l 1
 90 83 l 1
 264 179 l 1
 309 346 l 1
 90 467 l 1
 131 542 l 1
 332 431 l 1
 393 659 l 1
EndSplineSet
EndChar

StartChar: uni2270
Encoding: 142 8816 142
Width: 660
Flags: W
HStem: -13 86<90 213 315 570> 533 20G<488.628 545.25>
LayerCount: 2
Back
Fore
SplineSet
301 316 m 1
 315 368 l 1
 246 339 l 1
 301 316 l 1
403 695 m 1
 477 675 l 1
 433 510 l 1
 537 553 l 1
 570 473 l 1
 404 405 l 1
 373 287 l 1
 570 205 l 1
 537 126 l 1
 350 203 l 1
 315 73 l 1
 570 73 l 1
 570 -13 l 1
 292 -13 l 1
 257 -145 l 1
 183 -125 l 1
 213 -13 l 1
 90 -13 l 1
 90 73 l 1
 236 73 l 1
 279 232 l 1
 90 310 l 1
 90 368 l 1
 343 473 l 1
 403 695 l 1
EndSplineSet
EndChar

StartChar: uni2271
Encoding: 143 8817 143
Width: 660
Flags: W
HStem: -13 86<90 213 315 570> 533 20G<114.75 171.444>
LayerCount: 2
Back
Fore
SplineSet
390 349 m 1
 383 326 l 1
 414 339 l 1
 390 349 l 1
403 695 m 1
 477 675 l 1
 412 433 l 1
 570 368 l 1
 570 310 l 1
 355 222 l 1
 315 73 l 1
 570 73 l 1
 570 -13 l 1
 292 -13 l 1
 257 -145 l 1
 183 -125 l 1
 213 -13 l 1
 90 -13 l 1
 90 73 l 1
 236 73 l 1
 266 185 l 1
 123 126 l 1
 90 205 l 1
 294 289 l 1
 318 379 l 1
 90 473 l 1
 123 553 l 1
 341 463 l 1
 403 695 l 1
EndSplineSet
EndChar

StartChar: uni2A7D0338
Encoding: 144 58023 144
Width: 660
Flags: W
LayerCount: 2
Back
Fore
SplineSet
309 345 m 1
 325 404 l 1
 246 371 l 1
 309 345 l 1
403 695 m 1
 477 675 l 1
 442 546 l 1
 537 585 l 1
 570 505 l 1
 414 441 l 1
 381 315 l 1
 570 237 l 1
 537 158 l 1
 358 232 l 1
 334 142 l 1
 570 45 l 1
 537 -35 l 1
 312 58 l 1
 257 -145 l 1
 183 -125 l 1
 240 88 l 1
 90 150 l 1
 123 229 l 1
 263 172 l 1
 287 261 l 1
 90 342 l 1
 90 400 l 1
 353 509 l 1
 403 695 l 1
EndSplineSet
EndChar

StartChar: uni2A7E0338
Encoding: 145 58022 145
Width: 660
Flags: W
LayerCount: 2
Back
Fore
SplineSet
397 378 m 1
 393 362 l 1
 414 371 l 1
 397 378 l 1
403 695 m 1
 477 675 l 1
 420 462 l 1
 570 400 l 1
 570 342 l 1
 365 258 l 1
 335 146 l 1
 537 229 l 1
 570 150 l 1
 307 41 l 1
 257 -145 l 1
 183 -125 l 1
 218 4 l 1
 123 -35 l 1
 90 45 l 1
 246 109 l 1
 276 221 l 1
 123 158 l 1
 90 237 l 1
 304 325 l 1
 326 407 l 1
 90 505 l 1
 123 585 l 1
 348 492 l 1
 403 695 l 1
EndSplineSet
EndChar

StartChar: uni22660338
Encoding: 146 58024 146
Width: 660
Flags: W
HStem: -109 86<90 186 290 570> 84 86<90 238 342 570> 740 20G<414.637 491.429>
LayerCount: 2
Back
Fore
SplineSet
324 403 m 1
 344 475 l 1
 246 435 l 1
 324 403 l 1
420 760 m 1
 495 739 l 1
 463 618 l 1
 537 649 l 1
 570 569 l 1
 434 513 l 1
 397 373 l 1
 570 301 l 1
 537 222 l 1
 374 289 l 1
 342 170 l 1
 570 170 l 1
 570 84 l 1
 319 84 l 1
 290 -23 l 1
 570 -23 l 1
 570 -109 l 1
 267 -109 l 1
 240 -210 l 1
 165 -189 l 1
 186 -109 l 1
 90 -109 l 1
 90 -23 l 1
 210 -23 l 1
 238 84 l 1
 90 84 l 1
 90 170 l 1
 261 170 l 1
 302 319 l 1
 90 407 l 1
 90 464 l 1
 372 581 l 1
 420 760 l 1
EndSplineSet
EndChar

StartChar: uni22670338
Encoding: 147 58021 147
Width: 660
Flags: W
HStem: -109 86<90 186 290 570> 84 86<90 238 342 570> 740 20G<414.597 491.429>
LayerCount: 2
Back
Fore
SplineSet
413 435 m 1
 414 435 l 1
 413 435 l 1
420 760 m 1
 495 739 l 1
 436 519 l 1
 570 464 l 1
 570 407 l 1
 385 331 l 1
 342 170 l 1
 570 170 l 1
 570 84 l 1
 319 84 l 1
 290 -23 l 1
 570 -23 l 1
 570 -109 l 1
 267 -109 l 1
 240 -210 l 1
 165 -189 l 1
 186 -109 l 1
 90 -109 l 1
 90 -23 l 1
 210 -23 l 1
 238 84 l 1
 90 84 l 1
 90 170 l 1
 261 170 l 1
 295 293 l 1
 123 222 l 1
 90 301 l 1
 323 397 l 1
 341 465 l 1
 90 569 l 1
 123 649 l 1
 363 549 l 1
 420 760 l 1
EndSplineSet
EndChar

StartChar: uni2274
Encoding: 148 8820 148
Width: 660
Flags: W
HStem: -45 86<378.538 484.613> -4 21G<120.6 153.5> 52 86<176.163 229.618>
LayerCount: 2
Back
Fore
SplineSet
309 345 m 1x20
 325 404 l 1
 246 371 l 1
 309 345 l 1x20
436 -45 m 0xa0
 384 -45 340 -17 300 16 c 1
 257 -145 l 1
 183 -125 l 1
 230 52 l 1
 228 52 226 52 224 52 c 0
 189 52 166 21 141 -4 c 1x60
 90 46 l 1
 130 87 168 138 224 138 c 0
 234 138 244 137 253 135 c 1
 287 261 l 1
 90 342 l 1
 90 400 l 1
 353 509 l 1
 403 695 l 1
 477 675 l 1
 442 546 l 1
 537 585 l 1
 570 505 l 1
 414 441 l 1
 381 315 l 1
 570 237 l 1
 537 158 l 1
 358 232 l 1
 324 105 l 1
 356 84 391 41 436 41 c 0
 471 41 494 72 519 97 c 1
 570 46 l 1
 530 6 493 -45 436 -45 c 0xa0
EndSplineSet
EndChar

StartChar: uni2275
Encoding: 149 8821 149
Width: 660
Flags: W
HStem: -45 86<378.538 484.613> -4 21G<120.6 153.5> 52 86<176.163 229.618>
LayerCount: 2
Back
Fore
SplineSet
397 378 m 1x20
 393 362 l 1
 414 371 l 1
 397 378 l 1x20
436 -45 m 0xa0
 384 -45 340 -17 300 16 c 1
 257 -145 l 1
 183 -125 l 1
 230 52 l 1
 228 52 226 52 224 52 c 0
 189 52 166 21 141 -4 c 1x60
 90 46 l 1
 130 87 168 138 224 138 c 0
 234 138 244 137 253 135 c 1
 276 221 l 1
 123 158 l 1
 90 237 l 1
 304 325 l 1
 326 407 l 1
 90 505 l 1
 123 585 l 1
 348 492 l 1
 403 695 l 1
 477 675 l 1
 420 462 l 1
 570 400 l 1
 570 342 l 1
 365 258 l 1
 324 105 l 1
 356 84 391 41 436 41 c 0
 471 41 494 72 519 97 c 1
 570 46 l 1
 530 6 493 -45 436 -45 c 0xa0
EndSplineSet
EndChar

StartChar: uni2A850338
Encoding: 150 -1 150
Width: 660
Flags: W
HStem: -141 86<379.423 484.613> -19 20G<506.5 539> 52 86<379.542 484.613> 142 83<224.843 254> 148 86<175.609 253.568>
LayerCount: 2
Back
Fore
SplineSet
332 432 m 1xe0
 353 511 l 1
 246 467 l 1
 332 432 l 1xe0
346 185 m 1
 373 165 400 138 436 138 c 0
 471 138 494 168 519 193 c 1
 570 143 l 1
 530 102 493 52 436 52 c 0
 394 52 356 70 322 95 c 1
 302 21 l 1
 322 11 341 -3 358 -17 c 0
 381 -36 406 -55 436 -55 c 0
 471 -55 494 -24 519 1 c 1
 570 -50 l 1
 530 -90 493 -141 436 -141 c 0
 386 -141 341 -115 302 -83 c 0
 295 -77 287 -70 279 -65 c 1
 245 -193 l 1
 170 -173 l 1
 203 -49 l 1
 179 -58 161 -81 141 -100 c 1
 90 -50 l 1
 130 -10 168 41 224 41 c 0
 225 41 226 41 227 41 c 1
 254 142 l 1xf0
 244 146 235 148 224 148 c 0
 189 148 166 117 141 92 c 1
 90 143 l 1
 130 183 168 234 224 234 c 0xe8
 242 234 259 231 276 225 c 1xf0
 309 348 l 1
 90 439 l 1
 90 496 l 1
 381 617 l 1
 415 743 l 1
 490 723 l 1
 472 654 l 1
 537 681 l 1
 570 601 l 1
 443 549 l 1
 404 402 l 1
 570 334 l 1
 537 254 l 1
 382 318 l 1
 346 185 l 1
EndSplineSet
EndChar

StartChar: uni2A860338
Encoding: 151 -1 151
Width: 660
Flags: W
HStem: -141 86<379.423 484.613> -19 20G<506.5 539> 52 86<379.542 484.613> 142 83<224.843 254> 148 86<175.609 253.568>
LayerCount: 2
Back
Fore
SplineSet
346 185 m 1xf0
 373 165 400 138 436 138 c 0
 471 138 494 168 519 193 c 1
 570 143 l 1
 530 102 493 52 436 52 c 0
 394 52 356 70 322 95 c 1
 302 21 l 1
 322 11 341 -3 358 -17 c 0
 381 -36 406 -55 436 -55 c 0
 471 -55 494 -24 519 1 c 1
 570 -50 l 1
 530 -90 493 -141 436 -141 c 0
 386 -141 341 -115 302 -83 c 0
 295 -77 287 -70 279 -65 c 1
 245 -193 l 1
 170 -173 l 1
 203 -49 l 1
 179 -58 161 -81 141 -100 c 1
 90 -50 l 1
 130 -10 168 41 224 41 c 0
 225 41 226 41 227 41 c 1
 254 142 l 1xf0
 244 146 235 148 224 148 c 0
 189 148 166 117 141 92 c 1
 90 143 l 1
 130 183 168 234 224 234 c 0xe8
 242 234 259 231 276 225 c 1
 304 329 l 1
 123 254 l 1
 90 334 l 1
 332 433 l 1
 348 494 l 1
 90 601 l 1
 123 681 l 1
 371 578 l 1
 415 743 l 1
 490 723 l 1
 443 548 l 1
 570 496 l 1
 570 439 l 1
 395 366 l 1
 346 185 l 1xf0
EndSplineSet
EndChar

StartChar: uni2278
Encoding: 152 8824 152
Width: 660
Flags: W
LayerCount: 2
Back
Fore
SplineSet
330 426 m 1
 351 505 l 1
 246 461 l 1
 330 426 l 1
330 124 m 1
 309 45 l 1
 414 89 l 1
 330 124 l 1
427 786 m 1
 502 766 l 1
 470 647 l 1
 537 675 l 1
 570 595 l 1
 442 542 l 1
 403 397 l 1
 570 328 l 1
 537 248 l 1
 380 313 l 1
 352 207 l 1
 570 117 l 1
 570 60 l 1
 280 -60 l 1
 233 -236 l 1
 158 -216 l 1
 190 -97 l 1
 123 -125 l 1
 90 -45 l 1
 218 8 l 1
 257 153 l 1
 90 222 l 1
 123 302 l 1
 280 237 l 1
 308 343 l 1
 90 433 l 1
 90 490 l 1
 380 610 l 1
 427 786 l 1
EndSplineSet
EndChar

StartChar: uni2279
Encoding: 153 8825 153
Width: 660
Flags: W
LayerCount: 2
Back
Fore
SplineSet
414 737 m 1
 489 717 l 1
 442 543 l 1
 570 490 l 1
 570 433 l 1
 393 360 l 1
 357 228 l 1
 537 302 l 1
 570 222 l 1
 329 123 l 1
 313 61 l 1
 570 -45 l 1
 537 -125 l 1
 290 -23 l 1
 246 -187 l 1
 171 -167 l 1
 218 7 l 1
 90 60 l 1
 90 117 l 1
 267 190 l 1
 303 322 l 1
 123 248 l 1
 90 328 l 1
 331 427 l 1
 347 489 l 1
 90 595 l 1
 123 675 l 1
 370 573 l 1
 414 737 l 1
EndSplineSet
EndChar

StartChar: uni22DA0338
Encoding: 154 -1 154
Width: 660
Flags: W
HStem: 232 86<90 279 381 570>
LayerCount: 2
Back
Fore
SplineSet
360 537 m 1
 389 643 l 1
 246 584 l 1
 360 537 l 1
300 13 m 1
 271 -93 l 1
 414 -34 l 1
 300 13 l 1
460 908 m 1
 534 888 l 1
 506 784 l 1
 537 797 l 1
 570 718 l 1
 478 680 l 1
 432 507 l 1
 570 450 l 1
 537 370 l 1
 409 423 l 1
 381 318 l 1
 570 318 l 1
 570 232 l 1
 358 232 l 1
 322 98 l 1
 570 -5 l 1
 570 -63 l 1
 243 -198 l 1
 200 -358 l 1
 126 -338 l 1
 154 -234 l 1
 123 -247 l 1
 90 -168 l 1
 182 -130 l 1
 228 43 l 1
 90 100 l 1
 123 180 l 1
 251 127 l 1
 279 232 l 1
 90 232 l 1
 90 318 l 1
 302 318 l 1
 338 452 l 1
 90 555 l 1
 90 613 l 1
 417 748 l 1
 460 908 l 1
EndSplineSet
EndChar

StartChar: uni22DB0338
Encoding: 155 -1 155
Width: 660
Flags: W
HStem: 232 86<90 279 382 570>
LayerCount: 2
Back
Fore
SplineSet
434 812 m 1
 509 792 l 1
 472 653 l 1
 570 613 l 1
 570 555 l 1
 430 497 l 1
 382 318 l 1
 570 318 l 1
 570 232 l 1
 359 232 l 1
 321 90 l 1
 537 180 l 1
 570 100 l 1
 292 -15 l 1
 283 -49 l 1
 570 -168 l 1
 537 -247 l 1
 261 -133 l 1
 226 -262 l 1
 152 -242 l 1
 189 -104 l 1
 90 -63 l 1
 90 -5 l 1
 231 53 l 1
 279 232 l 1
 90 232 l 1
 90 318 l 1
 302 318 l 1
 340 460 l 1
 123 370 l 1
 90 450 l 1
 368 565 l 1
 377 599 l 1
 90 718 l 1
 123 797 l 1
 400 683 l 1
 434 812 l 1
EndSplineSet
EndChar

StartChar: uni2A8B0338
Encoding: 156 -1 156
Width: 660
Flags: W
HStem: 136 86<90 253 356 570> 328 86<90 304 407 570>
LayerCount: 2
Back
Fore
SplineSet
383 623 m 1
 417 751 l 1
 246 680 l 1
 383 623 l 1
277 -73 m 1
 243 -201 l 1
 414 -130 l 1
 277 -73 l 1
485 1004 m 1
 560 984 l 1
 535 892 l 1
 537 893 l 1
 570 814 l 1
 508 788 l 1
 455 593 l 1
 570 546 l 1
 537 467 l 1
 433 510 l 1
 407 414 l 1
 570 414 l 1
 570 328 l 1
 384 328 l 1
 356 222 l 1
 570 222 l 1
 570 136 l 1
 333 136 l 1
 299 10 l 1
 570 -101 l 1
 570 -159 l 1
 215 -305 l 1
 175 -454 l 1
 100 -434 l 1
 125 -342 l 1
 123 -343 l 1
 90 -264 l 1
 152 -238 l 1
 205 -43 l 1
 90 4 l 1
 123 83 l 1
 227 40 l 1
 253 136 l 1
 90 136 l 1
 90 222 l 1
 276 222 l 1
 304 328 l 1
 90 328 l 1
 90 414 l 1
 327 414 l 1
 361 540 l 1
 90 651 l 1
 90 709 l 1
 445 855 l 1
 485 1004 l 1
EndSplineSet
EndChar

StartChar: uni2A8C0338
Encoding: 157 -1 157
Width: 660
Flags: W
HStem: 136 86<90 253 355 570> 328 86<90 305 407 570>
LayerCount: 2
Back
Fore
SplineSet
460 908 m 1
 534 888 l 1
 494 740 l 1
 570 709 l 1
 570 651 l 1
 458 605 l 1
 407 414 l 1
 570 414 l 1
 570 328 l 1
 384 328 l 1
 355 222 l 1
 570 222 l 1
 570 136 l 1
 332 136 l 1
 291 -18 l 1
 537 83 l 1
 570 4 l 1
 263 -123 l 1
 260 -136 l 1
 570 -264 l 1
 537 -343 l 1
 237 -220 l 1
 200 -358 l 1
 126 -338 l 1
 166 -190 l 1
 90 -159 l 1
 90 -101 l 1
 202 -55 l 1
 253 136 l 1
 90 136 l 1
 90 222 l 1
 276 222 l 1
 305 328 l 1
 90 328 l 1
 90 414 l 1
 328 414 l 1
 369 568 l 1
 123 467 l 1
 90 546 l 1
 397 673 l 1
 400 686 l 1
 90 814 l 1
 123 893 l 1
 423 770 l 1
 460 908 l 1
EndSplineSet
EndChar

StartChar: uni22DA0338.alt
Encoding: 158 -1 158
Width: 660
Flags: W
HStem: -221 21G<114.646 162>
LayerCount: 2
Back
Fore
SplineSet
354 513 m 1
 381 614 l 1
 246 558 l 1
 354 513 l 1
306 37 m 1
 279 -64 l 1
 414 -8 l 1
 306 37 l 1
453 882 m 1
 527 862 l 1
 498 755 l 1
 537 771 l 1
 570 692 l 1
 470 651 l 1
 426 484 l 1
 570 424 l 1
 537 344 l 1
 403 399 l 1
 377 302 l 1
 570 222 l 1
 537 143 l 1
 355 219 l 1
 328 121 l 1
 570 21 l 1
 570 -36 l 1
 251 -168 l 1
 207 -332 l 1
 133 -312 l 1
 162 -205 l 1
 123 -221 l 1
 90 -142 l 1
 190 -101 l 1
 234 66 l 1
 90 126 l 1
 123 206 l 1
 257 151 l 1
 283 248 l 1
 90 328 l 1
 123 407 l 1
 305 331 l 1
 332 429 l 1
 90 529 l 1
 90 586 l 1
 409 718 l 1
 453 882 l 1
EndSplineSet
EndChar

StartChar: uni22DB0338.alt
Encoding: 159 -1 159
Width: 660
Flags: W
HStem: -221 21G<488.786 545.354>
LayerCount: 2
Back
Fore
SplineSet
427 786 m 1
 502 766 l 1
 465 629 l 1
 570 586 l 1
 570 529 l 1
 422 468 l 1
 389 346 l 1
 537 407 l 1
 570 328 l 1
 361 242 l 1
 328 120 l 1
 537 206 l 1
 570 126 l 1
 300 14 l 1
 289 -26 l 1
 570 -142 l 1
 537 -221 l 1
 267 -109 l 1
 233 -236 l 1
 158 -216 l 1
 195 -79 l 1
 90 -36 l 1
 90 21 l 1
 238 82 l 1
 271 204 l 1
 123 143 l 1
 90 222 l 1
 299 308 l 1
 332 430 l 1
 123 344 l 1
 90 424 l 1
 360 536 l 1
 371 576 l 1
 90 692 l 1
 123 771 l 1
 393 659 l 1
 427 786 l 1
EndSplineSet
EndChar

StartChar: uni226A0338
Encoding: 160 58059 160
Width: 1131
Flags: W
HStem: 526 20G<961.374 1014.23>
LayerCount: 2
Back
Fore
SplineSet
541 333 m 1
 566 427 l 1
 236 275 l 1
 494 157 l 1
 513 230 l 1
 475 247 l 1
 475 303 l 1
 541 333 l 1
628 659 m 1
 703 639 l 1
 632 375 l 1
 1005 546 l 1
 1041 468 l 1
 621 275 l 1
 1041 82 l 1
 1005 4 l 1
 585 197 l 1
 565 124 l 1
 656 82 l 1
 620 4 l 1
 543 39 l 1
 503 -109 l 1
 428 -89 l 1
 471 72 l 1
 90 247 l 1
 90 303 l 1
 595 534 l 1
 628 659 l 1
EndSplineSet
EndChar

StartChar: uni226B0338
Encoding: 161 58060 161
Width: 1131
Flags: W
HStem: 526 20G<116.769 169.523 501.769 555>
LayerCount: 2
Back
Fore
SplineSet
590 217 m 1
 565 123 l 1
 895 275 l 1
 637 393 l 1
 618 320 l 1
 656 303 l 1
 656 247 l 1
 590 217 l 1
628 659 m 1
 703 639 l 1
 660 478 l 1
 1041 303 l 1
 1041 247 l 1
 536 16 l 1
 503 -109 l 1
 428 -89 l 1
 499 175 l 1
 126 4 l 1
 90 82 l 1
 510 275 l 1
 90 468 l 1
 126 546 l 1
 546 353 l 1
 566 426 l 1
 475 468 l 1
 511 546 l 1
 588 511 l 1
 628 659 l 1
EndSplineSet
EndChar

StartChar: uni22D80338
Encoding: 162 58061 162
Width: 1516
Flags: W
HStem: 526 20G<576.379 629.231 1346.38 1399.23>
LayerCount: 2
Back
Fore
SplineSet
684 246 m 1
 762 340 l 1
 621 275 l 1
 684 246 l 1
1390 546 m 1
 1426 468 l 1
 1006 275 l 1
 1426 82 l 1
 1390 4 l 1
 860 247 l 1
 860 303 l 1
 1390 546 l 1
1036 666 m 1
 1095 617 l 1
 1016 523 l 1
 1041 468 l 1
 925 415 l 1
 756 213 l 1
 1041 82 l 1
 1005 4 l 1
 699 144 l 1
 649 85 l 1
 656 82 l 1
 620 4 l 1
 592 17 l 1
 480 -116 l 1
 421 -67 l 1
 519 50 l 1
 90 247 l 1
 90 303 l 1
 620 546 l 1
 656 468 l 1
 236 275 l 1
 577 118 l 1
 626 178 l 1
 475 247 l 1
 475 303 l 1
 892 494 l 1
 1036 666 l 1
EndSplineSet
EndChar

StartChar: uni22D90338
Encoding: 163 58062 163
Width: 1516
Flags: W
HStem: 526 20G<116.769 169.621 501.769 554.714 886.769 924>
LayerCount: 2
Back
Fore
SplineSet
832 304 m 1
 754 210 l 1
 895 275 l 1
 832 304 l 1
126 4 m 1
 90 82 l 1
 510 275 l 1
 90 468 l 1
 126 546 l 1
 656 303 l 1
 656 247 l 1
 126 4 l 1
1036 666 m 1
 1095 617 l 1
 997 500 l 1
 1426 303 l 1
 1426 247 l 1
 896 4 l 1
 860 82 l 1
 1280 275 l 1
 939 432 l 1
 890 372 l 1
 1041 303 l 1
 1041 247 l 1
 624 56 l 1
 480 -116 l 1
 421 -67 l 1
 500 27 l 1
 475 82 l 1
 591 135 l 1
 760 337 l 1
 475 468 l 1
 511 546 l 1
 817 406 l 1
 867 465 l 1
 860 468 l 1
 896 546 l 1
 924 533 l 1
 1036 666 l 1
EndSplineSet
EndChar

StartChar: uni22EA
Encoding: 164 8938 164
Width: 660
Flags: W
VStem: 484 86<130 420>
LayerCount: 2
Back
Fore
SplineSet
281 242 m 1
 302 319 l 1
 222 275 l 1
 281 242 l 1
484 130 m 1
 484 420 l 1
 396 371 l 1
 351 204 l 1
 484 130 l 1
393 659 m 1
 468 639 l 1
 427 486 l 1
 529 542 l 1
 570 517 l 1
 570 33 l 1
 529 8 l 1
 328 119 l 1
 267 -109 l 1
 192 -89 l 1
 258 157 l 1
 90 250 l 1
 90 300 l 1
 332 434 l 1
 393 659 l 1
EndSplineSet
EndChar

StartChar: uni22EB
Encoding: 165 8939 165
Width: 660
Flags: W
VStem: 90 86<130 420>
LayerCount: 2
Back
Fore
SplineSet
379 308 m 1
 358 231 l 1
 438 275 l 1
 379 308 l 1
176 420 m 1
 176 130 l 1
 264 179 l 1
 309 346 l 1
 176 420 l 1
393 659 m 1
 468 639 l 1
 402 393 l 1
 570 300 l 1
 570 250 l 1
 328 116 l 1
 267 -109 l 1
 192 -89 l 1
 233 64 l 1
 131 8 l 1
 90 33 l 1
 90 517 l 1
 131 542 l 1
 332 431 l 1
 393 659 l 1
EndSplineSet
EndChar

StartChar: uni22EC
Encoding: 166 8940 166
Width: 660
Flags: W
HStem: -13 86<90 213 315 570> 533 20G<488.628 567>
VStem: 484 86<241 437>
LayerCount: 2
Back
Fore
SplineSet
301 316 m 1
 315 368 l 1
 246 339 l 1
 301 316 l 1
484 241 m 1
 484 437 l 1
 404 405 l 1
 373 287 l 1
 484 241 l 1
403 695 m 1
 477 675 l 1
 433 510 l 1
 537 553 l 1
 570 531 l 1
 570 148 l 1
 537 126 l 1
 350 203 l 1
 315 73 l 1
 570 73 l 1
 570 -13 l 1
 292 -13 l 1
 257 -145 l 1
 183 -125 l 1
 213 -13 l 1
 90 -13 l 1
 90 73 l 1
 236 73 l 1
 279 232 l 1
 90 310 l 1
 90 368 l 1
 343 473 l 1
 403 695 l 1
EndSplineSet
EndChar

StartChar: uni22ED
Encoding: 167 8941 167
Width: 660
Flags: W
HStem: -13 86<90 213 315 570> 533 20G<93 171.444>
VStem: 90 86<241 437>
LayerCount: 2
Back
Fore
SplineSet
390 349 m 1
 383 326 l 1
 414 339 l 1
 390 349 l 1
176 437 m 1
 176 241 l 1
 294 289 l 1
 318 379 l 1
 176 437 l 1
403 695 m 1
 477 675 l 1
 412 433 l 1
 570 368 l 1
 570 310 l 1
 355 222 l 1
 315 73 l 1
 570 73 l 1
 570 -13 l 1
 292 -13 l 1
 257 -145 l 1
 183 -125 l 1
 213 -13 l 1
 90 -13 l 1
 90 73 l 1
 236 73 l 1
 266 185 l 1
 123 126 l 1
 90 148 l 1
 90 531 l 1
 123 553 l 1
 341 463 l 1
 403 695 l 1
EndSplineSet
EndChar

StartChar: uni2AA60338
Encoding: 168 -1 168
Width: 717
Flags: W
VStem: 533 87<159.612 390.388>
LayerCount: 2
Back
Fore
SplineSet
306 229 m 1
 335 337 l 1
 222 275 l 1
 306 229 l 1
495 125 m 1
 521 171 533 223 533 275 c 0
 533 327 521 379 495 425 c 1
 429 389 l 1
 375 190 l 1
 495 125 l 1
421 659 m 1
 496 639 l 1
 460 504 l 1
 529 542 l 1
 570 467 l 2
 603 407 620 341 620 275 c 0
 620 209 603 143 570 83 c 2
 529 8 l 1
 353 105 l 1
 295 -109 l 1
 221 -89 l 1
 283 144 l 1
 90 250 l 1
 90 300 l 1
 366 452 l 1
 421 659 l 1
EndSplineSet
EndChar

StartChar: uni2AA70338
Encoding: 169 -1 169
Width: 717
Flags: W
VStem: 98 86<159.612 390.388>
LayerCount: 2
Back
Fore
SplineSet
411 322 m 1
 381 212 l 1
 495 275 l 1
 411 322 l 1
222 425 m 1
 196 379 184 327 184 275 c 0
 184 223 196 171 222 125 c 1
 288 161 l 1
 341 360 l 1
 222 425 l 1
421 659 m 1
 496 639 l 1
 434 407 l 1
 627 300 l 1
 627 250 l 1
 351 98 l 1
 295 -109 l 1
 221 -89 l 1
 257 46 l 1
 188 8 l 1
 167 46 l 1
 147 83 l 2
 114 143 98 209 98 275 c 0
 98 341 114 407 147 467 c 2
 167 504 l 1
 188 542 l 1
 364 445 l 1
 421 659 l 1
EndSplineSet
EndChar

StartChar: uni2AA80338
Encoding: 170 -1 170
Width: 698
Flags: W
VStem: 502 86<271.859 469.488>
LayerCount: 2
Back
Fore
SplineSet
326 338 m 1
 346 412 l 1
 246 371 l 1
 326 338 l 1
488 271 m 1
 497 304 502 337 502 371 c 0
 502 405 497 438 488 471 c 1
 437 450 l 1
 399 308 l 1
 488 271 l 1
422 695 m 1
 497 675 l 1
 465 555 l 1
 537 585 l 1
 554 545 l 1
 557 538 560 532 562 525 c 2
 570 505 l 1
 569 504 l 1
 582 461 588 417 588 372 c 0
 588 327 581 282 568 238 c 1
 570 237 l 1
 559 211 l 2
 557 207 556 202 554 198 c 1
 537 158 l 1
 376 224 l 1
 352 135 l 1
 570 45 l 1
 537 -35 l 1
 330 51 l 1
 277 -145 l 1
 202 -125 l 1
 257 81 l 1
 90 150 l 1
 123 229 l 1
 280 165 l 1
 304 254 l 1
 90 342 l 1
 90 400 l 1
 374 518 l 1
 422 695 l 1
EndSplineSet
EndChar

StartChar: uni2AA90338
Encoding: 171 -1 171
Width: 698
Flags: W
VStem: 110 86<272.686 469.488>
LayerCount: 2
Back
Fore
SplineSet
419 385 m 1
 411 354 l 1
 453 371 l 1
 419 385 l 1
210 471 m 1
 201 438 196 405 196 371 c 0
 196 337 201 304 210 271 c 1
 320 316 l 1
 347 415 l 1
 210 471 l 1
422 695 m 1
 497 675 l 1
 442 469 l 1
 608 400 l 1
 608 342 l 1
 383 249 l 1
 353 137 l 1
 576 229 l 1
 608 150 l 1
 325 33 l 1
 277 -145 l 1
 202 -125 l 1
 234 -5 l 1
 161 -35 l 1
 128 45 l 1
 262 100 l 1
 292 212 l 1
 161 158 l 1
 128 237 l 1
 131 238 l 1
 118 281 110 327 110 372 c 0
 110 417 117 461 130 504 c 1
 128 505 l 1
 161 585 l 1
 369 499 l 1
 422 695 l 1
EndSplineSet
EndChar

StartChar: uni228F0338
Encoding: 172 58884 172
Width: 660
Flags: W
HStem: -9 86<176 213 317 570> 473 86<176 343 447 570> 687 20G<400.595 481>
VStem: 90 86<77 473>
LayerCount: 2
Back
Fore
SplineSet
176 77 m 1
 237 77 l 1
 343 473 l 1
 176 473 l 1
 176 77 l 1
406 707 m 1
 481 687 l 1
 447 559 l 1
 570 559 l 1
 570 473 l 1
 423 473 l 1
 317 77 l 1
 570 77 l 1
 570 -9 l 1
 294 -9 l 1
 254 -157 l 1
 179 -137 l 1
 213 -9 l 1
 90 -9 l 1
 90 559 l 1
 366 559 l 1
 406 707 l 1
EndSplineSet
EndChar

StartChar: uni22900338
Encoding: 173 58901 173
Width: 660
Flags: W
HStem: -9 86<90 213 317 484> 473 86<90 343 447 484> 687 20G<400.595 481>
VStem: 484 86<77 473>
LayerCount: 2
Back
Fore
SplineSet
484 77 m 1
 484 473 l 1
 423 473 l 1
 317 77 l 1
 484 77 l 1
406 707 m 1
 481 687 l 1
 447 559 l 1
 570 559 l 1
 570 -9 l 1
 294 -9 l 1
 254 -157 l 1
 179 -137 l 1
 213 -9 l 1
 90 -9 l 1
 90 77 l 1
 237 77 l 1
 343 473 l 1
 90 473 l 1
 90 559 l 1
 366 559 l 1
 406 707 l 1
EndSplineSet
EndChar

StartChar: uni22E2
Encoding: 174 8930 174
Width: 660
Flags: W
HStem: -45 86<90 204 308 570> 148 86<176 256 359 570> 509 86<176 352 456 570>
VStem: 90 86<234 509>
LayerCount: 2
Back
Fore
SplineSet
176 234 m 1
 279 234 l 1
 352 509 l 1
 176 509 l 1
 176 234 l 1
415 743 m 1
 490 723 l 1
 456 595 l 1
 570 595 l 1
 570 509 l 1
 433 509 l 1
 359 234 l 1
 570 234 l 1
 570 148 l 1
 336 148 l 1
 308 41 l 1
 570 41 l 1
 570 -45 l 1
 285 -45 l 1
 245 -193 l 1
 170 -173 l 1
 204 -45 l 1
 90 -45 l 1
 90 41 l 1
 227 41 l 1
 256 148 l 1
 90 148 l 1
 90 595 l 1
 375 595 l 1
 415 743 l 1
EndSplineSet
EndChar

StartChar: uni22E3
Encoding: 175 8931 175
Width: 660
Flags: W
HStem: -45 86<90 204 308 570> 148 86<90 256 359 484> 509 86<90 352 456 484>
VStem: 484 86<234 509>
LayerCount: 2
Back
Fore
SplineSet
484 234 m 1
 484 509 l 1
 433 509 l 1
 359 234 l 1
 484 234 l 1
415 743 m 1
 490 723 l 1
 456 595 l 1
 570 595 l 1
 570 148 l 1
 336 148 l 1
 308 41 l 1
 570 41 l 1
 570 -45 l 1
 285 -45 l 1
 245 -193 l 1
 170 -173 l 1
 204 -45 l 1
 90 -45 l 1
 90 41 l 1
 227 41 l 1
 256 148 l 1
 90 148 l 1
 90 234 l 1
 279 234 l 1
 352 509 l 1
 90 509 l 1
 90 595 l 1
 375 595 l 1
 415 743 l 1
EndSplineSet
EndChar

StartChar: sym021_uni0338
Encoding: 176 -1 176
Width: 660
Flags: W
HStem: -141 86<90 179 282 570> 52 86<90 230 334 570> 244 86<176 282 385 570> 605 86<176 378 481 570>
VStem: 90 86<330 605>
LayerCount: 2
Back
Fore
SplineSet
176 330 m 1
 305 330 l 1
 378 605 l 1
 176 605 l 1
 176 330 l 1
428 792 m 1
 503 772 l 1
 481 691 l 1
 570 691 l 1
 570 605 l 1
 458 605 l 1
 385 330 l 1
 570 330 l 1
 570 244 l 1
 362 244 l 1
 334 138 l 1
 570 138 l 1
 570 52 l 1
 311 52 l 1
 282 -55 l 1
 570 -55 l 1
 570 -141 l 1
 259 -141 l 1
 232 -242 l 1
 157 -222 l 1
 179 -141 l 1
 90 -141 l 1
 90 -55 l 1
 202 -55 l 1
 230 52 l 1
 90 52 l 1
 90 138 l 1
 253 138 l 1
 282 244 l 1
 90 244 l 1
 90 691 l 1
 401 691 l 1
 428 792 l 1
EndSplineSet
EndChar

StartChar: sym022_uni0338
Encoding: 177 -1 177
Width: 660
Flags: W
HStem: -141 86<90 179 282 570> 52 86<90 230 334 570> 244 86<90 282 385 484> 605 86<90 378 481 484>
VStem: 484 86<330 605>
LayerCount: 2
Back
Fore
SplineSet
484 330 m 1
 484 605 l 1
 458 605 l 1
 385 330 l 1
 484 330 l 1
428 792 m 1
 503 772 l 1
 481 691 l 1
 570 691 l 1
 570 244 l 1
 362 244 l 1
 334 138 l 1
 570 138 l 1
 570 52 l 1
 311 52 l 1
 282 -55 l 1
 570 -55 l 1
 570 -141 l 1
 259 -141 l 1
 232 -242 l 1
 157 -222 l 1
 179 -141 l 1
 90 -141 l 1
 90 -55 l 1
 202 -55 l 1
 230 52 l 1
 90 52 l 1
 90 138 l 1
 253 138 l 1
 282 244 l 1
 90 244 l 1
 90 330 l 1
 305 330 l 1
 378 605 l 1
 90 605 l 1
 90 691 l 1
 401 691 l 1
 428 792 l 1
EndSplineSet
EndChar

StartChar: sym023_uni0338
Encoding: 178 -1 178
Width: 660
Flags: W
HStem: -9 86<176 213 317 570> 136 86<356 570> 328 86<408 570> 473 86<176 343 447 570> 687 20G<400.595 481>
VStem: 90 86<77 473>
LayerCount: 2
Back
Fore
SplineSet
252 136 m 1
 234 136 l 1
 234 414 l 1
 327 414 l 1
 343 473 l 1
 176 473 l 1
 176 77 l 1
 237 77 l 1
 252 136 l 1
406 707 m 1
 481 687 l 1
 447 559 l 1
 570 559 l 1
 570 473 l 1
 423 473 l 1
 408 414 l 1
 570 414 l 1
 570 328 l 1
 384 328 l 1
 356 222 l 1
 570 222 l 1
 570 136 l 1
 333 136 l 1
 317 77 l 1
 570 77 l 1
 570 -9 l 1
 294 -9 l 1
 254 -157 l 1
 179 -137 l 1
 213 -9 l 1
 90 -9 l 1
 90 559 l 1
 366 559 l 1
 406 707 l 1
EndSplineSet
EndChar

StartChar: sym024_uni0338
Encoding: 179 -1 179
Width: 660
Flags: W
HStem: -9 86<90 213 317 484> 136 86<90 252> 328 86<90 304> 473 86<90 343 447 484> 687 20G<400.595 481>
VStem: 484 86<77 473>
LayerCount: 2
Back
Fore
SplineSet
333 136 m 1
 317 77 l 1
 484 77 l 1
 484 473 l 1
 423 473 l 1
 408 414 l 1
 426 414 l 1
 426 136 l 1
 333 136 l 1
406 707 m 1
 481 687 l 1
 447 559 l 1
 570 559 l 1
 570 -9 l 1
 294 -9 l 1
 254 -157 l 1
 179 -137 l 1
 213 -9 l 1
 90 -9 l 1
 90 77 l 1
 237 77 l 1
 252 136 l 1
 90 136 l 1
 90 222 l 1
 276 222 l 1
 304 328 l 1
 90 328 l 1
 90 414 l 1
 327 414 l 1
 343 473 l 1
 90 473 l 1
 90 559 l 1
 366 559 l 1
 406 707 l 1
EndSplineSet
EndChar

StartChar: notsubset
Encoding: 180 8836 180
Width: 660
Flags: W
HStem: -9 86<317.172 570> 473 86<259.465 343 447 570> 687 20G<400.595 481>
VStem: 90 86<172.406 377.184>
LayerCount: 2
Back
Fore
SplineSet
245 107 m 1
 343 473 l 1
 328 473 l 2
 234 473 176 377 176 275 c 0
 176 208 201 143 245 107 c 1
406 707 m 1
 481 687 l 1
 447 559 l 1
 570 559 l 1
 570 473 l 1
 423 473 l 1
 317 77 l 1
 321 77 324 77 328 77 c 2
 570 77 l 1
 570 -9 l 1
 328 -9 l 2
 317 -9 306 -8 295 -6 c 1
 254 -157 l 1
 179 -137 l 1
 221 20 l 1
 140 68 90 168 90 275 c 0
 90 424 187 559 328 559 c 2
 366 559 l 1
 406 707 l 1
EndSplineSet
EndChar

StartChar: uni2285
Encoding: 181 8837 181
Width: 660
Flags: W
HStem: -9 86<90 213 317 400.535> 473 86<90 342.828> 687 20G<400.57 481>
VStem: 484 86<172.816 377.594>
LayerCount: 2
Back
Fore
SplineSet
415 443 m 1
 317 77 l 1
 332 77 l 2
 426 77 484 173 484 275 c 0
 484 342 459 407 415 443 c 1
406 707 m 1
 481 687 l 1
 439 530 l 1
 520 482 570 382 570 275 c 0
 570 126 473 -9 332 -9 c 2
 294 -9 l 1
 254 -157 l 1
 179 -137 l 1
 213 -9 l 1
 90 -9 l 1
 90 77 l 1
 237 77 l 1
 343 473 l 1
 339 473 336 473 332 473 c 2
 90 473 l 1
 90 559 l 1
 332 559 l 2
 343 559 354 558 365 556 c 1
 406 707 l 1
EndSplineSet
EndChar

StartChar: uni2288
Encoding: 182 8840 182
Width: 660
Flags: W
HStem: -45 86<90 204 308 570> 148 86<224.71 256 359 570> 509 86<224.919 352 456 570>
VStem: 90 86<286.944 456.198>
LayerCount: 2
Back
Fore
SplineSet
279 234 m 1
 352 509 l 1
 279 509 l 2
 215 509 176 442 176 371 c 0
 176 301 215 234 279 234 c 1
415 743 m 1
 490 723 l 1
 456 595 l 1
 570 595 l 1
 570 509 l 1
 433 509 l 1
 359 234 l 1
 570 234 l 1
 570 148 l 1
 336 148 l 1
 308 41 l 1
 570 41 l 1
 570 -45 l 1
 285 -45 l 1
 245 -193 l 1
 170 -173 l 1
 204 -45 l 1
 90 -45 l 1
 90 41 l 1
 227 41 l 1
 256 150 l 1
 157 163 90 262 90 371 c 0
 90 489 168 595 279 595 c 2
 375 595 l 1
 415 743 l 1
EndSplineSet
EndChar

StartChar: uni2289
Encoding: 183 8841 183
Width: 660
Flags: W
HStem: -45 86<90 204 308 570> 148 86<90 256 359 435.081> 509 86<90 352>
VStem: 484 86<286.502 456.343>
LayerCount: 2
Back
Fore
SplineSet
429 494 m 1
 359 234 l 1
 381 234 l 2
 445 234 484 301 484 371 c 0
 484 422 464 470 429 494 c 1
415 743 m 1
 490 723 l 1
 452 579 l 1
 524 545 570 462 570 371 c 0
 570 254 492 148 381 148 c 2
 336 148 l 1
 308 41 l 1
 570 41 l 1
 570 -45 l 1
 285 -45 l 1
 245 -193 l 1
 170 -173 l 1
 204 -45 l 1
 90 -45 l 1
 90 41 l 1
 227 41 l 1
 256 148 l 1
 90 148 l 1
 90 234 l 1
 279 234 l 1
 352 509 l 1
 90 509 l 1
 90 595 l 1
 375 595 l 1
 415 743 l 1
EndSplineSet
EndChar

StartChar: uni2AC50338
Encoding: 184 58030 184
Width: 660
Flags: W
HStem: -141 86<90 179 282 570> 52 86<90 230 334 570> 244 86<224.919 282 385 570> 605 86<224.919 378 481 570>
VStem: 90 86<382.502 552.198>
LayerCount: 2
Back
Fore
SplineSet
305 330 m 1
 378 605 l 1
 279 605 l 2
 215 605 176 538 176 467 c 0
 176 397 215 330 279 330 c 2
 305 330 l 1
428 792 m 1
 503 772 l 1
 481 691 l 1
 570 691 l 1
 570 605 l 1
 458 605 l 1
 385 330 l 1
 570 330 l 1
 570 244 l 1
 362 244 l 1
 334 138 l 1
 570 138 l 1
 570 52 l 1
 311 52 l 1
 282 -55 l 1
 570 -55 l 1
 570 -141 l 1
 259 -141 l 1
 232 -242 l 1
 157 -222 l 1
 179 -141 l 1
 90 -141 l 1
 90 -55 l 1
 202 -55 l 1
 230 52 l 1
 90 52 l 1
 90 138 l 1
 253 138 l 1
 282 244 l 1
 279 244 l 2
 168 244 90 350 90 467 c 0
 90 585 168 691 279 691 c 2
 401 691 l 1
 428 792 l 1
EndSplineSet
EndChar

StartChar: uni2AC60338
Encoding: 185 58032 185
Width: 660
Flags: W
HStem: -141 86<90 179 282 570> 52 86<90 230 334 570> 244 86<90 282 385 435.081> 605 86<90 378>
VStem: 484 86<381.93 552.051>
LayerCount: 2
Back
Fore
SplineSet
449 572 m 1
 385 330 l 1
 447 333 484 398 484 467 c 0
 484 507 471 546 449 572 c 1
428 792 m 1
 503 772 l 1
 474 663 l 1
 533 624 570 548 570 467 c 0
 570 350 492 244 381 244 c 2
 362 244 l 1
 334 138 l 1
 570 138 l 1
 570 52 l 1
 311 52 l 1
 282 -55 l 1
 570 -55 l 1
 570 -141 l 1
 259 -141 l 1
 232 -242 l 1
 157 -222 l 1
 179 -141 l 1
 90 -141 l 1
 90 -55 l 1
 202 -55 l 1
 230 52 l 1
 90 52 l 1
 90 138 l 1
 253 138 l 1
 282 244 l 1
 90 244 l 1
 90 330 l 1
 305 330 l 1
 378 605 l 1
 90 605 l 1
 90 691 l 1
 381 691 l 2
 388 691 395 691 401 690 c 1
 428 792 l 1
EndSplineSet
EndChar

StartChar: uni22D00338
Encoding: 186 -1 186
Width: 660
Flags: W
HStem: -9 86<317.172 570> 136 86<356 570> 328 86<408 570> 473 86<259.465 343 447 570> 687 20G<400.595 481>
VStem: 90 86<172.406 377.184>
LayerCount: 2
Back
Fore
SplineSet
326 411 m 1
 343 473 l 1
 328 473 l 2
 234 473 176 377 176 275 c 0
 176 208 201 143 245 107 c 1
 265 181 l 1
 246 206 234 240 234 275 c 0
 234 339 271 397 326 411 c 1
406 707 m 1
 481 687 l 1
 447 559 l 1
 570 559 l 1
 570 473 l 1
 423 473 l 1
 408 414 l 1
 570 414 l 1
 570 328 l 1
 384 328 l 1
 356 222 l 1
 570 222 l 1
 570 136 l 1
 352 136 l 2
 346 136 339 137 333 138 c 1
 317 77 l 1
 321 77 324 77 328 77 c 2
 570 77 l 1
 570 -9 l 1
 328 -9 l 2
 317 -9 306 -8 295 -6 c 1
 254 -157 l 1
 179 -137 l 1
 221 20 l 1
 140 68 90 168 90 275 c 0
 90 424 187 559 328 559 c 2
 366 559 l 1
 406 707 l 1
EndSplineSet
EndChar

StartChar: uni22D10338
Encoding: 187 -1 187
Width: 660
Flags: W
HStem: -9 86<90 213 317 400.535> 136 86<90 252> 328 86<90 304> 473 86<90 342.828> 687 20G<400.57 481>
VStem: 484 86<172.816 377.594>
LayerCount: 2
Back
Fore
SplineSet
334 139 m 1
 317 77 l 1
 332 77 l 2
 426 77 484 173 484 275 c 0
 484 342 459 407 415 443 c 1
 395 369 l 1
 414 344 426 310 426 275 c 0
 426 211 389 153 334 139 c 1
406 707 m 1
 481 687 l 1
 439 530 l 1
 520 482 570 382 570 275 c 0
 570 126 473 -9 332 -9 c 2
 294 -9 l 1
 254 -157 l 1
 179 -137 l 1
 213 -9 l 1
 90 -9 l 1
 90 77 l 1
 237 77 l 1
 252 136 l 1
 90 136 l 1
 90 222 l 1
 276 222 l 1
 304 328 l 1
 90 328 l 1
 90 414 l 1
 308 414 l 2
 314 414 321 413 327 412 c 1
 343 473 l 1
 339 473 336 473 332 473 c 2
 90 473 l 1
 90 559 l 1
 332 559 l 2
 343 559 354 558 365 556 c 1
 406 707 l 1
EndSplineSet
EndChar

StartChar: uni2280
Encoding: 188 8832 188
Width: 660
Flags: W
HStem: 232 86<90 243.38> 525 20G<493 528.356>
LayerCount: 2
Back
Fore
SplineSet
393 659 m 1
 468 639 l 1
 419 455 l 1
 450 484 479 515 507 545 c 1
 570 486 l 1
 512 424 449 364 381 317 c 1
 362 246 l 1
 438 198 507 131 570 64 c 1
 507 5 l 1
 455 61 400 117 339 160 c 1
 267 -109 l 1
 192 -89 l 1
 270 200 l 1
 227 220 182 232 133 232 c 2
 90 232 l 1
 90 318 l 1
 133 318 l 2
 200 318 261 341 317 376 c 1
 393 659 l 1
EndSplineSet
EndChar

StartChar: uni2281
Encoding: 189 8833 189
Width: 660
Flags: W
HStem: 232 86<416.62 570> 525 20G<131.644 179>
LayerCount: 2
Back
Fore
SplineSet
393 659 m 1
 468 639 l 1
 390 350 l 1
 433 330 478 318 527 318 c 2
 570 318 l 1
 570 232 l 1
 527 232 l 2
 460 232 399 209 343 174 c 1
 267 -109 l 1
 192 -89 l 1
 241 95 l 1
 210 66 181 35 153 5 c 1
 90 64 l 1
 148 126 211 186 279 233 c 1
 298 304 l 1
 222 352 153 419 90 486 c 1
 153 545 l 1
 205 489 260 433 321 390 c 1
 393 659 l 1
EndSplineSet
EndChar

StartChar: uni2AAF0338
Encoding: 190 58844 190
Width: 660
Flags: W
HStem: -13 86<90 213 315 570> 296 86<90 273.75> 529 20G<494.5 528.356>
LayerCount: 2
Back
Fore
SplineSet
403 695 m 1
 477 675 l 1
 424 476 l 1
 454 497 482 522 507 549 c 1
 570 490 l 1
 519 435 458 390 392 357 c 1
 383 325 l 1
 453 292 517 246 570 188 c 1
 507 129 l 1
 465 175 414 213 360 241 c 1
 315 73 l 1
 570 73 l 1
 570 -13 l 1
 292 -13 l 1
 257 -145 l 1
 183 -125 l 1
 213 -13 l 1
 90 -13 l 1
 90 73 l 1
 236 73 l 1
 289 271 l 1
 239 288 187 296 133 296 c 2
 90 296 l 1
 90 382 l 1
 133 382 l 2
 202 382 268 397 330 424 c 1
 403 695 l 1
EndSplineSet
EndChar

StartChar: uni2AB00338
Encoding: 191 58865 191
Width: 660
Flags: W
HStem: -13 86<90 213 315 570> 296 86<404.876 570> 529 20G<131.644 178>
LayerCount: 2
Back
Fore
SplineSet
403 695 m 1
 477 675 l 1
 403 398 l 1
 443 387 485 382 527 382 c 2
 570 382 l 1
 570 296 l 1
 527 296 l 2
 472 296 419 287 368 270 c 1
 315 73 l 1
 570 73 l 1
 570 -13 l 1
 292 -13 l 1
 257 -145 l 1
 183 -125 l 1
 213 -13 l 1
 90 -13 l 1
 90 73 l 1
 236 73 l 1
 278 229 l 1
 232 203 190 169 153 129 c 1
 90 188 l 1
 151 254 225 306 307 339 c 1
 308 339 l 1
 226 372 151 424 90 490 c 1
 153 549 l 1
 203 495 264 452 330 423 c 1
 403 695 l 1
EndSplineSet
EndChar

StartChar: uni22E0
Encoding: 192 8928 192
Width: 660
Flags: W
HStem: 125 82<91.3438 250> 136 86<90 248.92> 328 86<90 274.951>
LayerCount: 2
Back
Fore
SplineSet
403 695 m 1xa0
 477 675 l 1
 434 516 l 1
 460 535 485 557 507 581 c 1
 570 522 l 1
 521 470 464 426 402 394 c 1
 391 354 l 1
 458 321 518 276 570 220 c 1
 507 161 l 1
 467 205 419 242 368 269 c 1
 343 177 l 1
 410 141 471 86 528 28 c 1
 466 -29 l 1
 421 18 374 63 321 94 c 1
 257 -145 l 1
 183 -125 l 1
 250 125 l 1xa0
 227 132 202 136 176 136 c 2
 90 136 l 1
 90 222 l 1
 176 222 l 2x60
 210 222 242 216 272 207 c 1
 297 300 l 1
 245 318 189 328 133 328 c 2
 90 328 l 1
 90 414 l 1
 133 414 l 2
 205 414 276 430 340 460 c 1
 403 695 l 1xa0
EndSplineSet
EndChar

StartChar: uni22E1
Encoding: 193 8929 193
Width: 660
Flags: W
HStem: 136 86<381.186 570> 328 86<412.781 570>
LayerCount: 2
Back
Fore
SplineSet
403 695 m 1
 477 675 l 1
 411 428 l 1
 449 419 487 414 527 414 c 2
 570 414 l 1
 570 328 l 1
 527 328 l 2
 476 328 426 320 378 305 c 1
 348 192 l 1
 390 211 435 222 484 222 c 2
 570 222 l 1
 570 136 l 1
 484 136 l 2
 422 136 368 114 318 81 c 1
 257 -145 l 1
 183 -125 l 1
 214 -8 l 1
 207 -15 201 -22 194 -29 c 1
 132 28 l 1
 171 67 210 106 253 137 c 1
 288 266 l 1
 238 239 192 204 153 161 c 1
 90 220 l 1
 151 286 226 338 308 371 c 1
 226 404 151 456 90 522 c 1
 153 581 l 1
 205 525 269 481 338 452 c 1
 403 695 l 1
EndSplineSet
EndChar

StartChar: uni2AB30338
Encoding: 194 -1 194
Width: 660
Flags: W
HStem: -109 86<90 186 290 570> 84 86<90 238 342 570> 392 86<90 274.062> 740 20G<414.626 491.429>
LayerCount: 2
Back
Fore
SplineSet
420 760 m 1
 495 739 l 1
 457 598 l 1
 475 613 491 628 507 645 c 1
 570 587 l 1
 527 540 477 501 423 470 c 1
 407 410 l 1
 468 378 523 335 570 284 c 1
 507 226 l 1
 471 265 429 298 384 324 c 1
 342 170 l 1
 570 170 l 1
 570 84 l 1
 319 84 l 1
 290 -23 l 1
 570 -23 l 1
 570 -109 l 1
 267 -109 l 1
 240 -210 l 1
 165 -189 l 1
 186 -109 l 1
 90 -109 l 1
 90 -23 l 1
 210 -23 l 1
 238 84 l 1
 90 84 l 1
 90 170 l 1
 261 170 l 1
 312 358 l 1
 255 380 195 392 133 392 c 2
 90 392 l 1
 90 478 l 1
 133 478 l 2
 212 478 289 498 359 533 c 1
 420 760 l 1
EndSplineSet
EndChar

StartChar: uni2AB40338
Encoding: 195 -1 195
Width: 660
Flags: W
HStem: -109 86<90 186 290 570> 84 86<90 238 342 570> 392 86<429.501 570> 740 20G<414.64 491.429>
LayerCount: 2
Back
Fore
SplineSet
420 760 m 1
 495 739 l 1
 428 488 l 1
 460 481 493 478 527 478 c 2
 570 478 l 1
 570 392 l 1
 527 392 l 2
 483 392 439 385 397 374 c 1
 342 170 l 1
 570 170 l 1
 570 84 l 1
 319 84 l 1
 290 -23 l 1
 570 -23 l 1
 570 -109 l 1
 267 -109 l 1
 240 -210 l 1
 165 -189 l 1
 186 -109 l 1
 90 -109 l 1
 90 -23 l 1
 210 -23 l 1
 238 84 l 1
 90 84 l 1
 90 170 l 1
 261 170 l 1
 307 341 l 1
 250 313 197 274 153 226 c 1
 90 284 l 1
 151 350 227 402 309 435 c 1
 227 469 151 521 90 587 c 1
 153 645 l 1
 209 585 278 538 353 510 c 1
 420 760 l 1
EndSplineSet
EndChar

StartChar: uni227E0338
Encoding: 196 59446 196
Width: 660
Flags: W
HStem: -45 86<378.538 484.613> -4 21G<120.6 153.5> 52 86<176.163 229.618> 328 86<90 274.951>
LayerCount: 2
Back
Fore
SplineSet
436 -45 m 0xb0
 384 -45 340 -17 300 16 c 1
 257 -145 l 1
 183 -125 l 1
 230 52 l 1
 228 52 226 52 224 52 c 0
 189 52 166 21 141 -4 c 1x70
 90 46 l 1
 130 87 168 138 224 138 c 0
 234 138 244 137 253 135 c 1
 297 300 l 1
 245 318 189 328 133 328 c 2
 90 328 l 1
 90 414 l 1
 133 414 l 2
 205 414 276 430 340 460 c 1
 403 695 l 1
 477 675 l 1
 434 516 l 1
 460 535 485 557 507 581 c 1
 570 522 l 1
 521 470 464 426 402 394 c 1
 391 354 l 1
 458 321 518 276 570 220 c 1
 507 161 l 1
 467 205 419 242 368 269 c 1
 324 105 l 1
 356 84 391 41 436 41 c 0
 471 41 494 72 519 97 c 1
 570 46 l 1
 530 6 493 -45 436 -45 c 0xb0
EndSplineSet
EndChar

StartChar: uni227F0338
Encoding: 197 59447 197
Width: 660
Flags: W
HStem: -45 86<378.538 484.613> -4 21G<120.6 153.5> 52 86<176.163 229.618> 328 86<412.781 570>
LayerCount: 2
Back
Fore
SplineSet
436 -45 m 0xb0
 384 -45 340 -17 300 16 c 1
 257 -145 l 1
 183 -125 l 1
 230 52 l 1
 228 52 226 52 224 52 c 0
 189 52 166 21 141 -4 c 1x70
 90 46 l 1
 130 87 168 138 224 138 c 0
 234 138 244 137 253 135 c 1
 288 266 l 1
 238 239 192 204 153 161 c 1
 90 220 l 1
 151 286 226 338 308 371 c 1
 226 404 151 456 90 522 c 1
 153 581 l 1
 205 525 269 481 338 452 c 1
 403 695 l 1
 477 675 l 1
 411 428 l 1
 449 419 487 414 527 414 c 2
 570 414 l 1
 570 328 l 1
 527 328 l 2
 476 328 426 320 378 305 c 1
 324 105 l 1
 356 84 391 41 436 41 c 0
 471 41 494 72 519 97 c 1
 570 46 l 1
 530 6 493 -45 436 -45 c 0xb0
EndSplineSet
EndChar

StartChar: uni2AB70338
Encoding: 198 -1 198
Width: 660
Flags: W
HStem: -141 86<379.423 484.613> -19 20G<506.5 539> 52 86<379.542 484.613> 142 83<224.843 254> 148 86<175.609 253.568> 424 86<90 277.263>
LayerCount: 2
Back
Fore
SplineSet
346 185 m 1xf4
 373 165 400 138 436 138 c 0
 471 138 494 168 519 193 c 1
 570 143 l 1
 530 102 493 52 436 52 c 0
 394 52 356 70 322 95 c 1
 302 21 l 1
 322 11 341 -3 358 -17 c 0
 381 -36 406 -55 436 -55 c 0
 471 -55 494 -24 519 1 c 1
 570 -50 l 1
 530 -90 493 -141 436 -141 c 0
 386 -141 341 -115 302 -83 c 0
 295 -77 287 -70 279 -65 c 1
 245 -193 l 1
 170 -173 l 1
 203 -49 l 1
 179 -58 161 -81 141 -100 c 1
 90 -50 l 1
 130 -10 168 41 224 41 c 0
 225 41 226 41 227 41 c 1
 254 142 l 1xf4
 244 146 235 148 224 148 c 0
 189 148 166 117 141 92 c 1
 90 143 l 1
 130 183 168 234 224 234 c 0xec
 242 234 259 231 276 225 c 1
 320 387 l 1
 261 411 198 424 133 424 c 2
 90 424 l 1
 90 510 l 1
 133 510 l 2
 216 510 297 531 369 570 c 1
 415 743 l 1
 490 723 l 1
 467 639 l 1
 481 651 494 664 507 677 c 1
 570 619 l 1
 529 575 483 538 432 508 c 1
 414 438 l 1
 472 407 524 365 570 316 c 1
 507 258 l 1
 473 295 434 327 391 352 c 1
 346 185 l 1xf4
EndSplineSet
EndChar

StartChar: uni2AB80338
Encoding: 199 -1 199
Width: 660
Flags: W
HStem: -141 86<379.423 484.613> -19 20G<506.5 539> 52 86<379.542 484.613> 142 83<224.843 254> 148 86<175.609 253.568> 424 86<436.407 570>
LayerCount: 2
Back
Fore
SplineSet
346 185 m 1xf4
 373 165 400 138 436 138 c 0
 471 138 494 168 519 193 c 1
 570 143 l 1
 530 102 493 52 436 52 c 0
 394 52 356 70 322 95 c 1
 302 21 l 1
 322 11 341 -3 358 -17 c 0
 381 -36 406 -55 436 -55 c 0
 471 -55 494 -24 519 1 c 1
 570 -50 l 1
 530 -90 493 -141 436 -141 c 0
 386 -141 341 -115 302 -83 c 0
 295 -77 287 -70 279 -65 c 1
 245 -193 l 1
 170 -173 l 1
 203 -49 l 1
 179 -58 161 -81 141 -100 c 1
 90 -50 l 1
 130 -10 168 41 224 41 c 0
 225 41 226 41 227 41 c 1
 254 142 l 1xf4
 244 146 235 148 224 148 c 0
 189 148 166 117 141 92 c 1
 90 143 l 1
 130 183 168 234 224 234 c 0xec
 242 234 259 231 276 225 c 1
 317 377 l 1
 256 349 200 308 153 258 c 1
 90 316 l 1
 151 382 227 434 309 467 c 1
 227 501 151 553 90 619 c 1
 153 677 l 1
 211 615 283 567 361 539 c 1
 415 743 l 1
 490 723 l 1
 435 519 l 1
 465 513 496 510 527 510 c 2
 570 510 l 1
 570 424 l 1
 527 424 l 2
 486 424 445 419 406 409 c 1
 346 185 l 1xf4
EndSplineSet
EndChar

StartChar: uni22D60338
Encoding: 200 -1 200
Width: 660
Flags: W
HStem: 204 142<464.51 534.496>
VStem: 429 141<239.512 310.488>
LayerCount: 2
Back
Fore
SplineSet
281 242 m 1
 302 319 l 1
 222 275 l 1
 281 242 l 1
570 275 m 0
 570 261 554 245 542 233 c 0
 529 220 514 204 500 204 c 0
 485 204 470 220 457 233 c 0
 445 245 429 261 429 275 c 0
 429 289 445 305 457 317 c 0
 470 330 485 346 500 346 c 0
 514 346 529 330 542 317 c 0
 554 305 570 289 570 275 c 0
393 659 m 1
 468 639 l 1
 427 486 l 1
 529 542 l 1
 570 467 l 1
 396 371 l 1
 351 204 l 1
 570 83 l 1
 529 8 l 1
 328 119 l 1
 267 -109 l 1
 192 -89 l 1
 258 157 l 1
 90 250 l 1
 90 300 l 1
 332 434 l 1
 393 659 l 1
EndSplineSet
EndChar

StartChar: uni22D70338
Encoding: 201 -1 201
Width: 660
Flags: W
HStem: 204 142<125.51 195.496>
VStem: 90 141<239.512 310.488>
LayerCount: 2
Back
Fore
SplineSet
379 308 m 1
 358 231 l 1
 438 275 l 1
 379 308 l 1
231 275 m 0
 231 261 215 245 203 233 c 0
 190 220 175 204 161 204 c 0
 146 204 131 220 118 233 c 0
 106 245 90 261 90 275 c 0
 90 289 106 305 118 317 c 0
 131 330 146 346 161 346 c 0
 175 346 190 330 203 317 c 0
 215 305 231 289 231 275 c 0
393 659 m 1
 468 639 l 1
 402 393 l 1
 570 300 l 1
 570 250 l 1
 328 116 l 1
 267 -109 l 1
 192 -89 l 1
 233 64 l 1
 131 8 l 1
 90 83 l 1
 264 179 l 1
 309 346 l 1
 90 467 l 1
 131 542 l 1
 332 431 l 1
 393 659 l 1
EndSplineSet
EndChar

StartChar: sym025_uni0338
Encoding: 202 -1 202
Width: 660
Flags: W
HStem: -13 86<90 213 315 570> 269 141<464.51 534.496> 533 20G<488.628 545.25>
VStem: 429 141<303.512 374.488>
LayerCount: 2
Back
Fore
SplineSet
301 316 m 1
 315 368 l 1
 246 339 l 1
 301 316 l 1
570 339 m 0
 570 325 554 309 542 297 c 0
 529 284 514 269 500 269 c 0
 485 269 470 284 457 297 c 0
 445 309 429 325 429 339 c 0
 429 353 445 369 457 381 c 0
 470 394 485 410 500 410 c 0
 514 410 529 394 542 381 c 0
 554 369 570 353 570 339 c 0
403 695 m 1
 477 675 l 1
 433 510 l 1
 537 553 l 1
 570 473 l 1
 404 405 l 1
 373 287 l 1
 570 205 l 1
 537 126 l 1
 350 203 l 1
 315 73 l 1
 570 73 l 1
 570 -13 l 1
 292 -13 l 1
 257 -145 l 1
 183 -125 l 1
 213 -13 l 1
 90 -13 l 1
 90 73 l 1
 236 73 l 1
 279 232 l 1
 90 310 l 1
 90 368 l 1
 343 473 l 1
 403 695 l 1
EndSplineSet
EndChar

StartChar: sym026_uni0338
Encoding: 203 -1 203
Width: 660
Flags: W
HStem: -13 86<90 213 315 570> 269 141<125.51 195.496> 533 20G<114.75 171.444>
VStem: 90 141<303.512 374.488>
LayerCount: 2
Back
Fore
SplineSet
390 349 m 1
 383 326 l 1
 414 339 l 1
 390 349 l 1
231 339 m 0
 231 325 215 309 203 297 c 0
 190 284 175 269 161 269 c 0
 146 269 131 284 118 297 c 0
 106 309 90 325 90 339 c 0
 90 353 106 369 118 381 c 0
 131 394 146 410 161 410 c 0
 175 410 190 394 203 381 c 0
 215 369 231 353 231 339 c 0
403 695 m 1
 477 675 l 1
 412 433 l 1
 570 368 l 1
 570 310 l 1
 355 222 l 1
 315 73 l 1
 570 73 l 1
 570 -13 l 1
 292 -13 l 1
 257 -145 l 1
 183 -125 l 1
 213 -13 l 1
 90 -13 l 1
 90 73 l 1
 236 73 l 1
 266 185 l 1
 123 126 l 1
 90 205 l 1
 294 289 l 1
 318 379 l 1
 90 473 l 1
 123 553 l 1
 341 463 l 1
 403 695 l 1
EndSplineSet
EndChar

StartChar: uni2A7F0338
Encoding: 204 -1 204
Width: 660
Flags: W
HStem: 301 141<463.87 535.135>
VStem: 429 141<335.865 407.056>
LayerCount: 2
Back
Fore
SplineSet
309 345 m 1
 325 404 l 1
 246 371 l 1
 309 345 l 1
570 371 m 0
 570 357 554 342 542 329 c 0
 529 316 514 301 500 301 c 0
 485 301 470 316 457 329 c 0
 445 342 429 357 429 371 c 0
 429 385 445 401 457 414 c 0
 470 426 485 442 500 442 c 0
 514 442 529 426 542 414 c 0
 554 401 570 385 570 371 c 0
403 695 m 1
 477 675 l 1
 442 546 l 1
 537 585 l 1
 570 505 l 1
 414 441 l 1
 381 315 l 1
 570 237 l 1
 537 158 l 1
 358 232 l 1
 334 142 l 1
 570 45 l 1
 537 -35 l 1
 312 58 l 1
 257 -145 l 1
 183 -125 l 1
 240 88 l 1
 90 150 l 1
 123 229 l 1
 263 172 l 1
 287 261 l 1
 90 342 l 1
 90 400 l 1
 353 509 l 1
 403 695 l 1
EndSplineSet
EndChar

StartChar: uni2A800338
Encoding: 205 -1 205
Width: 660
Flags: W
HStem: 301 141<124.87 196.135>
VStem: 90 141<335.865 407.056>
LayerCount: 2
Back
Fore
SplineSet
397 378 m 1
 393 362 l 1
 414 371 l 1
 397 378 l 1
231 371 m 0
 231 357 215 342 203 329 c 0
 190 316 175 301 161 301 c 0
 146 301 131 316 118 329 c 0
 106 342 90 357 90 371 c 0
 90 385 106 401 118 414 c 0
 131 426 146 442 161 442 c 0
 175 442 190 426 203 414 c 0
 215 401 231 385 231 371 c 0
403 695 m 1
 477 675 l 1
 420 462 l 1
 570 400 l 1
 570 342 l 1
 365 258 l 1
 335 146 l 1
 537 229 l 1
 570 150 l 1
 307 41 l 1
 257 -145 l 1
 183 -125 l 1
 218 4 l 1
 123 -35 l 1
 90 45 l 1
 246 109 l 1
 276 221 l 1
 123 158 l 1
 90 237 l 1
 304 325 l 1
 326 407 l 1
 90 505 l 1
 123 585 l 1
 348 492 l 1
 403 695 l 1
EndSplineSet
EndChar

StartChar: uni2A950338
Encoding: 206 60772 206
Width: 660
Flags: W
LayerCount: 2
Back
Fore
SplineSet
263 172 m 1
 267 188 l 1
 246 179 l 1
 263 172 l 1
403 695 m 1
 477 675 l 1
 442 546 l 1
 537 585 l 1
 570 505 l 1
 414 441 l 1
 384 329 l 1
 537 392 l 1
 570 313 l 1
 356 225 l 1
 334 143 l 1
 570 45 l 1
 537 -35 l 1
 312 58 l 1
 257 -145 l 1
 183 -125 l 1
 240 88 l 1
 90 150 l 1
 90 208 l 1
 295 292 l 1
 325 404 l 1
 123 321 l 1
 90 400 l 1
 353 509 l 1
 403 695 l 1
EndSplineSet
EndChar

StartChar: uni2A960338
Encoding: 207 60773 207
Width: 660
Flags: W
LayerCount: 2
Back
Fore
SplineSet
351 205 m 1
 335 146 l 1
 414 179 l 1
 351 205 l 1
403 695 m 1
 477 675 l 1
 420 462 l 1
 570 400 l 1
 537 321 l 1
 397 378 l 1
 373 289 l 1
 570 208 l 1
 570 150 l 1
 307 41 l 1
 257 -145 l 1
 183 -125 l 1
 218 4 l 1
 123 -35 l 1
 90 45 l 1
 246 109 l 1
 279 235 l 1
 90 313 l 1
 123 392 l 1
 302 318 l 1
 326 408 l 1
 90 505 l 1
 123 585 l 1
 348 492 l 1
 403 695 l 1
EndSplineSet
EndChar

StartChar: uni22DE0338
Encoding: 208 60796 208
Width: 660
Flags: W
HStem: 136 86<90 247.219> 328 86<90 278.814>
LayerCount: 2
Back
Fore
SplineSet
403 695 m 1
 477 675 l 1
 446 558 l 1
 453 565 459 572 466 579 c 1
 528 522 l 1
 489 483 450 444 407 413 c 1
 372 284 l 1
 422 311 468 346 507 389 c 1
 570 330 l 1
 509 264 434 212 352 179 c 1
 434 146 509 94 570 28 c 1
 507 -31 l 1
 455 25 391 69 322 98 c 1
 257 -145 l 1
 183 -125 l 1
 249 122 l 1
 211 131 173 136 133 136 c 2
 90 136 l 1
 90 222 l 1
 133 222 l 2
 184 222 234 230 282 245 c 1
 312 358 l 1
 270 339 225 328 176 328 c 2
 90 328 l 1
 90 414 l 1
 176 414 l 2
 238 414 292 436 342 469 c 1
 403 695 l 1
EndSplineSet
EndChar

StartChar: uni22DF0338
Encoding: 209 60797 209
Width: 660
Flags: W
HStem: 136 86<385.049 570> 328 86<411.08 570> 343 82<410 568.656>
LayerCount: 2
Back
Fore
SplineSet
403 695 m 1xa0
 477 675 l 1
 410 425 l 1xa0
 433 418 458 414 484 414 c 2
 570 414 l 1
 570 328 l 1
 484 328 l 2xc0
 450 328 418 334 388 343 c 1
 363 250 l 1
 415 232 471 222 527 222 c 2
 570 222 l 1
 570 136 l 1
 527 136 l 2
 455 136 384 120 320 90 c 1
 257 -145 l 1
 183 -125 l 1
 226 34 l 1
 200 15 175 -7 153 -31 c 1
 90 28 l 1
 139 80 196 124 258 156 c 1
 269 196 l 1
 202 229 142 274 90 330 c 1
 153 389 l 1
 193 345 241 308 292 281 c 1
 317 373 l 1
 250 409 189 464 132 522 c 1
 194 579 l 1
 239 532 286 487 339 456 c 1
 403 695 l 1xa0
EndSplineSet
EndChar

StartChar: uni2246
Encoding: 210 8774 210
Width: 660
Flags: W
HStem: 40 86<90 259 363 570> 232 86<90 311 414 570> 376 86<379.423 484.613> 473 86<175.609 280.577>
LayerCount: 2
Back
Fore
SplineSet
141 417 m 1
 90 467 l 1
 130 508 168 559 224 559 c 0
 274 559 319 533 358 500 c 0
 381 481 406 462 436 462 c 0
 471 462 494 493 519 518 c 1
 570 467 l 1
 530 427 493 376 436 376 c 0
 386 376 341 402 302 435 c 0
 279 454 254 473 224 473 c 0
 189 473 166 442 141 417 c 1
348 371 m 1
 423 350 l 1
 414 318 l 1
 570 318 l 1
 570 232 l 1
 391 232 l 1
 363 126 l 1
 570 126 l 1
 570 40 l 1
 339 40 l 1
 312 -61 l 1
 237 -41 l 1
 259 40 l 1
 90 40 l 1
 90 126 l 1
 282 126 l 1
 311 232 l 1
 90 232 l 1
 90 318 l 1
 334 318 l 1
 348 371 l 1
EndSplineSet
EndChar

StartChar: sym027
Encoding: 211 -1 211
Width: 660
Flags: W
HStem: 40 86<90 253 356 570> 232 86<90 304 407 570> 376 86<175.609 280.577> 473 86<379.423 484.613>
LayerCount: 2
Back
Fore
SplineSet
519 417 m 1
 494 442 471 473 436 473 c 0
 406 473 381 454 358 435 c 0
 319 402 274 376 224 376 c 0
 168 376 130 427 90 467 c 1
 141 518 l 1
 166 493 189 462 224 462 c 0
 254 462 279 481 302 500 c 0
 341 533 386 559 436 559 c 0
 493 559 530 508 570 467 c 1
 519 417 l 1
354 419 m 1
 429 399 l 1
 407 318 l 1
 570 318 l 1
 570 232 l 1
 384 232 l 1
 356 126 l 1
 570 126 l 1
 570 40 l 1
 333 40 l 1
 306 -61 l 1
 231 -41 l 1
 253 40 l 1
 90 40 l 1
 90 126 l 1
 276 126 l 1
 304 232 l 1
 90 232 l 1
 90 318 l 1
 327 318 l 1
 354 419 l 1
EndSplineSet
EndChar

StartChar: uni2A87
Encoding: 212 10887 212
Width: 660
Flags: W
HStem: -13 86<90 278 381 570> 533 20G<488.676 545.25>
LayerCount: 2
Back
Fore
SplineSet
537 553 m 1
 570 473 l 1
 246 339 l 1
 570 205 l 1
 537 126 l 1
 90 310 l 1
 90 368 l 1
 537 553 l 1
328 174 m 1
 403 154 l 1
 381 73 l 1
 570 73 l 1
 570 -13 l 1
 359 -13 l 1
 332 -113 l 1
 257 -93 l 1
 278 -13 l 1
 90 -13 l 1
 90 73 l 1
 301 73 l 1
 328 174 l 1
EndSplineSet
EndChar

StartChar: uni2A88
Encoding: 213 10888 213
Width: 660
Flags: W
HStem: -13 86<90 278 381 570> 533 20G<114.75 171.324>
LayerCount: 2
Back
Fore
SplineSet
123 126 m 1
 90 205 l 1
 414 339 l 1
 90 473 l 1
 123 553 l 1
 570 368 l 1
 570 310 l 1
 123 126 l 1
328 174 m 1
 403 154 l 1
 381 73 l 1
 570 73 l 1
 570 -13 l 1
 359 -13 l 1
 332 -113 l 1
 257 -93 l 1
 278 -13 l 1
 90 -13 l 1
 90 73 l 1
 301 73 l 1
 328 174 l 1
EndSplineSet
EndChar

StartChar: uni2268
Encoding: 214 8808 214
Width: 660
Flags: W
HStem: -109 86<90 252 356 570> 84 86<90 304 408 570>
LayerCount: 2
Back
Fore
SplineSet
537 649 m 1
 570 569 l 1
 246 435 l 1
 570 301 l 1
 537 222 l 1
 90 407 l 1
 90 464 l 1
 537 649 l 1
354 270 m 1
 429 250 l 1
 408 170 l 1
 570 170 l 1
 570 84 l 1
 385 84 l 1
 356 -23 l 1
 570 -23 l 1
 570 -109 l 1
 333 -109 l 1
 306 -210 l 1
 231 -189 l 1
 252 -109 l 1
 90 -109 l 1
 90 -23 l 1
 275 -23 l 1
 304 84 l 1
 90 84 l 1
 90 170 l 1
 327 170 l 1
 354 270 l 1
EndSplineSet
EndChar

StartChar: uni2269
Encoding: 215 8809 215
Width: 660
Flags: W
HStem: -109 86<90 252 356 570> 84 86<90 304 408 570>
LayerCount: 2
Back
Fore
SplineSet
123 222 m 1
 90 301 l 1
 414 435 l 1
 90 569 l 1
 123 649 l 1
 570 464 l 1
 570 407 l 1
 123 222 l 1
354 270 m 1
 429 250 l 1
 408 170 l 1
 570 170 l 1
 570 84 l 1
 385 84 l 1
 356 -23 l 1
 570 -23 l 1
 570 -109 l 1
 333 -109 l 1
 306 -210 l 1
 231 -189 l 1
 252 -109 l 1
 90 -109 l 1
 90 -23 l 1
 275 -23 l 1
 304 84 l 1
 90 84 l 1
 90 170 l 1
 327 170 l 1
 354 270 l 1
EndSplineSet
EndChar

StartChar: uni22E6
Encoding: 216 8934 216
Width: 660
Flags: W
HStem: -45 86<378.319 484.613> -4 21G<120.6 153.5> 52 86<175.609 281.681>
LayerCount: 2
Back
Fore
SplineSet
537 585 m 1x20
 570 505 l 1
 246 371 l 1
 570 237 l 1
 537 158 l 1
 90 342 l 1
 90 400 l 1
 537 585 l 1x20
328 190 m 1
 403 170 l 1
 375 65 l 1
 393 51 413 41 436 41 c 0
 471 41 494 72 519 97 c 1
 570 46 l 1
 530 6 493 -45 436 -45 c 0xa0
 406 -45 378 -35 352 -21 c 1
 332 -97 l 1
 257 -77 l 1
 285 28 l 1
 267 42 247 52 224 52 c 0
 189 52 166 21 141 -4 c 1x60
 90 46 l 1
 130 87 168 138 224 138 c 0
 254 138 282 128 308 114 c 1
 328 190 l 1
EndSplineSet
EndChar

StartChar: uni22E7
Encoding: 217 8935 217
Width: 660
Flags: W
HStem: -45 86<378.319 484.613> -4 21G<120.6 153.5> 52 86<175.609 281.681>
LayerCount: 2
Back
Fore
SplineSet
123 158 m 1x20
 90 237 l 1
 414 371 l 1
 90 505 l 1
 123 585 l 1
 570 400 l 1
 570 342 l 1
 123 158 l 1x20
328 190 m 1
 403 170 l 1
 375 65 l 1
 393 51 413 41 436 41 c 0
 471 41 494 72 519 97 c 1
 570 46 l 1
 530 6 493 -45 436 -45 c 0xa0
 406 -45 378 -35 352 -21 c 1
 332 -97 l 1
 257 -77 l 1
 285 28 l 1
 267 42 247 52 224 52 c 0
 189 52 166 21 141 -4 c 1x60
 90 46 l 1
 130 87 168 138 224 138 c 0
 254 138 282 128 308 114 c 1
 328 190 l 1
EndSplineSet
EndChar

StartChar: uni2A89
Encoding: 218 10889 218
Width: 660
Flags: W
HStem: -141 86<379.355 484.613> -45 86<175.609 262.662> -19 20G<506.5 539> 52 86<397.338 484.613> 148 86<175.609 280.645>
LayerCount: 2
Back
Fore
SplineSet
537 681 m 1x98
 570 601 l 1
 246 467 l 1
 570 334 l 1
 537 254 l 1
 90 439 l 1
 90 496 l 1
 537 681 l 1x98
306 107 m 1
 282 126 256 148 224 148 c 0
 189 148 166 117 141 92 c 1
 90 143 l 1
 130 183 168 234 224 234 c 0
 262 234 298 219 330 197 c 1
 354 286 l 1
 429 266 l 1
 397 148 l 1
 409 142 422 138 436 138 c 0
 471 138 494 168 519 193 c 1
 570 143 l 1
 530 102 493 52 436 52 c 0
 415 52 394 57 375 65 c 1
 354 -14 l 1
 378 -33 404 -55 436 -55 c 0
 471 -55 494 -24 519 1 c 1xb8
 570 -50 l 1
 530 -90 493 -141 436 -141 c 0
 398 -141 362 -126 330 -104 c 1
 306 -193 l 1
 231 -173 l 1
 263 -55 l 1
 251 -49 238 -45 224 -45 c 0
 189 -45 166 -76 141 -100 c 1
 90 -50 l 1
 130 -10 168 41 224 41 c 0xd8
 245 41 266 36 285 28 c 1
 306 107 l 1
EndSplineSet
EndChar

StartChar: uni2A8A
Encoding: 219 10890 219
Width: 660
Flags: W
HStem: -141 86<379.355 484.613> -45 86<175.609 262.662> -19 20G<506.5 539> 52 86<397.338 484.613> 148 86<175.609 280.645>
LayerCount: 2
Back
Fore
SplineSet
123 254 m 1x98
 90 334 l 1
 414 467 l 1
 90 601 l 1
 123 681 l 1
 570 496 l 1
 570 439 l 1
 123 254 l 1x98
306 107 m 1
 282 126 256 148 224 148 c 0
 189 148 166 117 141 92 c 1
 90 143 l 1
 130 183 168 234 224 234 c 0
 262 234 298 219 330 197 c 1
 354 286 l 1
 429 266 l 1
 397 148 l 1
 409 142 422 138 436 138 c 0
 471 138 494 168 519 193 c 1
 570 143 l 1
 530 102 493 52 436 52 c 0
 415 52 394 57 375 65 c 1
 354 -14 l 1
 378 -33 404 -55 436 -55 c 0
 471 -55 494 -24 519 1 c 1xb8
 570 -50 l 1
 530 -90 493 -141 436 -141 c 0
 398 -141 362 -126 330 -104 c 1
 306 -193 l 1
 231 -173 l 1
 263 -55 l 1
 251 -49 238 -45 224 -45 c 0
 189 -45 166 -76 141 -100 c 1
 90 -50 l 1
 130 -10 168 41 224 41 c 0xd8
 245 41 266 36 285 28 c 1
 306 107 l 1
EndSplineSet
EndChar

StartChar: uni22E4
Encoding: 220 8932 220
Width: 660
Flags: W
HStem: -45 86<90 252 356 570> 148 86<176 304 408 570> 509 86<176 570>
VStem: 90 86<234 509>
LayerCount: 2
Back
Fore
SplineSet
354 334 m 1
 429 314 l 1
 408 234 l 1
 570 234 l 1
 570 148 l 1
 385 148 l 1
 356 41 l 1
 570 41 l 1
 570 -45 l 1
 333 -45 l 1
 306 -145 l 1
 231 -125 l 1
 252 -45 l 1
 90 -45 l 1
 90 41 l 1
 275 41 l 1
 304 148 l 1
 90 148 l 1
 90 595 l 1
 570 595 l 1
 570 509 l 1
 176 509 l 1
 176 234 l 1
 327 234 l 1
 354 334 l 1
EndSplineSet
EndChar

StartChar: uni22E5
Encoding: 221 8933 221
Width: 660
Flags: W
HStem: -45 86<90 252 356 570> 148 86<90 304 408 484> 509 86<90 484>
VStem: 484 86<234 509>
LayerCount: 2
Back
Fore
SplineSet
354 334 m 1
 429 314 l 1
 408 234 l 1
 484 234 l 1
 484 509 l 1
 90 509 l 1
 90 595 l 1
 570 595 l 1
 570 148 l 1
 385 148 l 1
 356 41 l 1
 570 41 l 1
 570 -45 l 1
 333 -45 l 1
 306 -145 l 1
 231 -125 l 1
 252 -45 l 1
 90 -45 l 1
 90 41 l 1
 275 41 l 1
 304 148 l 1
 90 148 l 1
 90 234 l 1
 327 234 l 1
 354 334 l 1
EndSplineSet
EndChar

StartChar: sym028
Encoding: 222 -1 222
Width: 660
Flags: W
HStem: -141 86<90 253 356 570> 52 86<90 304 408 570> 244 86<176 570> 605 86<176 570>
VStem: 90 86<330 605>
LayerCount: 2
Back
Fore
SplineSet
176 330 m 1
 570 330 l 1
 570 244 l 1
 90 244 l 1
 90 691 l 1
 570 691 l 1
 570 605 l 1
 176 605 l 1
 176 330 l 1
354 238 m 1
 429 218 l 1
 408 138 l 1
 570 138 l 1
 570 52 l 1
 385 52 l 1
 356 -55 l 1
 570 -55 l 1
 570 -141 l 1
 333 -141 l 1
 306 -242 l 1
 231 -222 l 1
 253 -141 l 1
 90 -141 l 1
 90 -55 l 1
 276 -55 l 1
 304 52 l 1
 90 52 l 1
 90 138 l 1
 327 138 l 1
 354 238 l 1
EndSplineSet
EndChar

StartChar: sym029
Encoding: 223 -1 223
Width: 660
Flags: W
HStem: -141 86<90 253 356 570> 52 86<90 304 408 570> 244 86<90 484> 605 86<90 484>
VStem: 484 86<330 605>
LayerCount: 2
Back
Fore
SplineSet
484 330 m 1
 484 605 l 1
 90 605 l 1
 90 691 l 1
 570 691 l 1
 570 244 l 1
 90 244 l 1
 90 330 l 1
 484 330 l 1
354 238 m 1
 429 218 l 1
 408 138 l 1
 570 138 l 1
 570 52 l 1
 385 52 l 1
 356 -55 l 1
 570 -55 l 1
 570 -141 l 1
 333 -141 l 1
 306 -242 l 1
 231 -222 l 1
 253 -141 l 1
 90 -141 l 1
 90 -55 l 1
 276 -55 l 1
 304 52 l 1
 90 52 l 1
 90 138 l 1
 327 138 l 1
 354 238 l 1
EndSplineSet
EndChar

StartChar: uni228A
Encoding: 224 8842 224
Width: 660
Flags: W
HStem: -45 86<90 252 356 570> 148 86<224.919 304 408 570> 509 86<224.919 570>
VStem: 90 86<286.502 456.198>
LayerCount: 2
Back
Fore
SplineSet
354 334 m 1
 429 314 l 1
 408 234 l 1
 570 234 l 1
 570 148 l 1
 385 148 l 1
 356 41 l 1
 570 41 l 1
 570 -45 l 1
 333 -45 l 1
 306 -145 l 1
 231 -125 l 1
 252 -45 l 1
 90 -45 l 1
 90 41 l 1
 275 41 l 1
 304 148 l 1
 279 148 l 2
 168 148 90 254 90 371 c 0
 90 489 168 595 279 595 c 2
 570 595 l 1
 570 509 l 1
 279 509 l 2
 215 509 176 442 176 371 c 0
 176 301 215 234 279 234 c 2
 327 234 l 1
 354 334 l 1
EndSplineSet
EndChar

StartChar: uni228B
Encoding: 225 8843 225
Width: 660
Flags: W
HStem: -45 86<90 252 356 570> 148 86<90 304> 509 86<90 435.081>
VStem: 484 86<287.088 456.198>
LayerCount: 2
Back
Fore
SplineSet
354 334 m 1
 429 314 l 1
 409 239 l 1
 456 255 484 312 484 371 c 0
 484 442 445 509 381 509 c 2
 90 509 l 1
 90 595 l 1
 381 595 l 2
 492 595 570 489 570 371 c 0
 570 255 494 150 385 148 c 1
 356 41 l 1
 570 41 l 1
 570 -45 l 1
 333 -45 l 1
 306 -145 l 1
 231 -125 l 1
 252 -45 l 1
 90 -45 l 1
 90 41 l 1
 275 41 l 1
 304 148 l 1
 90 148 l 1
 90 234 l 1
 327 234 l 1
 354 334 l 1
EndSplineSet
EndChar

StartChar: uni2ACB
Encoding: 226 10955 226
Width: 660
Flags: W
HStem: -141 86<90 253 356 570> 52 86<90 304 408 570> 244 86<224.919 570> 605 86<224.919 570>
VStem: 90 86<382.502 552.198>
LayerCount: 2
Back
Fore
SplineSet
570 605 m 1
 279 605 l 2
 215 605 176 538 176 467 c 0
 176 397 215 330 279 330 c 2
 570 330 l 1
 570 244 l 1
 279 244 l 2
 168 244 90 350 90 467 c 0
 90 585 168 691 279 691 c 2
 570 691 l 1
 570 605 l 1
354 238 m 1
 429 218 l 1
 408 138 l 1
 570 138 l 1
 570 52 l 1
 385 52 l 1
 356 -55 l 1
 570 -55 l 1
 570 -141 l 1
 333 -141 l 1
 306 -242 l 1
 231 -222 l 1
 253 -141 l 1
 90 -141 l 1
 90 -55 l 1
 276 -55 l 1
 304 52 l 1
 90 52 l 1
 90 138 l 1
 327 138 l 1
 354 238 l 1
EndSplineSet
EndChar

StartChar: uni2ACC
Encoding: 227 10956 227
Width: 660
Flags: W
HStem: -141 86<90 253 356 570> 52 86<90 304 408 570> 244 86<90 435.081> 605 86<90 435.081>
VStem: 484 86<382.502 552.198>
LayerCount: 2
Back
Fore
SplineSet
90 330 m 1
 381 330 l 2
 445 330 484 397 484 467 c 0
 484 538 445 605 381 605 c 2
 90 605 l 1
 90 691 l 1
 381 691 l 2
 492 691 570 585 570 467 c 0
 570 350 492 244 381 244 c 2
 90 244 l 1
 90 330 l 1
354 238 m 1
 429 218 l 1
 408 138 l 1
 570 138 l 1
 570 52 l 1
 385 52 l 1
 356 -55 l 1
 570 -55 l 1
 570 -141 l 1
 333 -141 l 1
 306 -242 l 1
 231 -222 l 1
 253 -141 l 1
 90 -141 l 1
 90 -55 l 1
 276 -55 l 1
 304 52 l 1
 90 52 l 1
 90 138 l 1
 327 138 l 1
 354 238 l 1
EndSplineSet
EndChar

StartChar: uni2AB1
Encoding: 228 10929 228
Width: 660
Flags: W
HStem: -13 86<90 278 381 570> 296 86<90 275.697> 529 20G<458.5 528.356>
LayerCount: 2
Back
Fore
SplineSet
352 339 m 1
 434 306 509 254 570 188 c 1
 507 129 l 1
 410 234 275 296 133 296 c 2
 90 296 l 1
 90 382 l 1
 133 382 l 2
 275 382 410 445 507 549 c 1
 570 490 l 1
 509 424 434 372 352 339 c 1
328 174 m 1
 403 154 l 1
 381 73 l 1
 570 73 l 1
 570 -13 l 1
 359 -13 l 1
 332 -113 l 1
 257 -93 l 1
 278 -13 l 1
 90 -13 l 1
 90 73 l 1
 301 73 l 1
 328 174 l 1
EndSplineSet
EndChar

StartChar: uni2AB2
Encoding: 229 10930 229
Width: 660
Flags: W
HStem: -13 86<90 278 381 570> 296 86<384.303 570> 529 20G<131.644 201.5>
LayerCount: 2
Back
Fore
SplineSet
308 339 m 1
 226 372 151 424 90 490 c 1
 153 549 l 1
 250 445 385 382 527 382 c 2
 570 382 l 1
 570 296 l 1
 527 296 l 2
 385 296 250 234 153 129 c 1
 90 188 l 1
 151 254 226 306 308 339 c 1
328 174 m 1
 403 154 l 1
 381 73 l 1
 570 73 l 1
 570 -13 l 1
 359 -13 l 1
 332 -113 l 1
 257 -93 l 1
 278 -13 l 1
 90 -13 l 1
 90 73 l 1
 301 73 l 1
 328 174 l 1
EndSplineSet
EndChar

StartChar: uni2AB5
Encoding: 230 10933 230
Width: 660
Flags: W
HStem: -109 86<90 252 356 570> 84 86<90 304 408 570> 392 86<90 275.697>
LayerCount: 2
Back
Fore
SplineSet
351 435 m 1
 433 402 509 350 570 284 c 1
 507 226 l 1
 410 330 275 392 133 392 c 2
 90 392 l 1
 90 478 l 1
 133 478 l 2
 275 478 410 541 507 645 c 1
 570 587 l 1
 509 521 433 469 351 435 c 1
354 270 m 1
 429 250 l 1
 408 170 l 1
 570 170 l 1
 570 84 l 1
 385 84 l 1
 356 -23 l 1
 570 -23 l 1
 570 -109 l 1
 333 -109 l 1
 306 -210 l 1
 231 -189 l 1
 252 -109 l 1
 90 -109 l 1
 90 -23 l 1
 275 -23 l 1
 304 84 l 1
 90 84 l 1
 90 170 l 1
 327 170 l 1
 354 270 l 1
EndSplineSet
EndChar

StartChar: uni2AB6
Encoding: 231 10934 231
Width: 660
Flags: W
HStem: -109 86<90 252 356 570> 84 86<90 304 408 570> 392 86<384.303 570>
LayerCount: 2
Back
Fore
SplineSet
309 435 m 1
 227 469 151 521 90 587 c 1
 153 645 l 1
 250 541 385 478 527 478 c 2
 570 478 l 1
 570 392 l 1
 527 392 l 2
 385 392 250 330 153 226 c 1
 90 284 l 1
 151 350 227 402 309 435 c 1
354 270 m 1
 429 250 l 1
 408 170 l 1
 570 170 l 1
 570 84 l 1
 385 84 l 1
 356 -23 l 1
 570 -23 l 1
 570 -109 l 1
 333 -109 l 1
 306 -210 l 1
 231 -189 l 1
 252 -109 l 1
 90 -109 l 1
 90 -23 l 1
 275 -23 l 1
 304 84 l 1
 90 84 l 1
 90 170 l 1
 327 170 l 1
 354 270 l 1
EndSplineSet
EndChar

StartChar: uni22E8
Encoding: 232 8936 232
Width: 660
Flags: W
HStem: -45 86<378.319 484.613> -4 21G<120.6 153.5> 52 86<175.609 281.681> 328 86<90 275.697>
LayerCount: 2
Back
Fore
SplineSet
352 371 m 1x30
 434 338 509 286 570 220 c 1
 507 161 l 1
 410 266 275 328 133 328 c 2
 90 328 l 1
 90 414 l 1
 133 414 l 2
 275 414 410 477 507 581 c 1
 570 522 l 1
 509 456 434 404 352 371 c 1x30
328 190 m 1
 403 170 l 1
 375 65 l 1
 393 51 413 41 436 41 c 0
 471 41 494 72 519 97 c 1
 570 46 l 1
 530 6 493 -45 436 -45 c 0xb0
 406 -45 378 -35 352 -21 c 1
 332 -97 l 1
 257 -77 l 1
 285 28 l 1
 267 42 247 52 224 52 c 0
 189 52 166 21 141 -4 c 1x70
 90 46 l 1
 130 87 168 138 224 138 c 0
 254 138 282 128 308 114 c 1
 328 190 l 1
EndSplineSet
EndChar

StartChar: uni22E9
Encoding: 233 8937 233
Width: 660
Flags: W
HStem: -45 86<378.319 484.613> -4 21G<120.6 153.5> 52 86<175.609 281.681> 328 86<384.303 570>
LayerCount: 2
Back
Fore
SplineSet
308 371 m 1x30
 226 404 151 456 90 522 c 1
 153 581 l 1
 250 477 385 414 527 414 c 2
 570 414 l 1
 570 328 l 1
 527 328 l 2
 385 328 250 266 153 161 c 1
 90 220 l 1
 151 286 226 338 308 371 c 1x30
328 190 m 1
 403 170 l 1
 375 65 l 1
 393 51 413 41 436 41 c 0
 471 41 494 72 519 97 c 1
 570 46 l 1
 530 6 493 -45 436 -45 c 0xb0
 406 -45 378 -35 352 -21 c 1
 332 -97 l 1
 257 -77 l 1
 285 28 l 1
 267 42 247 52 224 52 c 0
 189 52 166 21 141 -4 c 1x70
 90 46 l 1
 130 87 168 138 224 138 c 0
 254 138 282 128 308 114 c 1
 328 190 l 1
EndSplineSet
EndChar

StartChar: uni2AB9
Encoding: 234 10937 234
Width: 660
Flags: W
HStem: -141 86<379.355 484.613> -45 86<175.609 262.662> -19 20G<506.5 539> 52 86<397.338 484.613> 148 86<175.609 280.645> 424 86<90 275.697>
LayerCount: 2
Back
Fore
SplineSet
351 467 m 1x9c
 433 434 509 382 570 316 c 1
 507 258 l 1
 410 362 275 424 133 424 c 2
 90 424 l 1
 90 510 l 1
 133 510 l 2
 275 510 410 573 507 677 c 1
 570 619 l 1
 509 553 433 501 351 467 c 1x9c
306 107 m 1
 282 126 256 148 224 148 c 0
 189 148 166 117 141 92 c 1
 90 143 l 1
 130 183 168 234 224 234 c 0
 262 234 298 219 330 197 c 1
 354 286 l 1
 429 266 l 1
 397 148 l 1
 409 142 422 138 436 138 c 0
 471 138 494 168 519 193 c 1
 570 143 l 1
 530 102 493 52 436 52 c 0
 415 52 394 57 375 65 c 1
 354 -14 l 1
 378 -33 404 -55 436 -55 c 0
 471 -55 494 -24 519 1 c 1xbc
 570 -50 l 1
 530 -90 493 -141 436 -141 c 0
 398 -141 362 -126 330 -104 c 1
 306 -193 l 1
 231 -173 l 1
 263 -55 l 1
 251 -49 238 -45 224 -45 c 0
 189 -45 166 -76 141 -100 c 1
 90 -50 l 1
 130 -10 168 41 224 41 c 0xdc
 245 41 266 36 285 28 c 1
 306 107 l 1
EndSplineSet
EndChar

StartChar: uni2ABA
Encoding: 235 10938 235
Width: 660
Flags: W
HStem: -141 86<379.355 484.613> -45 86<175.609 262.662> -19 20G<506.5 539> 52 86<397.338 484.613> 148 86<175.609 280.645> 424 86<384.303 570>
LayerCount: 2
Back
Fore
SplineSet
309 467 m 1x9c
 227 501 151 553 90 619 c 1
 153 677 l 1
 250 573 385 510 527 510 c 2
 570 510 l 1
 570 424 l 1
 527 424 l 2
 385 424 250 362 153 258 c 1
 90 316 l 1
 151 382 227 434 309 467 c 1x9c
306 107 m 1
 282 126 256 148 224 148 c 0
 189 148 166 117 141 92 c 1
 90 143 l 1
 130 183 168 234 224 234 c 0
 262 234 298 219 330 197 c 1
 354 286 l 1
 429 266 l 1
 397 148 l 1
 409 142 422 138 436 138 c 0
 471 138 494 168 519 193 c 1
 570 143 l 1
 530 102 493 52 436 52 c 0
 415 52 394 57 375 65 c 1
 354 -14 l 1
 378 -33 404 -55 436 -55 c 0
 471 -55 494 -24 519 1 c 1xbc
 570 -50 l 1
 530 -90 493 -141 436 -141 c 0
 398 -141 362 -126 330 -104 c 1
 306 -193 l 1
 231 -173 l 1
 263 -55 l 1
 251 -49 238 -45 224 -45 c 0
 189 -45 166 -76 141 -100 c 1
 90 -50 l 1
 130 -10 168 41 224 41 c 0xdc
 245 41 266 36 285 28 c 1
 306 107 l 1
EndSplineSet
EndChar
